<?xml version="1.0" standalone="no"?>
<!DOCTYPE svg PUBLIC "-//W3C//DTD SVG 1.1//EN" "http://www.w3.org/Graphics/SVG/1.1/DTD/svg11.dtd" >
<svg>
<metadata>
Created by FontForge 20090622 at Thu Jul 13 08:55:17 2017
 By deploy user
Copyright (c) 2011 by Vincenzo Vuono. All rights reserved.
</metadata>
<defs>
<font id="Gravity-Bold" horiz-adv-x="691" >
  <font-face 
    font-family="Gravity"
    font-weight="700"
    font-stretch="normal"
    units-per-em="1000"
    panose-1="0 0 8 0 0 0 0 0 0 0"
    ascent="800"
    descent="-200"
    x-height="537"
    cap-height="732"
    bbox="-27 -245 1128 977"
    underline-thickness="85"
    underline-position="-136"
    unicode-range="U+0020-U+F8FF"
  />
<missing-glyph horiz-adv-x="698" 
d="M611 707v-683q0 -25 -25 -25h-474q-25 0 -25 25v683q0 25 25 25h474q25 0 25 -25zM202 660l147 -227l147 227h-294zM164 142l135 224l-135 222v-446zM400 366l135 -223v445zM202 69l294 1l-147 228z" />
    <glyph glyph-name=".notdef" horiz-adv-x="698" 
d="M611 707v-683q0 -25 -25 -25h-474q-25 0 -25 25v683q0 25 25 25h474q25 0 25 -25zM202 660l147 -227l147 227h-294zM164 142l135 224l-135 222v-446zM400 366l135 -223v445zM202 69l294 1l-147 228z" />
    <glyph glyph-name=".null" horiz-adv-x="0" 
 />
    <glyph glyph-name="nonmarkingreturn" horiz-adv-x="333" 
 />
    <glyph glyph-name="space" unicode=" " horiz-adv-x="197" 
 />
    <glyph glyph-name="exclam" unicode="!" horiz-adv-x="382" 
d="M253 713l5 -457q0 -25 -25 -25h-74q-25 0 -25 25l5 457q0 25 25 25h64q25 0 25 -25zM260 102v-77q0 -25 -25 -25h-88q-25 0 -25 25v77q0 25 25 25h88q25 0 25 -25z" />
    <glyph glyph-name="quotedbl" unicode="&#x22;" horiz-adv-x="530" 
d="M260 713l-39 -217q-5 -23 -27 -23h-43q-28 0 -23 27l30 217q3 23 26 23h53q28 0 23 -27zM440 713l-38 -217q-5 -23 -27 -23h-43q-28 0 -23 27l30 217q3 23 26 23h53q27 0 22 -27z" />
    <glyph glyph-name="numbersign" unicode="#" horiz-adv-x="766" 
d="M562 446l-23 -111h107q28 0 22 -27l-9 -44q-4 -22 -27 -22h-112l-45 -220q-4 -22 -28 -22h-48q-28 0 -22 27l45 215h-137l-45 -220q-4 -22 -28 -22h-48q-28 0 -22 27l45 215h-109q-28 0 -22 27l9 44q4 22 28 22h113l23 111h-108q-28 0 -22 27l9 44q4 22 27 22h114l35 170
q4 22 28 22h45q28 0 22 -27l-33 -165h138l35 170q4 22 28 22h45q28 0 22 -27l-33 -165h107q28 0 22 -27l-9 -44q-4 -22 -27 -22h-112zM465 446h-138l-23 -111h137z" />
    <glyph glyph-name="dollar" unicode="$" horiz-adv-x="648" 
d="M603 208q0 -84 -63 -133t-171 -54l3 -114q2 -25 -24 -25h-51q-26 0 -24 25l3 118q-92 14 -148.5 62t-76.5 108q-4 12 2.5 19.5t19.5 7.5h63q18 0 29 -18q51 -88 183 -88q139 0 139 77q0 38 -37 67t-125 57l-35 11q-105 32 -158 76t-56 112q-2 76 54 126t146 62l-3 110
q-2 25 24 25h51q26 0 24 -25l-3 -109q78 -10 133 -52t81 -104q5 -13 -0.5 -21t-19.5 -8h-59q-19 0 -30 17q-52 75 -156 75q-63 0 -95 -22t-32 -58q0 -35 35 -58t125 -49l32 -10q117 -34 168.5 -86t51.5 -121z" />
    <glyph glyph-name="percent" unicode="%" horiz-adv-x="821" 
d="M200 784q64 0 109.5 -45t45.5 -110t-45.5 -110t-109.5 -45q-65 0 -110.5 45.5t-45.5 109.5t45.5 109.5t110.5 45.5zM707 700l-488 -684q-12 -16 -30 -16h-57q-15 0 -19.5 8.5t4.5 21.5l489 684q12 16 30 16h56q15 0 19.5 -8.5t-4.5 -21.5zM200 697q-28 0 -48 -19.5
t-20 -48.5q0 -28 20 -48t48 -20t48 20t20 48t-20 48t-48 20zM621 333q65 0 110.5 -45.5t45.5 -110.5q0 -64 -46 -109.5t-110 -45.5t-109.5 45.5t-45.5 109.5t45.5 110t109.5 46zM621 246q-28 0 -48 -20t-20 -49q0 -27 20 -47.5t48 -20.5t48.5 20.5t20.5 47.5
q0 28 -20.5 48.5t-48.5 20.5z" />
    <glyph glyph-name="ampersand" unicode="&#x26;" horiz-adv-x="777" 
d="M691 0h-90q-19 0 -30 14l-27 29q-88 -65 -217 -65q-117 0 -190 53t-73 142q0 66 41.5 117.5t122.5 100.5q-42 52 -59.5 89.5t-17.5 80.5q0 81 54 134t147 53q90 0 141.5 -51t51.5 -128q0 -60 -34.5 -110t-112.5 -99l136 -146q9 31 9 68q0 15 -1 24q-2 26 24 26h61
q24 0 27 -22q3 -18 3 -37q0 -83 -39 -149l86 -93q11 -12 7 -21.5t-20 -9.5zM351 649q-41 0 -65 -25.5t-24 -59.5q0 -49 69 -130q53 35 78 64.5t25 65.5q0 35 -21.5 60t-61.5 25zM333 82q86 0 139 39l-177 193q-114 -72 -114 -135q0 -44 40.5 -70.5t111.5 -26.5z" />
    <glyph glyph-name="quotesingle" unicode="'" horiz-adv-x="349" 
d="M260 713l-39 -217q-5 -23 -27 -23h-43q-28 0 -23 27l30 217q3 23 26 23h53q28 0 23 -27z" />
    <glyph glyph-name="parenleft" unicode="(" horiz-adv-x="437" 
d="M321 736l16 -12q20 -14 6 -34q-117 -176 -117 -432t117 -433q14 -20 -7 -34l-15 -11q-19 -14 -35 2q-87 86 -137.5 211.5t-50.5 264.5t50.5 264.5t137.5 210.5q15 17 35 3z" />
    <glyph glyph-name="parenright" unicode=")" horiz-adv-x="437" 
d="M115 -220l-15 11q-20 14 -6 34q117 177 117 433t-117 432q-14 20 6 35l15 11q19 14 35 -2q88 -86 138.5 -211.5t50.5 -264.5q0 -140 -50.5 -265t-138.5 -211q-16 -16 -35 -2z" />
    <glyph glyph-name="asterisk" unicode="*" horiz-adv-x="482" 
d="M302 558l85 -37q25 -9 12 -33l-18 -30q-13 -24 -34 -7l-73 55l18 -97q5 -26 -22 -28l-36 -1q-26 0 -24 26l6 111l-93 -61q-22 -14 -34 9l-17 31q-12 23 13 33l94 33l-84 36q-25 11 -11 34l17 29q13 24 34 7l75 -57l-19 101q-5 27 23 27h34q25 0 25 -26l-7 -111l94 61
q22 14 34 -9l16 -31q13 -24 -13 -33z" />
    <glyph glyph-name="plus" unicode="+" horiz-adv-x="767" 
d="M647 294v-50q0 -25 -25 -25h-186v-189q0 -25 -25 -25h-54q-25 0 -25 25v189h-187q-25 0 -25 25v50q0 25 25 25h187v188q0 25 25 25h54q25 0 25 -25v-188h186q25 0 25 -25z" />
    <glyph glyph-name="comma" unicode="," horiz-adv-x="380" 
d="M258 97v-65q0 -76 -18 -125t-58 -90q-16 -15 -35 -5q-22 12 -7 35q31 44 31.5 81t-33.5 62q-18 11 -18 29v78q0 25 25 25h88q25 0 25 -25z" />
    <glyph glyph-name="hyphen" unicode="-" horiz-adv-x="621" 
d="M501 308v-54q0 -25 -25 -25h-331q-25 0 -25 25v54q0 25 25 25h331q25 0 25 -25z" />
    <glyph glyph-name="period" unicode="." horiz-adv-x="377" 
d="M254 96v-70q0 -25 -25 -25h-82q-25 0 -25 25v70q0 25 25 25h82q25 0 25 -25z" />
    <glyph glyph-name="slash" unicode="/" horiz-adv-x="531" 
d="M512 702l-327 -684q-9 -18 -29 -18h-73q-15 0 -20 8t1 21l328 684q9 18 29 18h72q15 0 20 -8t-1 -21z" />
    <glyph glyph-name="zero" unicode="0" horiz-adv-x="618" 
d="M313 743q121 0 190.5 -96t69.5 -271q0 -181 -72 -283.5t-196 -102.5q-121 0 -191 99t-70 276q0 179 72.5 278.5t196.5 99.5zM303 640q-140 0 -140 -260q0 -143 40 -215t113 -72q140 0 140 264q0 142 -40 212.5t-113 70.5z" />
    <glyph glyph-name="one" unicode="1" horiz-adv-x="499" 
d="M409 0h-77q-25 0 -25 25l4 613h-8l-170 -146q-20 -15 -36 2l-36 40q-17 19 2 35l182 153q12 11 31 11h129q25 0 25 -25l4 -683q0 -25 -25 -25z" />
    <glyph glyph-name="two" unicode="2" horiz-adv-x="612" 
d="M250 108h293q25 0 25 -25v-58q0 -25 -25 -25h-435q-25 0 -25 25v51q0 20 12 33l191 197q75 78 112 133t37 104q0 45 -32.5 74.5t-87.5 29.5q-46 0 -81.5 -23t-53.5 -67q-9 -21 -29 -21h-60q-13 0 -19.5 7.5t-2.5 19.5q22 79 87.5 133t165.5 54q106 0 165.5 -60.5
t59.5 -143.5q0 -69 -44 -136.5t-137 -170.5l-116 -126v-5z" />
    <glyph glyph-name="three" unicode="3" horiz-adv-x="613" 
d="M438 390q130 -47 130 -179q0 -94 -65 -158.5t-187 -64.5q-113 0 -183.5 55.5t-85.5 132.5q-2 12 4.5 19t19.5 7h69q20 0 27 -22q14 -43 51.5 -65.5t90.5 -22.5q68 0 107 33t39 93t-43.5 89t-147.5 29h-22q-25 0 -25 25v48q0 25 25 25h22q171 0 171 103q0 49 -34 79.5
t-91 30.5q-100 0 -136 -90q-9 -21 -29 -21h-60q-13 0 -19.5 7.5t-2.5 19.5q21 78 86 132.5t168 54.5q107 0 168 -60t61 -142q0 -112 -108 -158z" />
    <glyph glyph-name="four" unicode="4" horiz-adv-x="670" 
d="M626 221v-52q0 -25 -25 -25h-96l1 -119q0 -25 -25 -25h-70q-25 0 -25 25l1 119h-318q-25 0 -25 25v53q0 34 12 53l316 439q13 19 32 19h72q25 0 25 -25l3 -462h97q25 0 25 -25zM387 246l2 319h-5l-225 -316v-3h228z" />
    <glyph glyph-name="five" unicode="5" horiz-adv-x="612" 
d="M539 708v-57q0 -25 -25 -25h-301l-17 -181h9q60 28 124 28q109 0 173.5 -69t64.5 -175q0 -102 -63 -171.5t-187 -69.5q-111 0 -183.5 55.5t-86.5 132.5q-5 26 23 26h70q21 0 27 -22q28 -88 146 -88q141 0 141 137q0 140 -141 140q-65 0 -114 -33q-15 -10 -31 -9l-63 2
q-25 1 -24 27l33 353q2 24 26 24h374q25 0 25 -25z" />
    <glyph glyph-name="six" unicode="6" horiz-adv-x="630" 
d="M337 459q112 0 180 -67.5t68 -168.5q0 -108 -77.5 -173.5t-189.5 -65.5q-122 0 -199.5 88t-77.5 280q0 185 78.5 291.5t212.5 106.5q92 0 153.5 -50.5t80.5 -129.5q6 -27 -22 -27l-60 -1q-20 0 -29 21q-16 41 -50 61.5t-77 20.5q-75 0 -119 -62t-53 -173h12q81 49 169 49
zM327 89q67 0 107.5 33t40.5 93q0 57 -38 98t-119 41q-87 0 -162 -52q8 -120 53.5 -166.5t117.5 -46.5z" />
    <glyph glyph-name="seven" unicode="7" horiz-adv-x="599" 
d="M69 733h460q25 0 25 -25v-48q0 -18 -13 -41q-146 -255 -278 -599q-9 -20 -29 -20h-87q-14 0 -19.5 8t-0.5 21q134 318 296 588v9h-354q-25 0 -25 25v57q0 25 25 25z" />
    <glyph glyph-name="eight" unicode="8" horiz-adv-x="622" 
d="M311 748q105 0 170 -58.5t65 -147.5q0 -99 -85 -152v-3q53 -23 86.5 -71.5t33.5 -116.5q0 -101 -73.5 -161t-196.5 -60q-121 0 -195.5 60t-74.5 161q0 68 33 115.5t80 72.5v4q-77 50 -77 148q0 91 64.5 150t169.5 59zM311 649q-56 0 -89.5 -31.5t-33.5 -81.5
q0 -49 33 -81t90 -32t90 32t33 81q0 50 -34 81.5t-89 31.5zM311 336q-69 0 -111 -37t-42 -95q0 -56 40.5 -89t112.5 -33q73 0 113 33t40 89q0 58 -42 95t-111 37z" />
    <glyph glyph-name="nine" unicode="9" horiz-adv-x="648" 
d="M331 750q57 0 104.5 -19.5t87 -61t62 -116t22.5 -175.5q0 -186 -78.5 -290t-214.5 -104q-95 0 -159 50.5t-83 128.5q-6 26 22 28l64 1q20 1 28 -20q16 -41 51 -61.5t80 -20.5q79 0 123.5 62t52.5 178h-13q-83 -49 -168 -49q-109 0 -174.5 65t-65.5 167q0 107 74.5 172
t184.5 65zM331 384q82 0 161 52q-10 118 -54.5 164t-113.5 46q-66 0 -103.5 -32.5t-37.5 -93.5q0 -57 35 -96.5t113 -39.5z" />
    <glyph glyph-name="colon" unicode=":" horiz-adv-x="388" 
d="M261 529v-76q0 -25 -25 -25h-88q-25 0 -25 25v76q0 25 25 25h88q25 0 25 -25zM260 112v-77q0 -25 -25 -25h-88q-25 0 -25 25v77q0 25 25 25h88q25 0 25 -25z" />
    <glyph glyph-name="semicolon" unicode=";" horiz-adv-x="483" 
d="M356 529v-76q0 -25 -25 -25h-88q-25 0 -25 25v76q0 25 25 25h88q25 0 25 -25zM258 97v-65q0 -76 -18 -125t-58 -90q-16 -15 -35 -5q-22 12 -7 35q31 44 31.5 81t-33.5 62q-18 11 -18 29v78q0 25 25 25h88q25 0 25 -25z" />
    <glyph glyph-name="less" unicode="&#x3c;" horiz-adv-x="715" 
d="M595 486v-51q0 -22 -19 -29l-336 -139l336 -136q19 -9 19 -29v-51q0 -14 -8 -19.5t-21 -0.5l-427 178q-19 7 -19 29v56q0 22 19 29l427 183q13 5 21 -0.5t8 -19.5z" />
    <glyph glyph-name="equal" unicode="=" horiz-adv-x="770" 
d="M649 393v-49q0 -25 -25 -25h-479q-25 0 -25 25v49q0 25 25 25h479q25 0 25 -25zM649 164v-48q0 -25 -25 -25h-479q-25 0 -25 25v48q0 25 25 25h479q25 0 25 -25z" />
    <glyph glyph-name="greater" unicode="&#x3e;" horiz-adv-x="715" 
d="M149 506l427 -178q19 -7 19 -29v-56q0 -22 -19 -29l-427 -183q-13 -5 -21 0.5t-8 19.5v51q0 22 19 29l336 139l-336 136q-19 9 -19 29v51q0 14 8 19.5t21 0.5z" />
    <glyph glyph-name="question" unicode="?" horiz-adv-x="621" 
d="M325 750q112 0 173.5 -61.5t61.5 -152.5q0 -154 -195 -253v-49q0 -25 -25 -25h-76q-25 0 -25 25v75q0 21 20 30q102 48 143 93t41 97q0 53 -33.5 82.5t-91.5 29.5q-103 0 -135 -84q-8 -21 -28 -21h-66q-28 0 -25 17q16 80 84 138.5t177 58.5zM368 84v-70q0 -25 -25 -25
h-82q-25 0 -25 25v70q0 25 25 25h82q25 0 25 -25z" />
    <glyph glyph-name="at" unicode="@" horiz-adv-x="903" 
d="M464 655q167 0 271 -100.5t104 -254.5q0 -105 -48 -158t-122 -53q-53 0 -83.5 25t-42.5 56h-4q-18 -38 -50.5 -57t-67.5 -19q-59 0 -98 47t-39 120q0 77 44 125.5t106 48.5q56 0 91 -47h3v11q0 25 25 25h29q25 0 25 -25v-134q0 -93 64 -93q74 0 74 118q0 124 -77.5 199
t-204.5 75q-131 0 -216.5 -81t-85.5 -219q0 -135 85.5 -217t236.5 -82q52 0 94 8q27 5 29 -21l2 -29q2 -23 -20 -29q-55 -16 -123 -16q-176 0 -288.5 107t-112.5 280q0 174 113.5 282t286.5 108zM441 358q-35 0 -54.5 -24.5t-19.5 -67.5q0 -45 20 -69.5t54 -24.5
q36 0 58.5 23.5t24.5 65.5v16q-3 39 -25.5 60t-57.5 21z" />
    <glyph glyph-name="A" unicode="A" 
d="M474 213h-258l-68 -193q-7 -20 -28 -20h-79q-31 0 -20 29l259 683q7 20 28 20h75q21 0 28 -20l259 -683q11 -29 -20 -29h-81q-21 0 -28 20zM436 320l-90 260l-92 -260h182z" />
    <glyph glyph-name="B" unicode="B" horiz-adv-x="687" 
d="M545 386q98 -54 98 -165q0 -94 -67 -157.5t-174 -63.5h-313q-25 0 -25 25l5 682q0 25 25 25h278q105 0 168.5 -56t63.5 -144q0 -89 -59 -146zM188 628l1 -203h189q51 0 79 26t28 73q0 48 -33.5 76t-93.5 28h-170zM190 104h204q64 0 97.5 27.5t33.5 77.5q0 52 -38.5 81.5
t-109.5 29.5h-188z" />
    <glyph glyph-name="C" unicode="C" horiz-adv-x="766" 
d="M398 748q108 0 191 -56t120 -155q4 -13 -1.5 -20.5t-19.5 -7.5l-64 -1q-20 0 -30 18q-73 117 -203 117q-100 0 -164 -70.5t-64 -198.5q0 -132 67 -208t177 -76q133 0 191 120q10 19 30 19l64 -1q14 0 20 -7.5t1 -20.5q-33 -90 -114.5 -153t-202.5 -63q-157 0 -254.5 106
t-97.5 274q0 169 101 276.5t253 107.5z" />
    <glyph glyph-name="D" unicode="D" horiz-adv-x="749" 
d="M94 732h251q175 0 267.5 -95.5t92.5 -259.5q0 -168 -93.5 -272.5t-265.5 -104.5h-257q-25 0 -25 25l5 682q0 25 25 25zM191 105h148q118 0 183 68.5t65 190.5q0 129 -65 196.5t-184 67.5h-150z" />
    <glyph glyph-name="E" unicode="E" horiz-adv-x="601" 
d="M188 625l1 -190h300q25 0 25 -25v-57q0 -25 -25 -25h-300l1 -221h341q25 0 25 -25v-57q0 -25 -25 -25h-442q-25 0 -25 25l5 682q0 25 25 25h438q25 0 25 -25v-57q0 -25 -25 -25h-344z" />
    <glyph glyph-name="F" unicode="F" horiz-adv-x="602" 
d="M188 625l1 -177h301q25 0 25 -25v-57q0 -25 -25 -25h-301l2 -316q0 -25 -25 -25h-77q-25 0 -25 25l5 682q0 25 25 25h438q25 0 25 -25v-57q0 -25 -25 -25h-344z" />
    <glyph glyph-name="G" unicode="G" horiz-adv-x="796" 
d="M461 365h265q22 0 22 -25q-5 -153 -101 -254.5t-253 -101.5q-152 0 -248.5 106.5t-96.5 275.5q0 167 101.5 274.5t254.5 107.5q105 0 187.5 -54.5t119.5 -146.5q11 -27 -20 -29l-64 -1q-20 0 -30 17q-74 109 -202 109q-100 0 -164 -70.5t-64 -198.5q0 -132 67 -208
t177 -76q76 0 133 44.5t78 123.5h-162q-25 0 -25 25v57q0 25 25 25z" />
    <glyph glyph-name="H" unicode="H" horiz-adv-x="742" 
d="M653 0h-77q-25 0 -25 25l2 303h-364l2 -303q0 -25 -25 -25h-77q-25 0 -25 25l5 682q0 25 25 25h68q25 0 25 -25l2 -272h364l2 272q0 25 25 25h69q25 0 25 -25l4 -682q0 -25 -25 -25z" />
    <glyph glyph-name="I" unicode="I" horiz-adv-x="376" 
d="M247 707l4 -682q0 -25 -25 -25h-77q-25 0 -25 25l5 682q0 25 25 25h68q25 0 25 -25z" />
    <glyph glyph-name="J" unicode="J" horiz-adv-x="503" 
d="M377 708l2 -363q0 -97 -19 -163t-59.5 -105t-96 -56.5t-135.5 -19.5q-25 0 -25 25v55q0 24 25 26q103 4 144.5 54.5t42.5 174.5l2 372q0 25 25 25h69q25 0 25 -25z" />
    <glyph glyph-name="K" unicode="K" horiz-adv-x="721" 
d="M289 345l-107 -104l1 -216q0 -25 -25 -25h-76q-25 0 -25 25l4 682q0 25 25 25h68q25 0 25 -25l2 -327l346 339q13 13 31 13h83q17 0 21 -9.5t-9 -21.5l-287 -280l299 -390q9 -13 5 -22t-20 -9h-95q-18 0 -30 16z" />
    <glyph glyph-name="L" unicode="L" horiz-adv-x="592" 
d="M190 107h353q25 0 25 -25v-57q0 -25 -25 -25h-454q-25 0 -25 25l5 682q0 25 25 25h68q25 0 25 -25z" />
    <glyph glyph-name="M" unicode="M" horiz-adv-x="884" 
d="M795 0h-71q-25 0 -25 25l-10 574l-177 -578q-6 -21 -28 -21h-80q-22 0 -28 21l-181 595l-9 -591q0 -25 -25 -25h-72q-26 0 -24 25l24 682q2 25 26 25h133q22 0 29 -21l167 -531l168 531q8 21 29 21h129q24 0 26 -25l23 -682q2 -25 -24 -25z" />
    <glyph glyph-name="N" unicode="N" horiz-adv-x="749" 
d="M680 707l4 -682q0 -25 -25 -25h-126q-20 0 -30 18l-317 587l3 -580q0 -25 -25 -25h-75q-25 0 -25 25l5 682q0 25 25 25h133q20 0 30 -18l304 -559l3 552q0 25 25 25h66q25 0 25 -25z" />
    <glyph glyph-name="O" unicode="O" horiz-adv-x="798" 
d="M405 748q151 0 249.5 -103t98.5 -267q0 -170 -103 -282t-256 -112q-151 0 -250.5 107t-99.5 275q0 167 103 274.5t258 107.5zM396 643q-103 0 -168 -70.5t-65 -198.5q0 -131 67 -207.5t172 -76.5q102 0 167.5 74t65.5 203q0 130 -67 203t-172 73z" />
    <glyph glyph-name="P" unicode="P" horiz-adv-x="680" 
d="M94 732h285q115 0 186 -63.5t71 -164.5q0 -103 -72 -172t-185 -69h-189l1 -238q0 -25 -25 -25h-77q-25 0 -25 25l5 682q0 25 25 25zM189 367h181q72 0 110 33t38 92q0 62 -41 99t-107 37h-182z" />
    <glyph glyph-name="Q" unicode="Q" horiz-adv-x="798" 
d="M753 378q0 -92 -32.5 -170.5t-91.5 -132.5l44 -52q16 -19 -3 -35l-41 -35q-19 -16 -35 3l-51 61q-71 -33 -149 -33q-151 0 -250.5 107t-99.5 275q0 167 103 274.5t258 107.5q151 0 249.5 -103t98.5 -267zM402 90q33 0 70 10l-38 46q-16 19 3 35l41 35q19 16 35 -3l48 -58
q74 77 74 212q0 130 -67 203t-172 73q-103 0 -168 -70.5t-65 -198.5q0 -131 67 -207.5t172 -76.5z" />
    <glyph glyph-name="R" unicode="R" horiz-adv-x="675" 
d="M308 304h-119l2 -279q0 -25 -25 -25h-77q-25 0 -25 25l5 682q0 25 25 25h284q112 0 179.5 -59t67.5 -151q0 -78 -49.5 -135.5t-135.5 -75.5l199 -281q9 -13 4.5 -21.5t-19.5 -8.5h-94q-18 0 -30 16zM189 408h175q143 0 143 105q0 53 -38 84t-105 31h-176z" />
    <glyph glyph-name="S" unicode="S" horiz-adv-x="676" 
d="M341 748q101 0 171 -49.5t100 -130.5q4 -13 -1.5 -20.5t-19.5 -7.5h-64q-19 0 -30 17q-56 85 -166 85q-66 0 -99.5 -24t-33.5 -64q0 -39 37 -65t132 -55l32 -10q124 -38 178 -96t54 -135q0 -99 -74.5 -154t-199.5 -55q-129 0 -206.5 59t-100.5 139q-4 12 2.5 19.5
t19.5 7.5h68q20 0 30 -18q53 -100 193 -100q146 0 146 86q0 42 -39 74t-132 63l-36 13q-111 36 -166.5 84.5t-59.5 124.5q-3 96 74 154t191 58z" />
    <glyph glyph-name="T" unicode="T" horiz-adv-x="609" 
d="M593 707v-57q0 -25 -25 -25h-204l4 -600q0 -25 -25 -25h-76q-25 0 -25 25l4 600h-204q-25 0 -25 25v57q0 25 25 25h526q25 0 25 -25z" />
    <glyph glyph-name="U" unicode="U" horiz-adv-x="744" 
d="M678 707l2 -391q1 -159 -84.5 -245.5t-224.5 -86.5q-138 0 -223 86.5t-84 245.5l3 391q0 25 25 25h68q25 0 25 -25l2 -378q1 -121 49.5 -180t138.5 -59q181 0 182 239l3 378q0 25 25 25h68q25 0 25 -25z" />
    <glyph glyph-name="V" unicode="V" horiz-adv-x="674" 
d="M563 732h71q14 0 19 -8t1 -21l-242 -683q-7 -20 -28 -20h-95q-21 0 -28 20l-241 683q-4 13 1 21t19 8h70q21 0 28 -20l195 -539h4l198 539q7 20 28 20z" />
    <glyph glyph-name="W" unicode="W" horiz-adv-x="985" 
d="M883 732h63q29 0 22 -28l-183 -683q-6 -21 -28 -21h-94q-22 0 -28 21l-142 532l-143 -532q-6 -21 -28 -21h-94q-22 0 -28 21l-183 683q-7 28 22 28h70q22 0 28 -21l135 -514h4l145 514q6 21 28 21h95q22 0 28 -21l133 -514h5l145 514q6 21 28 21z" />
    <glyph glyph-name="X" unicode="X" horiz-adv-x="738" 
d="M658 0h-90q-18 0 -30 16l-172 268l-172 -268q-12 -16 -31 -16h-82q-16 0 -20.5 8.5t4.5 21.5l238 351l-207 321q-9 13 -4 21.5t20 8.5h74q18 0 30 -16l167 -251l166 251q12 16 30 16h69q15 0 19.5 -8.5t-3.5 -21.5l-219 -330l229 -342q8 -13 3.5 -21.5t-19.5 -8.5z" />
    <glyph glyph-name="Y" unicode="Y" horiz-adv-x="613" 
d="M368 295l3 -270q0 -25 -25 -25h-76q-25 0 -25 25l2 271l-221 406q-7 14 -2 22t20 8h76q21 0 29 -18l157 -295h8l155 295q9 18 29 18h71q15 0 20 -8t-2 -22z" />
    <glyph glyph-name="Z" unicode="Z" horiz-adv-x="672" 
d="M204 108h375q25 0 25 -25v-58q0 -25 -25 -25h-504q-25 0 -25 25v51q0 16 13 33l376 507v9h-342q-25 0 -25 25v57q0 25 25 25h472q25 0 25 -25v-48q0 -19 -12 -33l-378 -511v-7z" />
    <glyph glyph-name="bracketleft" unicode="[" horiz-adv-x="438" 
d="M201 637l5 -764h137q25 0 25 -25v-43q0 -25 -25 -25h-222q-25 0 -25 25l4 900q0 25 25 25h218q25 0 25 -25v-43q0 -25 -25 -25h-142z" />
    <glyph glyph-name="backslash" unicode="\" horiz-adv-x="531" 
d="M38 731h72q20 0 29 -18l328 -684q6 -13 1 -21t-20 -8h-73q-20 0 -29 18l-327 684q-6 13 -1 21t20 8z" />
    <glyph glyph-name="bracketright" unicode="]" horiz-adv-x="438" 
d="M95 730h223q25 0 25 -25l-5 -900q0 -25 -25 -25h-218q-25 0 -25 25v43q0 25 25 25h142l-4 764h-138q-25 0 -25 25v43q0 25 25 25z" />
    <glyph glyph-name="asciicircum" unicode="^" horiz-adv-x="738" 
d="M635 219h-51q-20 0 -29 18l-184 362l-188 -362q-9 -18 -29 -18h-50q-15 0 -20 8.5t2 21.5l228 427q8 18 29 18h58q20 0 29 -18l223 -427q7 -13 1.5 -21.5t-19.5 -8.5z" />
    <glyph glyph-name="underscore" unicode="_" horiz-adv-x="646" 
d="M609 -86v-33q0 -25 -25 -25h-521q-25 0 -25 25v33q0 25 25 25h521q25 0 25 -25z" />
    <glyph glyph-name="grave" unicode="`" horiz-adv-x="436" 
d="M161 763h46q20 0 30 -18l61 -112q7 -13 2 -21.5t-20 -8.5h-11q-19 0 -31 15l-92 114q-10 13 -5.5 22t20.5 9z" />
    <glyph glyph-name="a" unicode="a" horiz-adv-x="576" 
d="M295 553q206 0 209 -216l4 -312q0 -25 -25 -25h-69q-25 0 -25 25v56h-8q-28 -42 -74.5 -67t-105.5 -25q-73 0 -118 40.5t-45 111.5q0 90 78 135.5t241 57.5l32 2v14q0 103 -105 103q-69 0 -101 -45q-11 -18 -29 -18h-64q-29 0 -26 14q17 59 74.5 104t156.5 45zM389 249
l-30 -2q-207 -15 -207 -99q0 -27 19.5 -42t56.5 -15q70 0 116.5 43.5t44.5 90.5v24z" />
    <glyph glyph-name="b" unicode="b" horiz-adv-x="617" 
d="M186 502h6q47 51 132 51q114 0 184.5 -80.5t70.5 -210.5q0 -121 -61.5 -199.5t-159.5 -78.5q-108 0 -163 87h-7v-46q0 -25 -25 -25h-70q-25 0 -25 25l4 702q0 25 25 25h62q25 0 25 -25zM325 450q-64 0 -103.5 -51t-40.5 -141v-5q4 -79 43 -122t103 -43q65 0 99.5 46.5
t34.5 129.5q0 89 -37 137.5t-99 48.5z" />
    <glyph glyph-name="c" unicode="c" horiz-adv-x="544" 
d="M291 554q88 0 149 -47t80 -114q6 -27 -23 -27h-62q-19 0 -29 18q-38 66 -114 66q-137 0 -137 -185q0 -176 143 -176q72 0 104 56q10 18 29 18h62q14 0 20 -8t1 -20q-24 -63 -83 -107t-144 -44q-114 0 -181.5 76t-67.5 202q0 134 70 213t183 79z" />
    <glyph glyph-name="d" unicode="d" horiz-adv-x="616" 
d="M544 727l4 -702q0 -25 -25 -25h-74q-25 0 -25 25v46h-7q-49 -87 -159 -87q-97 0 -158.5 78.5t-61.5 199.5q0 130 70.5 210.5t184.5 80.5q85 0 130 -51h5l1 225q0 25 25 25h65q25 0 25 -25zM290 450q-65 0 -100 -47t-35 -131q0 -88 37.5 -135.5t98.5 -47.5q63 0 102.5 50
t40.5 138v5q-3 81 -42 124.5t-102 43.5z" />
    <glyph glyph-name="e" unicode="e" horiz-adv-x="574" 
d="M302 554q118 0 178.5 -81t55.5 -207q-2 -24 -26 -24h-355q4 -78 44 -116t104 -38q67 0 103 54q10 17 30 17h61q14 0 19.5 -8t0.5 -21q-31 -70 -90 -108t-134 -38q-112 0 -183.5 77.5t-71.5 203.5q0 128 73 208.5t191 80.5zM292 450q-103 0 -131 -116h255
q-1 49 -33.5 82.5t-90.5 33.5z" />
    <glyph glyph-name="f" unicode="f" horiz-adv-x="399" 
d="M376 728v-55q0 -25 -25 -25q-37 -1 -56.5 -4t-38 -13t-25 -31.5t-6.5 -57.5v-5h121q25 0 25 -25v-48q0 -25 -25 -25h-120l3 -414q0 -25 -25 -25h-73q-25 0 -25 25l3 414h-59q-25 0 -25 25v48q0 25 25 25h60q4 225 242 216q24 0 24 -25z" />
    <glyph glyph-name="g" unicode="g" horiz-adv-x="618" 
d="M258 553q50 0 92.5 -23t68.5 -67h8l1 49q2 25 26 25h65q25 0 25 -25l6 -431q3 -157 -67.5 -237t-187.5 -80q-152 0 -217 126q-6 14 -1 22t20 8h65q18 0 31 -15q33 -37 100 -37q135 0 131 173v13h-6q-47 -54 -127 -54q-113 0 -183 76t-70 201q0 118 61.5 197t158.5 79z
M291 450q-60 0 -98 -49t-38 -134q0 -79 34.5 -121t100.5 -42q63 0 102 38.5t42 109.5v5q-1 89 -40.5 141t-102.5 52z" />
    <glyph glyph-name="h" unicode="h" horiz-adv-x="593" 
d="M189 464h9q54 83 152 83q79 0 125.5 -53t47.5 -148l2 -321q0 -25 -25 -25h-74q-25 0 -25 25l3 291q1 118 -94 118q-58 0 -92 -45t-29 -133l2 -231q0 -25 -25 -25h-73q-25 0 -25 25l4 702q0 25 25 25h65q25 0 25 -25z" />
    <glyph glyph-name="i" unicode="i" horiz-adv-x="279" 
d="M198 727v-65q0 -25 -25 -25h-65q-25 0 -25 25v65q0 25 25 25h65q25 0 25 -25zM197 512l4 -487q0 -25 -25 -25h-73q-25 0 -25 25l4 487q0 25 25 25h65q25 0 25 -25z" />
    <glyph glyph-name="j" unicode="j" horiz-adv-x="303" 
d="M212 727v-65q0 -25 -25 -25h-65q-25 0 -25 25v65q0 25 25 25h65q25 0 25 -25zM212 512l4 -512q0 -65 -17.5 -109.5t-50.5 -67t-68.5 -32t-81.5 -11.5q-25 0 -25 25v54q0 24 25 26q53 2 73.5 20t21.5 85l4 522q0 25 25 25h65q25 0 25 -25z" />
    <glyph glyph-name="k" unicode="k" horiz-adv-x="585" 
d="M240 243l-50 -47l1 -171q0 -25 -25 -25h-73q-25 0 -25 25l4 702q0 25 25 25h65q25 0 25 -25l2 -405l209 202q13 13 31 13h73q17 0 21 -9.5t-8 -21.5l-203 -194l213 -281q10 -13 5.5 -22t-20.5 -9h-79q-18 0 -30 16z" />
    <glyph glyph-name="l" unicode="l" horiz-adv-x="297" 
d="M206 727l4 -702q0 -25 -25 -25h-73q-25 0 -25 25l4 702q0 25 25 25h65q25 0 25 -25z" />
    <glyph glyph-name="m" unicode="m" horiz-adv-x="894" 
d="M656 553q79 0 124 -54t46 -153l3 -321q0 -25 -25 -25h-74q-25 0 -25 25l2 291q1 125 -85 125q-54 0 -86.5 -47t-27.5 -138l2 -231q0 -25 -25 -25h-74q-25 0 -25 25l2 291q1 125 -85 125q-52 0 -85.5 -45t-28.5 -140l2 -231q0 -25 -25 -25h-74q-25 0 -25 25l5 487
q0 25 25 25h65q25 0 25 -25l1 -48h5q64 89 151 89q102 0 141 -98h7q69 98 164 98z" />
    <glyph glyph-name="n" unicode="n" horiz-adv-x="588" 
d="M350 553q79 0 125 -55t46 -152v-321q0 -25 -25 -25h-65q-25 0 -25 25v291q0 61 -25.5 93t-70.5 32q-58 0 -92 -47.5t-29 -137.5l2 -231q0 -25 -25 -25h-73q-25 0 -25 25l4 487q0 25 25 25h65q25 0 25 -25l1 -48h8q57 89 154 89z" />
    <glyph glyph-name="o" unicode="o" horiz-adv-x="599" 
d="M304 553q111 0 184 -77.5t73 -200.5q0 -126 -76 -208.5t-190 -82.5q-111 0 -184 79.5t-73 202.5q0 126 75.5 206.5t190.5 80.5zM291 450q-60 0 -98 -46.5t-38 -126.5q0 -84 43.5 -136t108.5 -52q60 0 98 47t38 126q0 86 -43.5 137t-108.5 51z" />
    <glyph glyph-name="p" unicode="p" horiz-adv-x="617" 
d="M358 553q98 0 159.5 -78.5t61.5 -200.5q0 -129 -70.5 -209.5t-184.5 -80.5q-79 0 -129 49h-5l1 -228q0 -25 -25 -25h-73q-25 0 -25 25l4 707q0 25 25 25h65q25 0 25 -25l1 -48h7q55 89 163 89zM325 450q-63 0 -103 -51.5t-41 -140.5v-5q4 -79 43 -122t102 -43
q66 0 100.5 46.5t34.5 130.5q0 87 -37.5 136t-98.5 49z" />
    <glyph glyph-name="q" unicode="q" horiz-adv-x="616" 
d="M258 553q109 0 162 -89h8l1 48q0 25 25 25h65q25 0 25 -25l4 -707q0 -25 -25 -25h-74q-25 0 -25 25l3 228h-7q-52 -49 -131 -49q-113 0 -182 80t-69 209q0 123 61.5 201.5t158.5 78.5zM291 450q-61 0 -98.5 -48t-37.5 -137q0 -84 35 -130.5t100 -46.5q63 0 102 43t42 122
v5q-1 90 -40 141t-103 51z" />
    <glyph glyph-name="r" unicode="r" horiz-adv-x="384" 
d="M361 527v-74q0 -24 -25 -26q-75 -3 -113 -38.5t-34 -129.5l2 -234q0 -25 -25 -25h-73q-25 0 -25 25l4 487q0 25 25 25h65q25 0 25 -25l1 -46h8q55 74 139 85q26 3 26 -24z" />
    <glyph glyph-name="s" unicode="s" horiz-adv-x="540" 
d="M270 553q86 0 143 -42t74 -98q4 -12 -2 -19.5t-20 -7.5h-64q-18 0 -30 16q-37 48 -107 48q-40 0 -63.5 -17t-23.5 -42q0 -21 23.5 -34t83.5 -31l42 -12q94 -26 134.5 -64.5t40.5 -93.5q0 -78 -60 -125t-158 -47q-94 0 -153 42t-83 108q-4 13 1.5 20.5t19.5 7.5h72
q18 0 30 -18q36 -56 119 -56q92 0 92 57q0 24 -24.5 41t-84.5 34l-40 11q-83 23 -127 58t-44 95q0 73 60 121t149 48z" />
    <glyph glyph-name="t" unicode="t" horiz-adv-x="367" 
d="M344 512v-48q0 -25 -25 -25h-81l2 -414q0 -25 -25 -25h-73q-25 0 -25 25l2 414h-67q-25 0 -25 25v48q0 25 25 25h68l1 179q0 25 25 25h65q25 0 25 -25l1 -179h82q25 0 25 -25z" />
    <glyph glyph-name="u" unicode="u" horiz-adv-x="591" 
d="M518 512l5 -487q0 -25 -25 -25h-74q-26 0 -24 25l1 48h-8q-54 -89 -152 -89q-80 0 -127 56.5t-46 162.5l2 309q0 25 25 25h65q25 0 25 -25l2 -280q1 -136 94 -136q57 0 90.5 47t29.5 138l3 231q0 25 25 25h64q25 0 25 -25z" />
    <glyph glyph-name="v" unicode="v" horiz-adv-x="549" 
d="M521 509l-163 -489q-8 -20 -29 -20h-109q-21 0 -29 20l-163 489q-8 28 21 28h62q21 0 29 -20l129 -390h12l128 390q8 20 29 20h62q29 0 21 -28z" />
    <glyph glyph-name="w" unicode="w" horiz-adv-x="787" 
d="M678 537h60q29 0 22 -28l-129 -488q-6 -21 -28 -21h-104q-22 0 -28 21l-75 293h-7l-74 -292q-4 -22 -27 -22h-106q-22 0 -28 21l-128 488q-7 28 22 28h63q23 0 27 -22l94 -389h13l96 389q4 22 27 22h55q23 0 27 -22l94 -389h12l95 389q4 22 27 22z" />
    <glyph glyph-name="x" unicode="x" horiz-adv-x="573" 
d="M361 263l158 -233q9 -13 4.5 -21.5t-20.5 -8.5h-78q-18 0 -30 16l-114 173l-115 -173q-12 -16 -30 -16h-76q-16 0 -20.5 8.5t4.5 21.5l177 250l-151 227q-8 13 -3.5 21.5t19.5 8.5h70q18 0 30 -16l115 -169l117 169q12 16 30 16h66q16 0 20.5 -8.5t-4.5 -21.5z" />
    <glyph glyph-name="y" unicode="y" horiz-adv-x="555" 
d="M444 537h62q14 0 19 -8t1 -21l-243 -708q-7 -20 -28 -20h-74q-31 0 -21 29l59 161l-190 538q-4 13 1 21t19 8h62q21 0 29 -20l129 -385h8l139 385q7 20 28 20z" />
    <glyph glyph-name="z" unicode="z" horiz-adv-x="488" 
d="M444 512v-57q-6 -15 -13 -24l-254 -327v-6h248q25 0 25 -25v-48q0 -25 -25 -25h-362q-25 0 -25 25v57q5 14 12 22l263 328v7h-241q-25 0 -25 25v48q0 25 25 25h347q25 0 25 -25z" />
    <glyph glyph-name="braceleft" unicode="{" horiz-adv-x="466" 
d="M396 725v-48q0 -25 -22 -25q-52 0 -76 -25t-24 -87v-144q0 -104 -60 -135v-8q60 -27 60 -143v-137q0 -61 23.5 -86t76.5 -25q22 0 22 -25v-49q0 -25 -25 -25h-12q-101 0 -147.5 47.5t-46.5 157.5v121q0 57 -9 83.5t-36 32.5q-24 6 -24 26v52q0 20 24 26q27 6 36 32.5
t9 83.5v125q0 109 46.5 154.5t147.5 45.5h12q25 0 25 -25z" />
    <glyph glyph-name="bar" unicode="|" horiz-adv-x="401" 
d="M251 750l5 -970q0 -25 -25 -25h-60q-25 0 -25 25l4 970q0 25 25 25h51q25 0 25 -25z" />
    <glyph glyph-name="braceright" unicode="}" horiz-adv-x="466" 
d="M70 -212v49q0 25 22 25q53 0 76.5 25t23.5 86v145q0 103 60 134v8q-60 27 -60 144v136q0 62 -24 87t-76 25q-22 0 -22 25v48q0 25 25 25h12q101 0 147.5 -47.5t46.5 -157.5v-121q0 -57 9 -83t36 -32q24 -6 24 -26v-53q0 -20 -24 -26q-27 -6 -36 -32.5t-9 -83.5v-124
q0 -109 -46.5 -155t-147.5 -46h-12q-25 0 -25 25z" />
    <glyph glyph-name="asciitilde" unicode="~" horiz-adv-x="667" 
d="M252 386q34 0 62.5 -14.5t44.5 -32t33.5 -32t30.5 -14.5q28 0 34 46q3 25 25 25h42q27 0 25 -26q-6 -57 -36 -95.5t-90 -38.5q-30 0 -56 14.5t-41 31.5t-34 31.5t-38 14.5q-34 0 -39 -46q-4 -24 -26 -24h-42q-13 0 -19.5 6t-5.5 17q9 137 130 137z" />
    <glyph glyph-name="exclamdown" unicode="&#xa1;" horiz-adv-x="382" 
d="M122 446v77q0 25 25 25h88q25 0 25 -25v-77q0 -25 -25 -25h-88q-25 0 -25 25zM129 -165l-5 457q0 25 25 25h74q25 0 25 -25l-5 -457q0 -25 -25 -25h-64q-25 0 -25 25z" />
    <glyph glyph-name="cent" unicode="&#xa2;" horiz-adv-x="544" 
d="M298 179q72 0 104 57q10 18 29 18h62q14 0 20 -8t1 -20q-21 -54 -67.5 -95.5t-113.5 -52.5l3 -115q2 -25 -24 -25h-45q-26 0 -24 25l3 114q-96 13 -152 87.5t-56 187.5q0 120 56.5 196.5t151.5 91.5l-3 116q-2 25 24 25h45q26 0 24 -25l-3 -115q72 -11 121 -55.5
t66 -102.5q6 -27 -23 -27h-62q-19 0 -29 18q-38 67 -114 67q-137 0 -137 -185q0 -177 143 -177z" />
    <glyph glyph-name="sterling" unicode="&#xa3;" horiz-adv-x="684" 
d="M226 108h368q25 0 25 -25v-58q0 -25 -25 -25h-505q-25 0 -25 25v53q0 18 16 30q51 36 64 73t13 111h-25q-25 0 -25 25v54q0 25 25 25h25v121q0 101 64.5 167t170.5 66q98 0 153.5 -54t69.5 -133q5 -27 -23 -27h-61q-21 0 -27 22q-27 89 -116 89q-55 0 -87 -35.5
t-32 -105.5v-110h194q25 0 25 -25v-54q0 -25 -25 -25h-194v-6q0 -117 -43 -170v-8z" />
    <glyph glyph-name="currency" unicode="&#xa4;" horiz-adv-x="720" 
d="M243 412l-30 -31q-18 -18 -36 0l-39 39q-18 18 0 36l30 30q18 18 36 0l39 -39q17 -17 0 -35zM533 156l50 -49q18 -18 0 -36l-30 -30q-18 -18 -36 0l-49 49q-17 17 0 35l3 3q-50 -40 -111 -40q-48 0 -86 23l-39 -40q-18 -18 -36 0l-31 31q-17 18 1 36l39 39q-24 40 -24 87
q0 73 51.5 124.5t124.5 51.5q46 0 88 -24l39 39q18 18 36 0l29 -29q18 -18 1 -36l-39 -40q22 -39 22 -86q0 -58 -35 -104q14 14 32 -4zM360 171q38 0 65.5 27.5t27.5 65.5q0 39 -27.5 66.5t-65.5 27.5q-39 0 -66.5 -27.5t-27.5 -66.5q0 -38 27.5 -65.5t66.5 -27.5z" />
    <glyph glyph-name="yen" unicode="&#xa5;" horiz-adv-x="613" 
d="M407 367h75q25 0 25 -25v-31q0 -25 -25 -25h-114l1 -63h113q25 0 25 -25v-31q0 -25 -25 -25h-112l1 -117q0 -25 -25 -25h-76q-25 0 -25 25l1 117h-95q-25 0 -25 25v31q0 25 25 25h96v63h-96q-25 0 -25 25v31q0 25 25 25h57l-182 335q-7 14 -2 22t20 8h76q21 0 29 -18
l157 -295h8l155 295q9 18 29 18h71q15 0 20 -8t-2 -22z" />
    <glyph glyph-name="section" unicode="&#xa7;" horiz-adv-x="582" 
d="M452 242q66 -42 66 -114q0 -77 -59 -124t-155 -47q-92 0 -149.5 42t-81.5 108q-5 13 1 20.5t20 7.5h67q19 0 30 -17q38 -57 119 -57q88 0 88 54q0 26 -24.5 42t-94.5 38l-18 6q-89 30 -132 63.5t-43 92.5q0 75 73 124q-73 41 -73 113t59.5 120.5t147.5 48.5q82 0 137 -42
t73 -98q4 -12 -2.5 -19.5t-19.5 -7.5h-64q-18 0 -30 16q-37 47 -101 47q-38 0 -61 -16.5t-23 -40.5q0 -23 22.5 -35.5t89.5 -32.5l19 -6q104 -31 144.5 -67.5t40.5 -94.5q0 -78 -66 -124zM202 364q0 -22 23 -35t89 -33l14 -4q70 16 70 61q0 24 -23.5 40t-89.5 38
q-83 -16 -83 -67z" />
    <glyph glyph-name="dieresis" unicode="&#xa8;" horiz-adv-x="496" 
d="M214 727v-65q0 -25 -25 -25h-42q-25 0 -25 25v65q0 25 25 25h42q25 0 25 -25zM374 727v-65q0 -25 -25 -25h-42q-25 0 -25 25v65q0 25 25 25h42q25 0 25 -25z" />
    <glyph glyph-name="copyright" unicode="&#xa9;" horiz-adv-x="860" 
d="M430 731q155 0 260.5 -101.5t105.5 -263.5t-105.5 -263.5t-260.5 -101.5q-154 0 -260 101.5t-106 263.5t106 263.5t260 101.5zM430 654q-122 0 -205 -80.5t-83 -207.5t83 -207.5t205 -80.5t205 80.5t83 207.5t-83 207.5t-205 80.5zM436 571q62 0 107 -33t60 -80
q4 -12 -2.5 -19.5t-19.5 -7.5h-35q-18 0 -29 18q-26 45 -81 45q-100 0 -100 -133q0 -125 106 -125q50 0 75 37q11 18 29 18h32q14 0 20 -8t0 -20q-20 -44 -62.5 -74.5t-102.5 -30.5q-84 0 -134.5 55t-50.5 146q0 97 52 154.5t136 57.5z" />
    <glyph glyph-name="guillemetleft" unicode="&#xab;" horiz-adv-x="681" 
d="M124 249v60q0 18 16 30l154 100q13 8 21.5 3.5t8.5 -19.5v-44q0 -18 -16 -30l-109 -70l109 -70q16 -12 16 -30v-43q0 -15 -8.5 -19.5t-21.5 3.5l-154 99q-16 12 -16 30zM557 423v-44q0 -18 -16 -30l-109 -70l109 -70q16 -12 16 -30v-43q0 -15 -8.5 -19.5t-21.5 3.5
l-154 99q-16 12 -16 30v60q0 18 16 30l154 100q13 8 21.5 3.5t8.5 -19.5z" />
    <glyph glyph-name="registered" unicode="&#xae;" horiz-adv-x="572" 
d="M286 768q79 0 135 -56t56 -135q0 -78 -56 -134.5t-135 -56.5q-78 0 -134 56.5t-56 134.5q0 79 55.5 135t134.5 56zM286 444q56 0 95.5 39.5t39.5 94.5t-39.5 94.5t-95.5 39.5t-95 -39t-39 -95t39 -95t95 -39zM358 605q0 -33 -32 -45l18 -29q9 -13 4 -21.5t-20 -8.5
q-17 0 -27 17l-23 37h-10v-29q0 -25 -25 -25q-22 0 -22 25v102q0 25 25 25h52q29 0 44.5 -13.5t15.5 -34.5zM268 594h29q15 0 15 9q0 10 -15 10h-29v-19z" />
    <glyph glyph-name="macron" unicode="&#xaf;" horiz-adv-x="499" 
d="M377 671v-21q0 -25 -25 -25h-205q-25 0 -25 25v21q0 25 25 25h205q25 0 25 -25z" />
    <glyph glyph-name="degree" unicode="&#xb0;" horiz-adv-x="471" 
d="M235 768q65 0 110.5 -45.5t45.5 -109.5t-45.5 -109.5t-110.5 -45.5t-110 45t-45 110t45 110t110 45zM235 681q-29 0 -48.5 -19.5t-19.5 -48.5q0 -28 20 -48t48 -20t48 20t20 48t-20 48t-48 20z" />
    <glyph glyph-name="twosuperior" unicode="&#xb2;" horiz-adv-x="334" 
d="M183 737q50 0 76.5 -25.5t26.5 -59.5q0 -49 -56 -93l-34 -27v-5h69q25 0 25 -25v-10q0 -25 -25 -25h-163q-25 0 -25 25v14q0 13 7 19l92 76q35 26 35 43q0 26 -32 26q-21 0 -33 -12q-17 -17 -30 -17h-24q-13 0 -20 4.5t-5 11.5q8 31 38 55.5t78 24.5z" />
    <glyph glyph-name="threesuperior" unicode="&#xb3;" horiz-adv-x="321" 
d="M221 603q55 -17 55 -62q0 -34 -30 -56.5t-83 -22.5q-47 0 -76 18.5t-39 45.5q-4 12 3 19t20 7h27q13 0 29 -18q11 -11 36 -11q39 0 39 22q0 27 -69 27q-18 0 -18 25v3q0 25 18 25q61 0 61 26q0 10 -10.5 17t-26.5 7t-26 -7q-20 -16 -30 -16h-24q-14 0 -20.5 7.5
t-0.5 19.5q28 58 109 58q51 0 76 -22t25 -52q0 -42 -45 -60z" />
    <glyph glyph-name="acute" unicode="&#xb4;" horiz-adv-x="436" 
d="M290 732l-92 -114q-12 -15 -31 -15h-11q-15 0 -20 8.5t2 21.5l61 112q10 18 30 18h46q16 0 20.5 -9t-5.5 -22z" />
    <glyph glyph-name="paragraph" unicode="&#xb6;" horiz-adv-x="759" 
d="M243 616h168q25 0 25 -25v-666q0 -25 -25 -25h-59q-25 0 -25 25v306h-84q-93 0 -149 54t-56 140q0 85 56 138t149 53zM582 616h65q25 0 25 -25v-666q0 -25 -25 -25h-65q-25 0 -25 25v666q0 25 25 25z" />
    <glyph glyph-name="periodcentered" unicode="&#xb7;" horiz-adv-x="377" 
d="M254 319v-70q0 -25 -25 -25h-82q-25 0 -25 25v70q0 25 25 25h82q25 0 25 -25z" />
    <glyph glyph-name="cedilla" unicode="&#xb8;" horiz-adv-x="431" 
d="M251 -14l-13 -35q71 -14 71 -84q0 -41 -27.5 -67.5t-78.5 -26.5q-34 0 -61 12q-21 9 -13 33l2 7q7 23 32 15q24 -8 40 -8q17 0 28 9t11 23q0 38 -59 38q-26 0 -18 28l20 64q6 21 28 21h18q14 0 19 -8t1 -21z" />
    <glyph glyph-name="onesuperior" unicode="&#xb9;" horiz-adv-x="292" 
d="M225 707l3 -215q0 -25 -25 -25h-32q-25 0 -25 25l1 178h-4l-35 -32q-19 -17 -35 1l-12 13q-17 19 2 36l37 32q12 12 31 12h69q25 0 25 -25z" />
    <glyph glyph-name="guillemetright" unicode="&#xbb;" horiz-adv-x="681" 
d="M124 380v43q0 15 8.5 19.5t21.5 -3.5l154 -99q16 -12 16 -30v-60q0 -18 -16 -30l-154 -100q-13 -8 -21.5 -3.5t-8.5 19.5v44q0 18 16 30l109 70l-109 70q-16 12 -16 30zM387 439l154 -99q16 -12 16 -30v-60q0 -18 -16 -30l-154 -100q-13 -8 -21.5 -3.5t-8.5 19.5v44
q0 18 16 30l109 70l-109 70q-16 12 -16 30v43q0 15 8.5 20t21.5 -4z" />
    <glyph glyph-name="questiondown" unicode="&#xbf;" horiz-adv-x="621" 
d="M249 453v70q0 25 25 25h82q25 0 25 -25v-70q0 -25 -25 -25h-82q-25 0 -25 25zM293 -213q-112 0 -173.5 61.5t-61.5 152.5q0 154 194 253v49q0 25 25 25h76q25 0 25 -25v-75q0 -21 -20 -30q-102 -48 -142.5 -93t-40.5 -97q0 -53 33 -82.5t91 -29.5q102 0 136 84
q7 21 28 21h65q28 0 25 -17q-16 -80 -83.5 -138.5t-176.5 -58.5z" />
    <glyph glyph-name="Agrave" unicode="&#xc0;" 
d="M372 798h-11q-19 0 -31 15l-92 114q-10 13 -5.5 22t20.5 9h46q20 0 30 -18l61 -112q7 -14 2 -22t-20 -8zM474 213h-258l-68 -193q-7 -20 -28 -20h-79q-31 0 -20 29l259 683q7 20 28 20h75q21 0 28 -20l259 -683q11 -29 -20 -29h-81q-21 0 -28 20zM436 320l-90 260
l-92 -260h182z" />
    <glyph glyph-name="Aacute" unicode="&#xc1;" 
d="M463 927l-92 -114q-12 -15 -31 -15h-11q-15 0 -20 8t2 22l61 112q10 18 30 18h46q16 0 20.5 -9t-5.5 -22zM474 213h-258l-68 -193q-7 -20 -28 -20h-79q-31 0 -20 29l259 683q7 20 28 20h75q21 0 28 -20l259 -683q11 -29 -20 -29h-81q-21 0 -28 20zM436 320l-90 260
l-92 -260h182z" />
    <glyph glyph-name="Acircumflex" unicode="&#xc2;" 
d="M337 896l-52 -82q-12 -16 -31 -16h-34q-16 0 -20 9t6 22l97 115q11 14 31 14h20q20 0 31 -14l98 -115q10 -13 6 -22t-20 -9h-35q-18 0 -30 16l-57 82h-10zM474 213h-258l-68 -193q-7 -20 -28 -20h-79q-31 0 -20 29l259 683q7 20 28 20h75q21 0 28 -20l259 -683
q11 -29 -20 -29h-81q-21 0 -28 20zM436 320l-90 260l-92 -260h182z" />
    <glyph glyph-name="Atilde" unicode="&#xc3;" 
d="M296 869q-22 0 -27 -32q-5 -24 -26 -24h-15q-27 0 -25 26q11 100 92 100q30 0 53 -18.5t39 -36.5t27 -18q18 0 23 31q3 25 25 25h15q27 0 25 -26q-12 -100 -88 -100q-21 0 -39 11.5t-28.5 25t-24 25t-26.5 11.5zM474 213h-258l-68 -193q-7 -20 -28 -20h-79q-31 0 -20 29
l259 683q7 20 28 20h75q21 0 28 -20l259 -683q11 -29 -20 -29h-81q-21 0 -28 20zM436 320l-90 260l-92 -260h182z" />
    <glyph glyph-name="Adieresis" unicode="&#xc4;" 
d="M312 924v-65q0 -25 -25 -25h-42q-25 0 -25 25v65q0 25 25 25h42q25 0 25 -25zM472 924v-65q0 -25 -25 -25h-42q-25 0 -25 25v65q0 25 25 25h42q25 0 25 -25zM474 213h-258l-68 -193q-7 -20 -28 -20h-79q-31 0 -20 29l259 683q7 20 28 20h75q21 0 28 -20l259 -683
q11 -29 -20 -29h-81q-21 0 -28 20zM436 320l-90 260l-92 -260h182z" />
    <glyph glyph-name="Aring" unicode="&#xc5;" 
d="M345 768q-43 0 -72.5 28.5t-29.5 73.5t29.5 73t72.5 28t72 -28t29 -73t-29 -73.5t-72 -28.5zM345 918q-21 0 -35 -13t-14 -35q0 -21 14 -35t35 -14t34.5 13.5t13.5 35.5t-13.5 35t-34.5 13zM474 213h-258l-68 -193q-7 -20 -28 -20h-79q-31 0 -20 29l259 683q7 20 28 20
h75q21 0 28 -20l259 -683q11 -29 -20 -29h-81q-21 0 -28 20zM436 320l-90 260l-92 -260h182z" />
    <glyph glyph-name="AE" unicode="&#xc6;" horiz-adv-x="979" 
d="M615 626v-191h253q25 0 25 -25v-57q0 -25 -25 -25h-253v-221h294q25 0 25 -25v-57q0 -25 -25 -25h-387q-25 0 -25 25v188h-239l-110 -196q-10 -17 -30 -17h-74q-14 0 -19 8.5t2 21.5l391 686q10 17 30 17h462q25 0 25 -25v-57q0 -25 -25 -25h-295zM497 320v317l-179 -317
h179z" />
    <glyph glyph-name="Ccedilla" unicode="&#xc7;" horiz-adv-x="766" 
d="M628 229l64 -1q14 0 19.5 -7.5t1.5 -20.5q-32 -86 -109 -148.5t-191 -67.5l-15 -42q71 -14 71 -84q0 -41 -27.5 -67.5t-78.5 -26.5q-34 0 -61 12q-21 9 -13 33l2 7q7 23 32 15q24 -8 40 -8q17 0 28 9t11 23q0 38 -59 38q-26 0 -18 28l20 66q-137 17 -219 120t-82 257
q0 169 101 276.5t253 107.5q108 0 191 -56t120 -155q4 -13 -1.5 -20.5t-19.5 -7.5l-64 -1q-20 0 -30 18q-73 117 -203 117q-100 0 -164 -70.5t-64 -198.5q0 -132 67 -208t177 -76q133 0 191 120q10 19 30 19z" />
    <glyph glyph-name="Egrave" unicode="&#xc8;" horiz-adv-x="601" 
d="M338 798h-11q-19 0 -31 15l-92 114q-10 13 -5.5 22t20.5 9h46q20 0 30 -18l61 -112q7 -14 2 -22t-20 -8zM188 625l1 -190h300q25 0 25 -25v-57q0 -25 -25 -25h-300l1 -221h341q25 0 25 -25v-57q0 -25 -25 -25h-442q-25 0 -25 25l5 682q0 25 25 25h438q25 0 25 -25v-57
q0 -25 -25 -25h-344z" />
    <glyph glyph-name="Eacute" unicode="&#xc9;" horiz-adv-x="601" 
d="M429 927l-92 -114q-12 -15 -31 -15h-11q-15 0 -20 8t2 22l61 112q10 18 30 18h46q16 0 20.5 -9t-5.5 -22zM188 625l1 -190h300q25 0 25 -25v-57q0 -25 -25 -25h-300l1 -221h341q25 0 25 -25v-57q0 -25 -25 -25h-442q-25 0 -25 25l5 682q0 25 25 25h438q25 0 25 -25v-57
q0 -25 -25 -25h-344z" />
    <glyph glyph-name="Ecircumflex" unicode="&#xca;" horiz-adv-x="601" 
d="M303 896l-52 -82q-12 -16 -31 -16h-34q-16 0 -20 9t6 22l97 115q11 14 31 14h20q20 0 31 -14l98 -115q10 -13 6 -22t-20 -9h-35q-18 0 -30 16l-57 82h-10zM188 625l1 -190h300q25 0 25 -25v-57q0 -25 -25 -25h-300l1 -221h341q25 0 25 -25v-57q0 -25 -25 -25h-442
q-25 0 -25 25l5 682q0 25 25 25h438q25 0 25 -25v-57q0 -25 -25 -25h-344z" />
    <glyph glyph-name="Edieresis" unicode="&#xcb;" horiz-adv-x="601" 
d="M278 924v-65q0 -25 -25 -25h-42q-25 0 -25 25v65q0 25 25 25h42q25 0 25 -25zM438 924v-65q0 -25 -25 -25h-42q-25 0 -25 25v65q0 25 25 25h42q25 0 25 -25zM188 625l1 -190h300q25 0 25 -25v-57q0 -25 -25 -25h-300l1 -221h341q25 0 25 -25v-57q0 -25 -25 -25h-442
q-25 0 -25 25l5 682q0 25 25 25h438q25 0 25 -25v-57q0 -25 -25 -25h-344z" />
    <glyph glyph-name="Igrave" unicode="&#xcc;" horiz-adv-x="376" 
d="M96 958h46q20 0 30 -18l61 -112q7 -14 2 -22t-20 -8h-11q-19 0 -31 15l-92 114q-10 13 -5.5 22t20.5 9zM247 707l4 -682q0 -25 -25 -25h-77q-25 0 -25 25l5 682q0 25 25 25h68q25 0 25 -25z" />
    <glyph glyph-name="Iacute" unicode="&#xcd;" horiz-adv-x="376" 
d="M306 927l-92 -114q-12 -15 -31 -15h-11q-15 0 -20 8t2 22l61 112q10 18 30 18h46q16 0 20.5 -9t-5.5 -22zM247 707l4 -682q0 -25 -25 -25h-77q-25 0 -25 25l5 682q0 25 25 25h68q25 0 25 -25z" />
    <glyph glyph-name="Icircumflex" unicode="&#xce;" horiz-adv-x="376" 
d="M229 944l98 -115q10 -13 6 -22t-20 -9h-35q-18 0 -30 16l-57 82h-10l-52 -82q-12 -16 -31 -16h-34q-16 0 -20 9t6 22l97 115q11 14 31 14h20q20 0 31 -14zM154 732h68q25 0 25 -25l4 -682q0 -25 -25 -25h-77q-25 0 -25 25l5 682q0 25 25 25z" />
    <glyph glyph-name="Idieresis" unicode="&#xcf;" horiz-adv-x="376" 
d="M156 924v-65q0 -25 -25 -25h-42q-25 0 -25 25v65q0 25 25 25h42q25 0 25 -25zM316 924v-65q0 -25 -25 -25h-42q-25 0 -25 25v65q0 25 25 25h42q25 0 25 -25zM247 707l4 -682q0 -25 -25 -25h-77q-25 0 -25 25l5 682q0 25 25 25h68q25 0 25 -25z" />
    <glyph glyph-name="Eth" unicode="&#xd0;" horiz-adv-x="749" 
d="M94 732h251q175 0 267.5 -95.5t92.5 -259.5q0 -168 -93.5 -272.5t-265.5 -104.5h-257q-25 0 -25 25l2 204q-12 0 -12 25v54q0 25 12 25l3 374q0 25 25 25zM191 105h148q118 0 183 68.5t65 190.5q0 129 -65 196.5t-184 67.5h-150l2 -295h220q25 0 25 -25v-54
q0 -25 -25 -25h-220z" />
    <glyph glyph-name="Ntilde" unicode="&#xd1;" horiz-adv-x="749" 
d="M326 875q-22 0 -27 -32q-5 -24 -26 -24h-15q-27 0 -25 26q11 100 92 100q30 0 53 -18.5t39 -36.5t27 -18q18 0 23 31q3 25 25 25h15q27 0 25 -26q-12 -100 -88 -100q-21 0 -39 11.5t-28.5 25t-24 25t-26.5 11.5zM680 707l4 -682q0 -25 -25 -25h-126q-20 0 -30 18
l-317 587l3 -580q0 -25 -25 -25h-75q-25 0 -25 25l5 682q0 25 25 25h133q20 0 30 -18l304 -559l3 552q0 25 25 25h66q25 0 25 -25z" />
    <glyph glyph-name="Ograve" unicode="&#xd2;" horiz-adv-x="798" 
d="M307 964h46q20 0 30 -18l61 -112q7 -14 2 -22t-20 -8h-11q-19 0 -31 15l-92 114q-10 13 -5.5 22t20.5 9zM405 748q151 0 249.5 -103t98.5 -267q0 -170 -103 -282t-256 -112q-151 0 -250.5 107t-99.5 275q0 167 103 274.5t258 107.5zM396 643q-103 0 -168 -70.5
t-65 -198.5q0 -131 67 -207.5t172 -76.5q102 0 167.5 74t65.5 203q0 130 -67 203t-172 73z" />
    <glyph glyph-name="Oacute" unicode="&#xd3;" horiz-adv-x="798" 
d="M517 933l-92 -114q-12 -15 -31 -15h-11q-15 0 -20 8t2 22l61 112q10 18 30 18h46q16 0 20.5 -9t-5.5 -22zM405 748q151 0 249.5 -103t98.5 -267q0 -170 -103 -282t-256 -112q-151 0 -250.5 107t-99.5 275q0 167 103 274.5t258 107.5zM396 643q-103 0 -168 -70.5
t-65 -198.5q0 -131 67 -207.5t172 -76.5q102 0 167.5 74t65.5 203q0 130 -67 203t-172 73z" />
    <glyph glyph-name="Ocircumflex" unicode="&#xd4;" horiz-adv-x="798" 
d="M392 902l-52 -82q-12 -16 -31 -16h-34q-16 0 -20 9t6 22l97 115q11 14 31 14h20q20 0 31 -14l98 -115q10 -13 6 -22t-20 -9h-35q-18 0 -30 16l-57 82h-10zM405 748q151 0 249.5 -103t98.5 -267q0 -170 -103 -282t-256 -112q-151 0 -250.5 107t-99.5 275q0 167 103 274.5
t258 107.5zM402 90q102 0 167.5 74t65.5 203q0 130 -67 203t-172 73q-103 0 -168 -70.5t-65 -198.5q0 -131 67 -207.5t172 -76.5z" />
    <glyph glyph-name="Otilde" unicode="&#xd5;" horiz-adv-x="798" 
d="M349 945q30 0 53 -18.5t39 -36.5t27 -18q18 0 23 31q3 25 25 25h15q27 0 25 -26q-12 -100 -88 -100q-21 0 -39 11.5t-28.5 25t-24 25t-26.5 11.5q-22 0 -27 -32q-5 -24 -26 -24h-15q-27 0 -25 26q11 100 92 100zM405 748q151 0 249.5 -103t98.5 -267q0 -170 -103 -282
t-256 -112q-151 0 -250.5 107t-99.5 275q0 167 103 274.5t258 107.5zM396 643q-103 0 -168 -70.5t-65 -198.5q0 -131 67 -207.5t172 -76.5q102 0 167.5 74t65.5 203q0 130 -67 203t-172 73z" />
    <glyph glyph-name="Odieresis" unicode="&#xd6;" horiz-adv-x="798" 
d="M367 929v-65q0 -25 -25 -25h-42q-25 0 -25 25v65q0 25 25 25h42q25 0 25 -25zM527 929v-65q0 -25 -25 -25h-42q-25 0 -25 25v65q0 25 25 25h42q25 0 25 -25zM405 748q151 0 249.5 -103t98.5 -267q0 -170 -103 -282t-256 -112q-151 0 -250.5 107t-99.5 275
q0 167 103 274.5t258 107.5zM396 643q-103 0 -168 -70.5t-65 -198.5q0 -131 67 -207.5t172 -76.5q102 0 167.5 74t65.5 203q0 130 -67 203t-172 73z" />
    <glyph glyph-name="multiply" unicode="&#xd7;" horiz-adv-x="660" 
d="M358 234l164 -163q18 -18 0 -36q-11 -11 -29 7l-163 164l-164 -164q-18 -18 -36 0q-10 10 7 28l164 164l-163 164q-18 18 0 36q10 10 28 -8l164 -163l163 163q18 18 36 1q11 -11 -7 -29z" />
    <glyph glyph-name="Oslash" unicode="&#xd8;" horiz-adv-x="833" 
d="M756 700l-55 -66q88 -102 88 -256q0 -170 -103 -282t-257 -112q-120 0 -209 70l-33 -40q-11 -14 -31 -14h-72q-16 0 -20.5 9t5.5 22l81 97q-70 100 -70 238q0 167 103 274.5t258 107.5q101 0 183 -49l15 18q11 14 31 14h71q16 0 20.5 -9t-5.5 -22zM198 374q0 -86 31 -151
l323 389q-54 31 -120 31q-103 0 -168.5 -70.5t-65.5 -198.5zM437 90q102 0 168 74t66 203q0 105 -46 176l-333 -402q62 -51 145 -51z" />
    <glyph glyph-name="Ugrave" unicode="&#xd9;" horiz-adv-x="744" 
d="M281 964h46q20 0 30 -18l61 -112q7 -14 2 -22t-20 -8h-11q-19 0 -31 15l-92 114q-10 13 -5.5 22t20.5 9zM678 707l2 -391q1 -159 -84.5 -245.5t-224.5 -86.5q-138 0 -223 86.5t-84 245.5l3 391q0 25 25 25h68q25 0 25 -25l2 -378q1 -121 49.5 -180t138.5 -59
q181 0 182 239l3 378q0 25 25 25h68q25 0 25 -25z" />
    <glyph glyph-name="Uacute" unicode="&#xda;" horiz-adv-x="744" 
d="M491 933l-92 -114q-12 -15 -31 -15h-11q-15 0 -20 8t2 22l61 112q10 18 30 18h46q16 0 20.5 -9t-5.5 -22zM678 707l2 -391q1 -159 -84.5 -245.5t-224.5 -86.5q-138 0 -223 86.5t-84 245.5l3 391q0 25 25 25h68q25 0 25 -25l2 -378q1 -121 49.5 -180t138.5 -59
q181 0 182 239l3 378q0 25 25 25h68q25 0 25 -25z" />
    <glyph glyph-name="Ucircumflex" unicode="&#xdb;" horiz-adv-x="744" 
d="M366 902l-52 -82q-12 -16 -31 -16h-34q-16 0 -20 9t6 22l97 115q11 14 31 14h20q20 0 31 -14l98 -115q10 -13 6 -22t-20 -9h-35q-18 0 -30 16l-57 82h-10zM678 707l2 -391q1 -159 -84.5 -245.5t-224.5 -86.5q-138 0 -223 86.5t-84 245.5l3 391q0 25 25 25h68q25 0 25 -25
l2 -378q1 -121 49.5 -180t138.5 -59q181 0 182 239l3 378q0 25 25 25h68q25 0 25 -25z" />
    <glyph glyph-name="Udieresis" unicode="&#xdc;" horiz-adv-x="744" 
d="M341 929v-65q0 -25 -25 -25h-42q-25 0 -25 25v65q0 25 25 25h42q25 0 25 -25zM501 929v-65q0 -25 -25 -25h-42q-25 0 -25 25v65q0 25 25 25h42q25 0 25 -25zM678 707l2 -391q1 -159 -84.5 -245.5t-224.5 -86.5q-138 0 -223 86.5t-84 245.5l3 391q0 25 25 25h68
q25 0 25 -25l2 -378q1 -121 49.5 -180t138.5 -59q181 0 182 239l3 378q0 25 25 25h68q25 0 25 -25z" />
    <glyph glyph-name="Yacute" unicode="&#xdd;" horiz-adv-x="613" 
d="M425 933l-92 -114q-12 -15 -31 -15h-11q-15 0 -20 8t2 22l61 112q10 18 30 18h46q16 0 20.5 -9t-5.5 -22zM368 295l3 -270q0 -25 -25 -25h-76q-25 0 -25 25l2 271l-221 406q-7 14 -2 22t20 8h76q21 0 29 -18l157 -295h8l155 295q9 18 29 18h71q15 0 20 -8t-2 -22z" />
    <glyph glyph-name="germandbls" unicode="&#xdf;" horiz-adv-x="636" 
d="M457 378q134 -46 134 -177q0 -89 -67 -148t-208 -65q-26 0 -26 25v58q0 24 26 26q162 6 162 110q0 106 -153 113q-26 2 -26 26v49q0 23 25 25q63 6 93.5 36.5t30.5 77.5q0 51 -34 82t-87 31q-65 0 -102.5 -49t-36.5 -150l4 -423q0 -25 -25 -25h-78q-25 0 -25 25l5 423
q2 135 69 218.5t191 83.5q108 0 169 -60t61 -144q0 -51 -25.5 -96.5t-76.5 -71.5z" />
    <glyph glyph-name="agrave" unicode="&#xe0;" horiz-adv-x="576" 
d="M193 763h46q20 0 30 -18l61 -112q7 -13 2 -21.5t-20 -8.5h-11q-19 0 -31 15l-92 114q-10 13 -5.5 22t20.5 9zM295 553q206 0 209 -216l4 -312q0 -25 -25 -25h-69q-25 0 -25 25v56h-8q-28 -42 -74.5 -67t-105.5 -25q-73 0 -118 40.5t-45 111.5q0 90 78 135.5t241 57.5
l32 2v14q0 103 -105 103q-69 0 -101 -45q-11 -18 -29 -18h-64q-29 0 -26 14q17 59 74.5 104t156.5 45zM389 249l-30 -2q-207 -15 -207 -99q0 -27 19.5 -42t56.5 -15q70 0 116.5 43.5t44.5 90.5v24z" />
    <glyph glyph-name="aacute" unicode="&#xe1;" horiz-adv-x="576" 
d="M403 732l-92 -114q-12 -15 -31 -15h-11q-15 0 -20 8.5t2 21.5l61 112q10 18 30 18h46q16 0 20.5 -9t-5.5 -22zM295 553q206 0 209 -216l4 -312q0 -25 -25 -25h-69q-25 0 -25 25v56h-8q-28 -42 -74.5 -67t-105.5 -25q-73 0 -118 40.5t-45 111.5q0 90 78 135.5t241 57.5
l32 2v14q0 103 -105 103q-69 0 -101 -45q-11 -18 -29 -18h-64q-29 0 -26 14q17 59 74.5 104t156.5 45zM389 249l-30 -2q-207 -15 -207 -99q0 -27 19.5 -42t56.5 -15q70 0 116.5 43.5t44.5 90.5v24z" />
    <glyph glyph-name="acircumflex" unicode="&#xe2;" horiz-adv-x="576" 
d="M277 701l-52 -82q-12 -16 -31 -16h-34q-16 0 -20 9t6 22l97 115q11 14 31 14h20q20 0 31 -14l98 -115q10 -13 6 -22t-20 -9h-35q-18 0 -30 16l-57 82h-10zM483 0h-69q-25 0 -25 25v56h-8q-28 -42 -74.5 -67t-105.5 -25q-73 0 -118 40.5t-45 111.5q0 90 78 135.5t241 57.5
l32 2v14q0 103 -105 103q-69 0 -101 -45q-11 -18 -29 -18h-64q-14 0 -19.5 7.5t-1.5 20.5q21 56 77 95.5t149 39.5q206 0 209 -216l4 -312q0 -25 -25 -25zM228 91q70 0 116.5 43.5t44.5 90.5v24l-30 -2q-207 -15 -207 -99q0 -27 19.5 -42t56.5 -15z" />
    <glyph glyph-name="atilde" unicode="&#xe3;" horiz-adv-x="576" 
d="M235 744q23 0 43 -11.5t31 -25t23 -25t22 -11.5q18 0 23 31q3 25 25 25h15q27 0 25 -26q-12 -100 -88 -100q-27 0 -48 18.5t-37.5 36.5t-32.5 18q-22 0 -27 -32q-4 -24 -26 -24h-15q-27 0 -25 26q11 100 92 100zM295 553q206 0 209 -216l4 -312q0 -25 -25 -25h-69
q-25 0 -25 25v56h-8q-28 -42 -74.5 -67t-105.5 -25q-73 0 -118 40.5t-45 111.5q0 90 78 135.5t241 57.5l32 2v14q0 103 -105 103q-69 0 -101 -45q-11 -18 -29 -18h-64q-29 0 -26 14q17 59 74.5 104t156.5 45zM389 249l-30 -2q-207 -15 -207 -99q0 -27 19.5 -42t56.5 -15
q70 0 116.5 43.5t44.5 90.5v24z" />
    <glyph glyph-name="adieresis" unicode="&#xe4;" horiz-adv-x="576" 
d="M252 728v-65q0 -25 -25 -25h-42q-25 0 -25 25v65q0 25 25 25h42q25 0 25 -25zM412 728v-65q0 -25 -25 -25h-42q-25 0 -25 25v65q0 25 25 25h42q25 0 25 -25zM295 553q206 0 209 -216l4 -312q0 -25 -25 -25h-69q-25 0 -25 25v56h-8q-28 -42 -74.5 -67t-105.5 -25
q-73 0 -118 40.5t-45 111.5q0 90 78 135.5t241 57.5l32 2v14q0 103 -105 103q-69 0 -101 -45q-11 -18 -29 -18h-64q-29 0 -26 14q17 59 74.5 104t156.5 45zM389 249l-30 -2q-207 -15 -207 -99q0 -27 19.5 -42t56.5 -15q70 0 116.5 43.5t44.5 90.5v24z" />
    <glyph glyph-name="aring" unicode="&#xe5;" horiz-adv-x="576" 
d="M284 776q43 0 72 -28t29 -73t-29 -73.5t-72 -28.5t-72.5 28.5t-29.5 73.5t29.5 73t72.5 28zM284 723q-21 0 -35 -13t-14 -35q0 -21 14 -35t35 -14q20 0 34 14t14 35q0 22 -13.5 35t-34.5 13zM295 553q206 0 209 -216l4 -312q0 -25 -25 -25h-69q-25 0 -25 25v56h-8
q-28 -42 -74.5 -67t-105.5 -25q-73 0 -118 40.5t-45 111.5q0 90 78 135.5t241 57.5l32 2v14q0 103 -105 103q-69 0 -101 -45q-11 -18 -29 -18h-64q-29 0 -26 14q17 59 74.5 104t156.5 45zM389 249l-30 -2q-207 -15 -207 -99q0 -27 19.5 -42t56.5 -15q70 0 116.5 43.5
t44.5 90.5v24z" />
    <glyph glyph-name="ae" unicode="&#xe6;" horiz-adv-x="926" 
d="M653 554q118 0 179 -81t56 -207q-2 -24 -26 -24h-356q4 -78 44 -116t104 -38q68 0 104 54q10 17 30 17h61q14 0 19.5 -8t0.5 -21q-31 -71 -90 -108.5t-135 -37.5q-139 0 -210 112h-6q-32 -47 -93.5 -77t-133.5 -30q-74 0 -118.5 40t-44.5 112q0 90 78 135.5t241 57.5
l32 2v9q0 107 -105 107q-69 0 -101 -45q-11 -18 -29 -18h-64q-14 0 -19.5 7.5t-1.5 20.5q21 56 77.5 96t148.5 40q120 0 172 -75q71 76 186 76zM513 334h255q-2 49 -34.5 82.5t-90.5 33.5q-102 0 -130 -116zM389 249l-30 -2q-207 -15 -207 -99q0 -27 19.5 -42.5t56.5 -15.5
q68 0 114.5 48.5t46.5 95.5v15z" />
    <glyph glyph-name="ccedilla" unicode="&#xe7;" horiz-adv-x="544" 
d="M298 89q72 0 104 56q10 18 29 18h62q14 0 20 -8t1 -20q-23 -58 -75 -101t-128 -49l-15 -43q71 -14 71 -84q0 -41 -27.5 -67.5t-78.5 -26.5q-34 0 -61 12q-21 9 -13 33l2 7q7 23 32 15q24 -8 40 -8q17 0 28 9t11 23q0 38 -59 38q-26 0 -18 28l20 66q-95 14 -150 88
t-55 187q0 134 70 213t183 79q88 0 149 -47t80 -114q6 -27 -23 -27h-62q-19 0 -29 18q-38 66 -114 66q-137 0 -137 -185q0 -176 143 -176z" />
    <glyph glyph-name="egrave" unicode="&#xe8;" horiz-adv-x="574" 
d="M195 763h46q20 0 30 -18l61 -112q7 -13 2 -21.5t-20 -8.5h-11q-19 0 -31 15l-92 114q-10 13 -5.5 22t20.5 9zM302 554q118 0 178.5 -81t55.5 -207q-2 -24 -26 -24h-355q4 -78 44 -116t104 -38q67 0 103 54q10 17 30 17h61q14 0 19.5 -8t0.5 -21q-31 -70 -90 -108
t-134 -38q-112 0 -183.5 77.5t-71.5 203.5q0 128 73 208.5t191 80.5zM292 450q-103 0 -131 -116h255q-1 49 -33.5 82.5t-90.5 33.5z" />
    <glyph glyph-name="eacute" unicode="&#xe9;" horiz-adv-x="574" 
d="M405 732l-92 -114q-12 -15 -31 -15h-11q-15 0 -20 8.5t2 21.5l61 112q10 18 30 18h46q16 0 20.5 -9t-5.5 -22zM302 554q118 0 178.5 -81t55.5 -207q-2 -24 -26 -24h-355q4 -78 44 -116t104 -38q67 0 103 54q10 17 30 17h61q14 0 19.5 -8t0.5 -21q-31 -70 -90 -108
t-134 -38q-112 0 -183.5 77.5t-71.5 203.5q0 128 73 208.5t191 80.5zM292 450q-103 0 -131 -116h255q-1 49 -33.5 82.5t-90.5 33.5z" />
    <glyph glyph-name="ecircumflex" unicode="&#xea;" horiz-adv-x="574" 
d="M279 701l-52 -82q-12 -16 -31 -16h-34q-16 0 -20 9t6 22l97 115q11 14 31 14h20q20 0 31 -14l98 -115q10 -13 6 -22t-20 -9h-35q-18 0 -30 16l-57 82h-10zM302 554q118 0 178.5 -81t55.5 -207q-2 -24 -26 -24h-355q4 -78 44 -116t104 -38q67 0 103 54q10 17 30 17h61
q14 0 19.5 -8t0.5 -21q-31 -70 -90 -108t-134 -38q-112 0 -183.5 77.5t-71.5 203.5q0 128 73 208.5t191 80.5zM161 334h255q-1 49 -33.5 82.5t-90.5 33.5q-103 0 -131 -116z" />
    <glyph glyph-name="edieresis" unicode="&#xeb;" horiz-adv-x="574" 
d="M254 728v-65q0 -25 -25 -25h-42q-25 0 -25 25v65q0 25 25 25h42q25 0 25 -25zM414 728v-65q0 -25 -25 -25h-42q-25 0 -25 25v65q0 25 25 25h42q25 0 25 -25zM302 554q118 0 178.5 -81t55.5 -207q-2 -24 -26 -24h-355q4 -78 44 -116t104 -38q67 0 103 54q10 17 30 17h61
q14 0 19.5 -8t0.5 -21q-31 -70 -90 -108t-134 -38q-112 0 -183.5 77.5t-71.5 203.5q0 128 73 208.5t191 80.5zM292 450q-103 0 -131 -116h255q-1 49 -33.5 82.5t-90.5 33.5z" />
    <glyph glyph-name="igrave" unicode="&#xec;" horiz-adv-x="279" 
d="M48 763h46q20 0 30 -18l61 -112q7 -13 2 -21.5t-20 -8.5h-11q-19 0 -31 15l-92 114q-10 13 -5.5 22t20.5 9zM197 512l4 -487q0 -25 -25 -25h-73q-25 0 -25 25l4 487q0 25 25 25h65q25 0 25 -25z" />
    <glyph glyph-name="iacute" unicode="&#xed;" horiz-adv-x="279" 
d="M259 732l-92 -114q-12 -15 -31 -15h-11q-15 0 -20 8.5t2 21.5l61 112q10 18 30 18h46q16 0 20.5 -9t-5.5 -22zM197 512l4 -487q0 -25 -25 -25h-73q-25 0 -25 25l4 487q0 25 25 25h65q25 0 25 -25z" />
    <glyph glyph-name="icircumflex" unicode="&#xee;" horiz-adv-x="279" 
d="M181 749l98 -115q10 -13 6 -22t-20 -9h-35q-18 0 -30 16l-57 82h-10l-52 -82q-12 -16 -31 -16h-34q-16 0 -20 9t6 22l97 115q11 14 31 14h20q20 0 31 -14zM107 537h65q25 0 25 -25l4 -487q0 -25 -25 -25h-73q-25 0 -25 25l4 487q0 25 25 25z" />
    <glyph glyph-name="idieresis" unicode="&#xef;" horiz-adv-x="279" 
d="M108 728v-65q0 -25 -25 -25h-42q-25 0 -25 25v65q0 25 25 25h42q25 0 25 -25zM268 728v-65q0 -25 -25 -25h-42q-25 0 -25 25v65q0 25 25 25h42q25 0 25 -25zM197 512l4 -487q0 -25 -25 -25h-73q-25 0 -25 25l4 487q0 25 25 25h65q25 0 25 -25z" />
    <glyph glyph-name="ntilde" unicode="&#xf1;" horiz-adv-x="588" 
d="M247 744q23 0 43 -11.5t31 -25t23 -25t22 -11.5q18 0 23 31q3 25 25 25h15q27 0 25 -26q-12 -100 -88 -100q-27 0 -48 18.5t-37.5 36.5t-32.5 18q-22 0 -27 -32q-4 -24 -26 -24h-15q-27 0 -25 26q11 100 92 100zM350 553q79 0 125 -55t46 -152v-321q0 -25 -25 -25h-65
q-25 0 -25 25v291q0 61 -25.5 93t-70.5 32q-58 0 -92 -47.5t-29 -137.5l2 -231q0 -25 -25 -25h-73q-25 0 -25 25l4 487q0 25 25 25h65q25 0 25 -25l1 -48h8q57 89 154 89z" />
    <glyph glyph-name="ograve" unicode="&#xf2;" horiz-adv-x="599" 
d="M208 763h46q20 0 30 -18l61 -112q7 -13 2 -21.5t-20 -8.5h-11q-19 0 -31 15l-92 114q-10 13 -5.5 22t20.5 9zM304 553q111 0 184 -77.5t73 -200.5q0 -126 -76 -208.5t-190 -82.5q-111 0 -184 79.5t-73 202.5q0 126 75.5 206.5t190.5 80.5zM291 450q-60 0 -98 -46.5
t-38 -126.5q0 -84 43.5 -136t108.5 -52q60 0 98 47t38 126q0 86 -43.5 137t-108.5 51z" />
    <glyph glyph-name="oacute" unicode="&#xf3;" horiz-adv-x="599" 
d="M418 732l-92 -114q-12 -15 -31 -15h-11q-15 0 -20 8.5t2 21.5l61 112q10 18 30 18h46q16 0 20.5 -9t-5.5 -22zM304 553q111 0 184 -77.5t73 -200.5q0 -126 -76 -208.5t-190 -82.5q-111 0 -184 79.5t-73 202.5q0 126 75.5 206.5t190.5 80.5zM291 450q-60 0 -98 -46.5
t-38 -126.5q0 -84 43.5 -136t108.5 -52q60 0 98 47t38 126q0 86 -43.5 137t-108.5 51z" />
    <glyph glyph-name="ocircumflex" unicode="&#xf4;" horiz-adv-x="599" 
d="M293 701l-52 -82q-12 -16 -31 -16h-34q-16 0 -20 9t6 22l97 115q11 14 31 14h20q20 0 31 -14l98 -115q10 -13 6 -22t-20 -9h-35q-18 0 -30 16l-57 82h-10zM304 553q111 0 184 -77.5t73 -200.5q0 -126 -76 -208.5t-190 -82.5q-111 0 -184 79.5t-73 202.5q0 126 75.5 206.5
t190.5 80.5zM307 89q60 0 98 47t38 126q0 86 -43.5 137t-108.5 51q-60 0 -98 -46.5t-38 -126.5q0 -84 43.5 -136t108.5 -52z" />
    <glyph glyph-name="otilde" unicode="&#xf5;" horiz-adv-x="599" 
d="M250 744q23 0 43 -11.5t31 -25t23 -25t22 -11.5q18 0 23 31q3 25 25 25h15q27 0 25 -26q-12 -100 -88 -100q-27 0 -48 18.5t-37.5 36.5t-32.5 18q-22 0 -27 -32q-4 -24 -26 -24h-15q-27 0 -25 26q11 100 92 100zM304 553q111 0 184 -77.5t73 -200.5q0 -126 -76 -208.5
t-190 -82.5q-111 0 -184 79.5t-73 202.5q0 126 75.5 206.5t190.5 80.5zM291 450q-60 0 -98 -46.5t-38 -126.5q0 -84 43.5 -136t108.5 -52q60 0 98 47t38 126q0 86 -43.5 137t-108.5 51z" />
    <glyph glyph-name="odieresis" unicode="&#xf6;" horiz-adv-x="599" 
d="M267 728v-65q0 -25 -25 -25h-42q-25 0 -25 25v65q0 25 25 25h42q25 0 25 -25zM427 728v-65q0 -25 -25 -25h-42q-25 0 -25 25v65q0 25 25 25h42q25 0 25 -25zM304 553q111 0 184 -77.5t73 -200.5q0 -126 -76 -208.5t-190 -82.5q-111 0 -184 79.5t-73 202.5
q0 126 75.5 206.5t190.5 80.5zM291 450q-60 0 -98 -46.5t-38 -126.5q0 -84 43.5 -136t108.5 -52q60 0 98 47t38 126q0 86 -43.5 137t-108.5 51z" />
    <glyph glyph-name="divide" unicode="&#xf7;" horiz-adv-x="811" 
d="M469 507v-70q0 -25 -25 -25h-82q-25 0 -25 25v70q0 25 25 25h82q25 0 25 -25zM691 294v-54q0 -25 -25 -25h-521q-25 0 -25 25v54q0 25 25 25h521q25 0 25 -25zM469 87v-70q0 -25 -25 -25h-82q-25 0 -25 25v70q0 25 25 25h82q25 0 25 -25z" />
    <glyph glyph-name="oslash" unicode="&#xf8;" horiz-adv-x="672" 
d="M608 506l-60 -68q44 -69 44 -163q0 -126 -76 -208.5t-190 -82.5q-79 0 -141 42l-11 -12q-11 -14 -30 -14h-65q-16 0 -20.5 9t6.5 22l54 61q-51 73 -51 174q0 126 75.5 206.5t190.5 80.5q85 0 151 -47l15 17q11 14 30 14h64q16 0 20.5 -9t-6.5 -22zM185 277q0 -51 17 -91
l207 234q-37 30 -87 30q-61 0 -99 -46.5t-38 -126.5zM474 262q0 44 -12 79l-201 -229q35 -23 76 -23q61 0 99 47t38 126z" />
    <glyph glyph-name="ugrave" unicode="&#xf9;" horiz-adv-x="591" 
d="M203 763h46q20 0 30 -18l61 -112q7 -13 2 -21.5t-20 -8.5h-11q-19 0 -31 15l-92 114q-10 13 -5.5 22t20.5 9zM518 512l5 -487q0 -25 -25 -25h-74q-26 0 -24 25l1 48h-8q-54 -89 -152 -89q-80 0 -127 56.5t-46 162.5l2 309q0 25 25 25h65q25 0 25 -25l2 -280
q1 -136 94 -136q57 0 90.5 47t29.5 138l3 231q0 25 25 25h64q25 0 25 -25z" />
    <glyph glyph-name="uacute" unicode="&#xfa;" horiz-adv-x="591" 
d="M413 732l-92 -114q-12 -15 -31 -15h-11q-15 0 -20 8.5t2 21.5l61 112q10 18 30 18h46q16 0 20.5 -9t-5.5 -22zM518 512l5 -487q0 -25 -25 -25h-74q-26 0 -24 25l1 48h-8q-54 -89 -152 -89q-80 0 -127 56.5t-46 162.5l2 309q0 25 25 25h65q25 0 25 -25l2 -280
q1 -136 94 -136q57 0 90.5 47t29.5 138l3 231q0 25 25 25h64q25 0 25 -25z" />
    <glyph glyph-name="ucircumflex" unicode="&#xfb;" horiz-adv-x="591" 
d="M287 701l-52 -82q-12 -16 -31 -16h-34q-16 0 -20 9t6 22l97 115q11 14 31 14h20q20 0 31 -14l98 -115q10 -13 6 -22t-20 -9h-35q-18 0 -30 16l-57 82h-10zM498 0h-74q-26 0 -24 25l1 48h-8q-54 -89 -152 -89q-80 0 -127 56.5t-46 162.5l2 309q0 25 25 25h65q25 0 25 -25
l2 -280q1 -136 94 -136q57 0 90.5 47t29.5 138l3 231q0 25 25 25h64q25 0 25 -25l5 -487q0 -25 -25 -25z" />
    <glyph glyph-name="udieresis" unicode="&#xfc;" horiz-adv-x="591" 
d="M262 728v-65q0 -25 -25 -25h-42q-25 0 -25 25v65q0 25 25 25h42q25 0 25 -25zM422 728v-65q0 -25 -25 -25h-42q-25 0 -25 25v65q0 25 25 25h42q25 0 25 -25zM518 512l5 -487q0 -25 -25 -25h-74q-26 0 -24 25l1 48h-8q-54 -89 -152 -89q-80 0 -127 56.5t-46 162.5l2 309
q0 25 25 25h65q25 0 25 -25l2 -280q1 -136 94 -136q57 0 90.5 47t29.5 138l3 231q0 25 25 25h64q25 0 25 -25z" />
    <glyph glyph-name="yacute" unicode="&#xfd;" horiz-adv-x="555" 
d="M399 732l-92 -114q-12 -15 -31 -15h-11q-15 0 -20 8.5t2 21.5l61 112q10 18 30 18h46q16 0 20.5 -9t-5.5 -22zM444 537h62q14 0 19 -8t1 -21l-243 -708q-7 -20 -28 -20h-74q-31 0 -21 29l59 161l-190 538q-4 13 1 21t19 8h62q21 0 29 -20l129 -385h8l139 385q7 20 28 20z
" />
    <glyph glyph-name="ydieresis" unicode="&#xff;" horiz-adv-x="555" 
d="M248 728v-65q0 -25 -25 -25h-42q-25 0 -25 25v65q0 25 25 25h42q25 0 25 -25zM408 728v-65q0 -25 -25 -25h-42q-25 0 -25 25v65q0 25 25 25h42q25 0 25 -25zM444 537h62q14 0 19 -8t1 -21l-243 -708q-7 -20 -28 -20h-74q-31 0 -21 29l59 161l-190 538q-4 13 1 21t19 8h62
q21 0 29 -20l129 -385h8l139 385q7 20 28 20z" />
    <glyph glyph-name="Amacron" unicode="&#x100;" 
d="M472 889v-21q0 -25 -25 -25h-205q-25 0 -25 25v21q0 25 25 25h205q25 0 25 -25zM474 213h-258l-68 -193q-7 -20 -28 -20h-79q-31 0 -20 29l259 683q7 20 28 20h75q21 0 28 -20l259 -683q11 -29 -20 -29h-81q-21 0 -28 20zM436 320l-90 260l-92 -260h182z" />
    <glyph glyph-name="amacron" unicode="&#x101;" horiz-adv-x="576" 
d="M412 693v-21q0 -25 -25 -25h-205q-25 0 -25 25v21q0 25 25 25h205q25 0 25 -25zM295 553q206 0 209 -216l4 -312q0 -25 -25 -25h-69q-25 0 -25 25v56h-8q-28 -42 -74.5 -67t-105.5 -25q-73 0 -118 40.5t-45 111.5q0 90 78 135.5t241 57.5l32 2v14q0 103 -105 103
q-69 0 -101 -45q-11 -18 -29 -18h-64q-29 0 -26 14q17 59 74.5 104t156.5 45zM389 249l-30 -2q-207 -15 -207 -99q0 -27 19.5 -42t56.5 -15q70 0 116.5 43.5t44.5 90.5v24z" />
    <glyph glyph-name="Abreve" unicode="&#x102;" 
d="M343 787q-67 0 -106.5 33.5t-39.5 99.5q0 16 25 16h21q25 0 25 -16q0 -69 75 -69q76 0 76 69q0 16 25 16h22q25 0 25 -16q0 -67 -40 -100t-108 -33zM474 213h-258l-68 -193q-7 -20 -28 -20h-79q-31 0 -20 29l259 683q7 20 28 20h75q21 0 28 -20l259 -683q11 -29 -20 -29
h-81q-21 0 -28 20zM436 320l-90 260l-92 -260h182z" />
    <glyph glyph-name="abreve" unicode="&#x103;" horiz-adv-x="576" 
d="M431 725q0 -67 -40 -100t-108 -33q-67 0 -106.5 33.5t-39.5 99.5q0 16 25 16h21q25 0 25 -16q0 -69 75 -69q76 0 76 69q0 16 25 16h22q25 0 25 -16zM295 553q206 0 209 -216l4 -312q0 -25 -25 -25h-69q-25 0 -25 25v56h-8q-28 -42 -74.5 -67t-105.5 -25q-73 0 -118 40.5
t-45 111.5q0 90 78 135.5t241 57.5l32 2v14q0 103 -105 103q-69 0 -101 -45q-11 -18 -29 -18h-64q-29 0 -26 14q17 59 74.5 104t156.5 45zM389 249l-30 -2q-207 -15 -207 -99q0 -27 19.5 -42t56.5 -15q70 0 116.5 43.5t44.5 90.5v24z" />
    <glyph glyph-name="Cacute" unicode="&#x106;" horiz-adv-x="766" 
d="M502 926l-92 -114q-12 -15 -31 -15h-11q-15 0 -20 8.5t2 21.5l61 112q10 18 30 18h46q16 0 20.5 -9t-5.5 -22zM398 748q108 0 191 -56t120 -155q4 -13 -1.5 -20.5t-19.5 -7.5l-64 -1q-20 0 -30 18q-73 117 -203 117q-100 0 -164 -70.5t-64 -198.5q0 -132 67 -208t177 -76
q133 0 191 120q10 19 30 19l64 -1q14 0 20 -7.5t1 -20.5q-33 -90 -114.5 -153t-202.5 -63q-157 0 -254.5 106t-97.5 274q0 169 101 276.5t253 107.5z" />
    <glyph glyph-name="cacute" unicode="&#x107;" horiz-adv-x="544" 
d="M399 732l-92 -114q-12 -15 -31 -15h-11q-15 0 -20 8.5t2 21.5l61 112q10 18 30 18h46q16 0 20.5 -9t-5.5 -22zM291 554q88 0 149 -47t80 -114q6 -27 -23 -27h-62q-19 0 -29 18q-38 66 -114 66q-137 0 -137 -185q0 -176 143 -176q72 0 104 56q10 18 29 18h62q14 0 20 -8
t1 -20q-24 -63 -83 -107t-144 -44q-114 0 -181.5 76t-67.5 202q0 134 70 213t183 79z" />
    <glyph glyph-name="Cdotaccent" unicode="&#x10a;" horiz-adv-x="766" 
d="M441 921v-65q0 -25 -25 -25h-65q-25 0 -25 25v65q0 25 25 25h65q25 0 25 -25zM398 748q108 0 191 -56t120 -155q4 -13 -1.5 -20.5t-19.5 -7.5l-64 -1q-20 0 -30 18q-73 117 -203 117q-100 0 -164 -70.5t-64 -198.5q0 -132 67 -208t177 -76q133 0 191 120q10 19 30 19
l64 -1q14 0 20 -7.5t1 -20.5q-33 -90 -114.5 -153t-202.5 -63q-157 0 -254.5 106t-97.5 274q0 169 101 276.5t253 107.5z" />
    <glyph glyph-name="cdotaccent" unicode="&#x10b;" horiz-adv-x="544" 
d="M338 727v-65q0 -25 -25 -25h-65q-25 0 -25 25v65q0 25 25 25h65q25 0 25 -25zM291 554q88 0 149 -47t80 -114q6 -27 -23 -27h-62q-19 0 -29 18q-38 66 -114 66q-137 0 -137 -185q0 -176 143 -176q72 0 104 56q10 18 29 18h62q14 0 20 -8t1 -20q-24 -63 -83 -107t-144 -44
q-114 0 -181.5 76t-67.5 202q0 134 70 213t183 79z" />
    <glyph glyph-name="Ccaron" unicode="&#x10c;" horiz-adv-x="766" 
d="M392 797h-20q-20 0 -31 14l-98 115q-10 13 -6 22t20 9h35q18 0 30 -16l57 -82h10l52 82q12 16 31 16h34q16 0 20 -9t-6 -22l-97 -115q-11 -14 -31 -14zM628 229l64 -1q14 0 19.5 -7.5t1.5 -20.5q-33 -90 -114.5 -153t-202.5 -63q-157 0 -254.5 106t-97.5 274
q0 169 101 276.5t253 107.5q108 0 191 -56t120 -155q4 -13 -1.5 -20.5t-19.5 -7.5l-64 -1q-20 0 -30 18q-73 117 -203 117q-100 0 -164 -70.5t-64 -198.5q0 -132 67 -208t177 -76q133 0 191 120q10 19 30 19z" />
    <glyph glyph-name="ccaron" unicode="&#x10d;" horiz-adv-x="544" 
d="M289 602h-20q-20 0 -31 14l-98 115q-10 13 -6 22t20 9h35q18 0 30 -16l57 -82h10l52 82q12 16 31 16h34q16 0 20 -9t-6 -22l-97 -115q-11 -14 -31 -14zM298 89q72 0 104 56q10 18 29 18h62q14 0 20 -8t1 -20q-24 -63 -83 -107t-144 -44q-114 0 -181.5 76t-67.5 202
q0 134 70 213t183 79q88 0 149 -47t80 -114q6 -27 -23 -27h-62q-19 0 -29 18q-38 66 -114 66q-137 0 -137 -185q0 -176 143 -176z" />
    <glyph glyph-name="Dcaron" unicode="&#x10e;" horiz-adv-x="749" 
d="M339 797h-20q-20 0 -31 14l-98 115q-10 13 -6 22t20 9h35q18 0 30 -16l57 -82h10l52 82q12 16 31 16h34q16 0 20 -9t-6 -22l-97 -115q-11 -14 -31 -14zM94 732h251q175 0 267.5 -95.5t92.5 -259.5q0 -168 -93.5 -272.5t-265.5 -104.5h-257q-25 0 -25 25l5 682q0 25 25 25
zM191 105h148q118 0 183 68.5t65 190.5q0 129 -65 196.5t-184 67.5h-150z" />
    <glyph glyph-name="dcaron" unicode="&#x10f;" horiz-adv-x="616" 
d="M544 727l4 -702q0 -25 -25 -25h-74q-25 0 -25 25v46h-7q-49 -87 -159 -87q-97 0 -158.5 78.5t-61.5 199.5q0 130 70.5 210.5t184.5 80.5q85 0 130 -51h5l1 225q0 25 25 25h65q25 0 25 -25zM705 725l-22 -121q-5 -23 -27 -23h-14q-26 0 -23 26l12 121q1 24 26 24h25
q28 0 23 -27zM290 450q-65 0 -100 -47t-35 -131q0 -88 37.5 -135.5t98.5 -47.5q63 0 102.5 50t40.5 138v5q-3 81 -42 124.5t-102 43.5z" />
    <glyph glyph-name="Emacron" unicode="&#x112;" horiz-adv-x="601" 
d="M438 889v-21q0 -25 -25 -25h-205q-25 0 -25 25v21q0 25 25 25h205q25 0 25 -25zM188 625l1 -190h300q25 0 25 -25v-57q0 -25 -25 -25h-300l1 -221h341q25 0 25 -25v-57q0 -25 -25 -25h-442q-25 0 -25 25l5 682q0 25 25 25h438q25 0 25 -25v-57q0 -25 -25 -25h-344z" />
    <glyph glyph-name="emacron" unicode="&#x113;" horiz-adv-x="574" 
d="M414 693v-21q0 -25 -25 -25h-205q-25 0 -25 25v21q0 25 25 25h205q25 0 25 -25zM302 554q118 0 178.5 -81t55.5 -207q-2 -24 -26 -24h-355q4 -78 44 -116t104 -38q67 0 103 54q10 17 30 17h61q14 0 19.5 -8t0.5 -21q-31 -70 -90 -108t-134 -38q-112 0 -183.5 77.5
t-71.5 203.5q0 128 73 208.5t191 80.5zM292 450q-103 0 -131 -116h255q-1 49 -33.5 82.5t-90.5 33.5z" />
    <glyph glyph-name="Edotaccent" unicode="&#x116;" horiz-adv-x="601" 
d="M368 922v-65q0 -25 -25 -25h-65q-25 0 -25 25v65q0 25 25 25h65q25 0 25 -25zM188 625l1 -190h300q25 0 25 -25v-57q0 -25 -25 -25h-300l1 -221h341q25 0 25 -25v-57q0 -25 -25 -25h-442q-25 0 -25 25l5 682q0 25 25 25h438q25 0 25 -25v-57q0 -25 -25 -25h-344z" />
    <glyph glyph-name="edotaccent" unicode="&#x117;" horiz-adv-x="574" 
d="M344 727v-65q0 -25 -25 -25h-65q-25 0 -25 25v65q0 25 25 25h65q25 0 25 -25zM302 554q118 0 178.5 -81t55.5 -207q-2 -24 -26 -24h-355q4 -78 44 -116t104 -38q67 0 103 54q10 17 30 17h61q14 0 19.5 -8t0.5 -21q-31 -70 -90 -108t-134 -38q-112 0 -183.5 77.5
t-71.5 203.5q0 128 73 208.5t191 80.5zM292 450q-103 0 -131 -116h255q-1 49 -33.5 82.5t-90.5 33.5z" />
    <glyph glyph-name="Ecaron" unicode="&#x11a;" horiz-adv-x="601" 
d="M319 798h-20q-20 0 -31 14l-98 115q-10 13 -6 22t20 9h35q18 0 30 -16l57 -82h10l52 82q12 16 31 16h34q16 0 20 -9t-6 -22l-97 -115q-11 -14 -31 -14zM188 625l1 -190h300q25 0 25 -25v-57q0 -25 -25 -25h-300l1 -221h341q25 0 25 -25v-57q0 -25 -25 -25h-442
q-25 0 -25 25l5 682q0 25 25 25h438q25 0 25 -25v-57q0 -25 -25 -25h-344z" />
    <glyph glyph-name="ecaron" unicode="&#x11b;" horiz-adv-x="574" 
d="M295 602h-20q-20 0 -31 14l-98 115q-10 13 -6 22t20 9h35q18 0 30 -16l57 -82h10l52 82q12 16 31 16h34q16 0 20 -9t-6 -22l-97 -115q-11 -14 -31 -14zM302 554q118 0 178.5 -81t55.5 -207q-2 -24 -26 -24h-355q4 -78 44 -116t104 -38q67 0 103 54q10 17 30 17h61
q14 0 19.5 -8t0.5 -21q-31 -70 -90 -108t-134 -38q-112 0 -183.5 77.5t-71.5 203.5q0 128 73 208.5t191 80.5zM161 334h255q-1 49 -33.5 82.5t-90.5 33.5q-103 0 -131 -116z" />
    <glyph glyph-name="Gbreve" unicode="&#x11e;" horiz-adv-x="796" 
d="M396 786q-67 0 -106.5 33.5t-39.5 99.5q0 16 25 16h21q25 0 25 -16q0 -69 75 -69q76 0 76 69q0 16 25 16h22q25 0 25 -16q0 -67 -40 -100t-108 -33zM461 365h265q22 0 22 -25q-5 -153 -101 -254.5t-253 -101.5q-152 0 -248.5 106.5t-96.5 275.5q0 167 101.5 274.5
t254.5 107.5q105 0 187.5 -54.5t119.5 -146.5q11 -27 -20 -29l-64 -1q-20 0 -30 17q-74 109 -202 109q-100 0 -164 -70.5t-64 -198.5q0 -132 67 -208t177 -76q76 0 133 44.5t78 123.5h-162q-25 0 -25 25v57q0 25 25 25z" />
    <glyph glyph-name="gbreve" unicode="&#x11f;" horiz-adv-x="618" 
d="M451 725q0 -67 -40 -100t-108 -33q-67 0 -106.5 33.5t-39.5 99.5q0 16 25 16h21q25 0 25 -16q0 -69 75 -69q76 0 76 69q0 16 25 16h22q25 0 25 -16zM258 553q50 0 92.5 -23t68.5 -67h8l1 49q2 25 26 25h65q25 0 25 -25l6 -431q3 -157 -67.5 -237t-187.5 -80
q-152 0 -217 126q-6 14 -1 22t20 8h65q18 0 31 -15q33 -37 100 -37q135 0 131 173v13h-6q-47 -54 -127 -54q-113 0 -183 76t-70 201q0 118 61.5 197t158.5 79zM291 450q-60 0 -98 -49t-38 -134q0 -79 34.5 -121t100.5 -42q63 0 102 38.5t42 109.5v5q-1 89 -40.5 141
t-102.5 52z" />
    <glyph glyph-name="Gdotaccent" unicode="&#x120;" horiz-adv-x="796" 
d="M456 921v-65q0 -25 -25 -25h-65q-25 0 -25 25v65q0 25 25 25h65q25 0 25 -25zM461 365h265q22 0 22 -25q-5 -153 -101 -254.5t-253 -101.5q-152 0 -248.5 106.5t-96.5 275.5q0 167 101.5 274.5t254.5 107.5q105 0 187.5 -54.5t119.5 -146.5q11 -27 -20 -29l-64 -1
q-20 0 -30 17q-74 109 -202 109q-100 0 -164 -70.5t-64 -198.5q0 -132 67 -208t177 -76q76 0 133 44.5t78 123.5h-162q-25 0 -25 25v57q0 25 25 25z" />
    <glyph glyph-name="gdotaccent" unicode="&#x121;" horiz-adv-x="618" 
d="M362 727v-65q0 -25 -25 -25h-65q-25 0 -25 25v65q0 25 25 25h65q25 0 25 -25zM258 553q50 0 92.5 -23t68.5 -67h8l1 49q2 25 26 25h65q25 0 25 -25l6 -431q3 -157 -67.5 -237t-187.5 -80q-152 0 -217 126q-6 14 -1 22t20 8h65q18 0 31 -15q33 -37 100 -37q135 0 131 173
v13h-6q-47 -54 -127 -54q-113 0 -183 76t-70 201q0 118 61.5 197t158.5 79zM291 450q-60 0 -98 -49t-38 -134q0 -79 34.5 -121t100.5 -42q63 0 102 38.5t42 109.5v5q-1 89 -40.5 141t-102.5 52z" />
    <glyph glyph-name="Imacron" unicode="&#x12a;" horiz-adv-x="376" 
d="M315 889v-21q0 -25 -25 -25h-205q-25 0 -25 25v21q0 25 25 25h205q25 0 25 -25zM247 707l4 -682q0 -25 -25 -25h-77q-25 0 -25 25l5 682q0 25 25 25h68q25 0 25 -25z" />
    <glyph glyph-name="imacron" unicode="&#x12b;" horiz-adv-x="279" 
d="M267 693v-21q0 -25 -25 -25h-205q-25 0 -25 25v21q0 25 25 25h205q25 0 25 -25zM197 512l4 -487q0 -25 -25 -25h-73q-25 0 -25 25l4 487q0 25 25 25h65q25 0 25 -25z" />
    <glyph glyph-name="Idotaccent" unicode="&#x130;" horiz-adv-x="376" 
d="M246 922v-65q0 -25 -25 -25h-65q-25 0 -25 25v65q0 25 25 25h65q25 0 25 -25zM247 707l4 -682q0 -25 -25 -25h-77q-25 0 -25 25l5 682q0 25 25 25h68q25 0 25 -25z" />
    <glyph glyph-name="dotlessi" unicode="&#x131;" horiz-adv-x="279" 
d="M197 512l4 -487q0 -25 -25 -25h-73q-25 0 -25 25l4 487q0 25 25 25h65q25 0 25 -25z" />
    <glyph glyph-name="Lacute" unicode="&#x139;" horiz-adv-x="592" 
d="M248 933l-92 -114q-12 -15 -31 -15h-11q-15 0 -20 8t2 22l61 112q10 18 30 18h46q16 0 20.5 -9t-5.5 -22zM190 107h353q25 0 25 -25v-57q0 -25 -25 -25h-454q-25 0 -25 25l5 682q0 25 25 25h68q25 0 25 -25z" />
    <glyph glyph-name="lacute" unicode="&#x13a;" horiz-adv-x="297" 
d="M268 938l-92 -114q-12 -15 -31 -15h-11q-15 0 -20 8.5t2 21.5l61 112q10 18 30 18h46q16 0 20.5 -9t-5.5 -22zM206 727l4 -702q0 -25 -25 -25h-73q-25 0 -25 25l4 702q0 25 25 25h65q25 0 25 -25z" />
    <glyph glyph-name="Lcaron" unicode="&#x13d;" horiz-adv-x="592" 
d="M190 107h353q25 0 25 -25v-57q0 -25 -25 -25h-454q-25 0 -25 25l5 682q0 25 25 25h68q25 0 25 -25z" />
    <glyph glyph-name="lcaron" unicode="&#x13e;" horiz-adv-x="297" 
d="M206 727l4 -702q0 -25 -25 -25h-73q-25 0 -25 25l4 702q0 25 25 25h65q25 0 25 -25zM370 725l-22 -121q-5 -23 -27 -23h-14q-26 0 -23 26l12 121q2 24 26 24h25q28 0 23 -27z" />
    <glyph glyph-name="Nacute" unicode="&#x143;" horiz-adv-x="749" 
d="M493 933l-92 -114q-12 -15 -31 -15h-11q-15 0 -20 8t2 22l61 112q10 18 30 18h46q16 0 20.5 -9t-5.5 -22zM680 707l4 -682q0 -25 -25 -25h-126q-20 0 -30 18l-317 587l3 -580q0 -25 -25 -25h-75q-25 0 -25 25l5 682q0 25 25 25h133q20 0 30 -18l304 -559l3 552
q0 25 25 25h66q25 0 25 -25z" />
    <glyph glyph-name="nacute" unicode="&#x144;" horiz-adv-x="588" 
d="M415 732l-92 -114q-12 -15 -31 -15h-11q-15 0 -20 8.5t2 21.5l61 112q10 18 30 18h46q16 0 20.5 -9t-5.5 -22zM350 553q79 0 125 -55t46 -152v-321q0 -25 -25 -25h-65q-25 0 -25 25v291q0 61 -25.5 93t-70.5 32q-58 0 -92 -47.5t-29 -137.5l2 -231q0 -25 -25 -25h-73
q-25 0 -25 25l4 487q0 25 25 25h65q25 0 25 -25l1 -48h8q57 89 154 89z" />
    <glyph glyph-name="Ncaron" unicode="&#x147;" horiz-adv-x="749" 
d="M383 803h-20q-20 0 -31 14l-98 115q-10 13 -6 22t20 9h35q18 0 30 -16l57 -82h10l52 82q12 16 31 16h34q16 0 20 -9t-6 -22l-97 -115q-11 -14 -31 -14zM680 707l4 -682q0 -25 -25 -25h-126q-20 0 -30 18l-317 587l3 -580q0 -25 -25 -25h-75q-25 0 -25 25l5 682
q0 25 25 25h133q20 0 30 -18l304 -559l3 552q0 25 25 25h66q25 0 25 -25z" />
    <glyph glyph-name="ncaron" unicode="&#x148;" horiz-adv-x="588" 
d="M305 602h-20q-20 0 -31 14l-98 115q-10 13 -6 22t20 9h35q18 0 30 -16l57 -82h10l52 82q12 16 31 16h34q16 0 20 -9t-6 -22l-97 -115q-11 -14 -31 -14zM350 553q79 0 125 -55t46 -152v-321q0 -25 -25 -25h-65q-25 0 -25 25v291q0 61 -25.5 93t-70.5 32q-58 0 -92 -47.5
t-29 -137.5l2 -231q0 -25 -25 -25h-73q-25 0 -25 25l4 487q0 25 25 25h65q25 0 25 -25l1 -48h8q57 89 154 89z" />
    <glyph glyph-name="Omacron" unicode="&#x14c;" horiz-adv-x="798" 
d="M526 894v-21q0 -25 -25 -25h-205q-25 0 -25 25v21q0 25 25 25h205q25 0 25 -25zM405 748q151 0 249.5 -103t98.5 -267q0 -170 -103 -282t-256 -112q-151 0 -250.5 107t-99.5 275q0 167 103 274.5t258 107.5zM396 643q-103 0 -168 -70.5t-65 -198.5q0 -131 67 -207.5
t172 -76.5q102 0 167.5 74t65.5 203q0 130 -67 203t-172 73z" />
    <glyph glyph-name="omacron" unicode="&#x14d;" horiz-adv-x="599" 
d="M427 693v-21q0 -25 -25 -25h-205q-25 0 -25 25v21q0 25 25 25h205q25 0 25 -25zM304 553q111 0 184 -77.5t73 -200.5q0 -126 -76 -208.5t-190 -82.5q-111 0 -184 79.5t-73 202.5q0 126 75.5 206.5t190.5 80.5zM291 450q-60 0 -98 -46.5t-38 -126.5q0 -84 43.5 -136
t108.5 -52q60 0 98 47t38 126q0 86 -43.5 137t-108.5 51z" />
    <glyph glyph-name="Ohungarumlaut" unicode="&#x150;" horiz-adv-x="798" 
d="M460 935l-92 -114q-12 -15 -31 -15h-11q-15 0 -20 8t2 22l61 112q10 18 30 18h46q16 0 20.5 -9t-5.5 -22zM626 935l-92 -114q-12 -15 -31 -15h-11q-15 0 -20 8t2 22l61 112q10 18 30 18h46q16 0 20.5 -9t-5.5 -22zM405 748q151 0 249.5 -103t98.5 -267q0 -170 -103 -282
t-256 -112q-151 0 -250.5 107t-99.5 275q0 167 103 274.5t258 107.5zM396 643q-103 0 -168 -70.5t-65 -198.5q0 -131 67 -207.5t172 -76.5q102 0 167.5 74t65.5 203q0 130 -67 203t-172 73z" />
    <glyph glyph-name="ohungarumlaut" unicode="&#x151;" horiz-adv-x="599" 
d="M361 734l-92 -114q-12 -15 -31 -15h-11q-15 0 -20 8.5t2 21.5l61 112q10 18 30 18h46q16 0 20.5 -9t-5.5 -22zM527 734l-92 -114q-12 -15 -31 -15h-11q-15 0 -20 8.5t2 21.5l61 112q10 18 30 18h46q16 0 20.5 -9t-5.5 -22zM304 553q111 0 184 -77.5t73 -200.5
q0 -126 -76 -208.5t-190 -82.5q-111 0 -184 79.5t-73 202.5q0 126 75.5 206.5t190.5 80.5zM291 450q-60 0 -98 -46.5t-38 -126.5q0 -84 43.5 -136t108.5 -52q60 0 98 47t38 126q0 86 -43.5 137t-108.5 51z" />
    <glyph glyph-name="OE" unicode="&#x152;" horiz-adv-x="939" 
d="M576 626l1 -191h251q25 0 25 -25v-57q0 -25 -25 -25h-251l1 -221h291q25 0 25 -25v-57q0 -25 -25 -25h-460q-166 0 -265.5 101.5t-99.5 264.5q0 161 106 263.5t270 102.5l450 -1q25 0 25 -25v-55q0 -25 -25 -25h-294zM454 105l2 522h-36q-118 0 -187.5 -65.5
t-69.5 -187.5q0 -125 70.5 -197t186.5 -72h34z" />
    <glyph glyph-name="oe" unicode="&#x153;" horiz-adv-x="980" 
d="M707 554q118 0 179 -81t56 -207q-2 -24 -26 -24h-356q4 -78 44 -116t104 -38q68 0 104 54q10 17 30 17h61q14 0 19.5 -8t0.5 -21q-31 -70 -90.5 -108t-134.5 -38q-129 0 -200 98q-77 -98 -203 -98q-111 0 -184 79.5t-73 202.5q0 126 75.5 206.5t190.5 80.5q126 0 199 -95
q75 96 204 96zM307 89q60 0 98 47t38 126q0 86 -43.5 137t-108.5 51q-60 0 -98 -46.5t-38 -126.5q0 -84 43.5 -136t108.5 -52zM567 334h254q-1 49 -33.5 82.5t-90.5 33.5q-102 0 -130 -116z" />
    <glyph glyph-name="Racute" unicode="&#x154;" horiz-adv-x="675" 
d="M462 926l-92 -114q-12 -15 -31 -15h-11q-15 0 -20 8.5t2 21.5l61 112q10 18 30 18h46q16 0 20.5 -9t-5.5 -22zM308 304h-119l2 -279q0 -25 -25 -25h-77q-25 0 -25 25l5 682q0 25 25 25h284q112 0 179.5 -59t67.5 -151q0 -78 -49.5 -135.5t-135.5 -75.5l199 -281
q9 -13 4.5 -21.5t-19.5 -8.5h-94q-18 0 -30 16zM189 408h175q143 0 143 105q0 53 -38 84t-105 31h-176z" />
    <glyph glyph-name="racute" unicode="&#x155;" horiz-adv-x="384" 
d="M315 732l-92 -114q-12 -15 -31 -15h-11q-15 0 -20 8.5t2 21.5l61 112q10 18 30 18h46q16 0 20.5 -9t-5.5 -22zM361 527v-74q0 -24 -25 -26q-75 -3 -113 -38.5t-34 -129.5l2 -234q0 -25 -25 -25h-73q-25 0 -25 25l4 487q0 25 25 25h65q25 0 25 -25l1 -46h8q55 74 139 85
q26 3 26 -24z" />
    <glyph glyph-name="Rcaron" unicode="&#x158;" horiz-adv-x="675" 
d="M352 797h-20q-20 0 -31 14l-98 115q-10 13 -6 22t20 9h35q18 0 30 -16l57 -82h10l52 82q12 16 31 16h34q16 0 20 -9t-6 -22l-97 -115q-11 -14 -31 -14zM308 304h-119l2 -279q0 -25 -25 -25h-77q-25 0 -25 25l5 682q0 25 25 25h284q112 0 179.5 -59t67.5 -151
q0 -78 -49.5 -135.5t-135.5 -75.5l199 -281q9 -13 4.5 -21.5t-19.5 -8.5h-94q-18 0 -30 16zM189 408h175q143 0 143 105q0 53 -38 84t-105 31h-176z" />
    <glyph glyph-name="rcaron" unicode="&#x159;" horiz-adv-x="384" 
d="M206 602h-20q-20 0 -31 14l-98 115q-10 13 -6 22t20 9h35q18 0 30 -16l57 -82h10l52 82q12 16 31 16h34q16 0 20 -9t-6 -22l-97 -115q-11 -14 -31 -14zM188 466h8q55 74 139 85q26 3 26 -24v-74q0 -24 -25 -26q-75 -3 -113 -38.5t-34 -129.5l2 -234q0 -25 -25 -25h-73
q-25 0 -25 25l4 487q0 25 25 25h65q25 0 25 -25z" />
    <glyph glyph-name="Sacute" unicode="&#x15a;" horiz-adv-x="676" 
d="M457 926l-92 -114q-12 -15 -31 -15h-11q-15 0 -20 8.5t2 21.5l61 112q10 18 30 18h46q16 0 20.5 -9t-5.5 -22zM341 748q101 0 171 -49.5t100 -130.5q4 -13 -1.5 -20.5t-19.5 -7.5h-64q-19 0 -30 17q-56 85 -166 85q-66 0 -99.5 -24t-33.5 -64q0 -39 37 -65t132 -55
l32 -10q124 -38 178 -96t54 -135q0 -99 -74.5 -154t-199.5 -55q-129 0 -206.5 59t-100.5 139q-4 12 2.5 19.5t19.5 7.5h68q20 0 30 -18q53 -100 193 -100q146 0 146 86q0 42 -39 74t-132 63l-36 13q-111 36 -166.5 84.5t-59.5 124.5q-3 96 74 154t191 58z" />
    <glyph glyph-name="sacute" unicode="&#x15b;" horiz-adv-x="540" 
d="M389 732l-92 -114q-12 -15 -31 -15h-11q-15 0 -20 8.5t2 21.5l61 112q10 18 30 18h46q16 0 20.5 -9t-5.5 -22zM270 553q86 0 143 -42t74 -98q4 -12 -2 -19.5t-20 -7.5h-64q-18 0 -30 16q-37 48 -107 48q-40 0 -63.5 -17t-23.5 -42q0 -21 23.5 -34t83.5 -31l42 -12
q94 -26 134.5 -64.5t40.5 -93.5q0 -78 -60 -125t-158 -47q-94 0 -153 42t-83 108q-4 13 1.5 20.5t19.5 7.5h72q18 0 30 -18q36 -56 119 -56q92 0 92 57q0 24 -24.5 41t-84.5 34l-40 11q-83 23 -127 58t-44 95q0 73 60 121t149 48z" />
    <glyph glyph-name="Scedilla" unicode="&#x15e;" horiz-adv-x="676" 
d="M631 193q0 -97 -71 -151.5t-191 -57.5l-15 -42q71 -14 71 -84q0 -41 -27.5 -67.5t-78.5 -26.5q-34 0 -61 12q-21 9 -13 33l2 7q7 23 32 15q24 -8 40 -8q17 0 28 9t11 23q0 38 -59 38q-26 0 -18 28l20 66q-105 13 -168 69t-83 126q-4 12 2.5 19.5t19.5 7.5h68q20 0 30 -18
q53 -100 193 -100q146 0 146 86q0 42 -39 74t-132 63l-36 13q-111 36 -166.5 84.5t-59.5 124.5q-3 96 74 154t191 58q101 0 171 -49.5t100 -130.5q4 -13 -1.5 -20.5t-19.5 -7.5h-64q-19 0 -30 17q-56 85 -166 85q-66 0 -99.5 -24t-33.5 -64q0 -39 37 -65t132 -55l32 -10
q124 -38 178 -96t54 -135z" />
    <glyph glyph-name="scedilla" unicode="&#x15f;" horiz-adv-x="540" 
d="M501 156q0 -74 -54.5 -120.5t-145.5 -51.5l-15 -42q71 -14 71 -84q0 -41 -27.5 -67.5t-78.5 -26.5q-34 0 -61 12q-21 9 -13 33l2 7q7 23 32 15q24 -8 40 -8q17 0 28 9t11 23q0 38 -59 38q-26 0 -18 28l20 66q-73 11 -119.5 51t-66.5 96q-4 13 1.5 20.5t19.5 7.5h72
q18 0 30 -18q36 -56 119 -56q92 0 92 57q0 24 -24.5 41t-84.5 34l-40 11q-83 23 -127 58t-44 95q0 73 60 121t149 48q86 0 143 -42t74 -98q4 -12 -2 -19.5t-20 -7.5h-64q-18 0 -30 16q-37 48 -107 48q-40 0 -63.5 -17t-23.5 -42q0 -21 23.5 -34t83.5 -31l42 -12
q94 -26 134.5 -64.5t40.5 -93.5z" />
    <glyph glyph-name="Scaron" unicode="&#x160;" horiz-adv-x="676" 
d="M347 797h-20q-20 0 -31 14l-98 115q-10 13 -6 22t20 9h35q18 0 30 -16l57 -82h10l52 82q12 16 31 16h34q16 0 20 -9t-6 -22l-97 -115q-11 -14 -31 -14zM367 434l32 -10q124 -38 178 -96t54 -135q0 -99 -74.5 -154t-199.5 -55q-129 0 -206.5 59t-100.5 139q-4 12 2.5 19.5
t19.5 7.5h68q20 0 30 -18q53 -100 193 -100q146 0 146 86q0 42 -39 74t-132 63l-36 13q-111 36 -166.5 84.5t-59.5 124.5q-3 96 74 154t191 58q101 0 171 -49.5t100 -130.5q4 -13 -1.5 -20.5t-19.5 -7.5h-64q-19 0 -30 17q-56 85 -166 85q-66 0 -99.5 -24t-33.5 -64
q0 -39 37 -65t132 -55z" />
    <glyph glyph-name="scaron" unicode="&#x161;" horiz-adv-x="540" 
d="M280 602h-20q-20 0 -31 14l-98 115q-10 13 -6 22t20 9h35q18 0 30 -16l57 -82h10l52 82q12 16 31 16h34q16 0 20 -9t-6 -22l-97 -115q-11 -14 -31 -14zM284 326l42 -12q94 -26 134.5 -64.5t40.5 -93.5q0 -78 -60 -125t-158 -47q-94 0 -153 42t-83 108q-4 13 1.5 20.5
t19.5 7.5h72q18 0 30 -18q36 -56 119 -56q92 0 92 57q0 24 -24.5 41t-84.5 34l-40 11q-83 23 -127 58t-44 95q0 73 60 121t149 48q86 0 143 -42t74 -98q4 -12 -2 -19.5t-20 -7.5h-64q-18 0 -30 16q-37 48 -107 48q-40 0 -63.5 -17t-23.5 -42q0 -21 23.5 -34t83.5 -31z" />
    <glyph glyph-name="Tcedilla" unicode="&#x162;" horiz-adv-x="609" 
d="M593 707v-57q0 -25 -25 -25h-204l4 -600q0 -25 -25 -25h-1l-21 -58q71 -14 71 -84q0 -41 -27.5 -67.5t-78.5 -26.5q-34 0 -61 12q-21 9 -13 33l2 7q7 23 32 15q24 -8 40 -8q17 0 28 9t11 23q0 38 -59 38q-26 0 -18 28l24 79h-5q-25 0 -25 25l4 600h-204q-25 0 -25 25v57
q0 25 25 25h526q25 0 25 -25z" />
    <glyph glyph-name="tcedilla" unicode="&#x163;" horiz-adv-x="367" 
d="M344 512v-48q0 -25 -25 -25h-81l2 -414q0 -25 -25 -25h-5l-21 -58q71 -14 71 -84q0 -41 -27.5 -67.5t-78.5 -26.5q-34 0 -61 12q-21 9 -13 33l2 7q7 23 32 15q24 -8 40 -8q17 0 28 9t11 23q0 38 -59 38q-26 0 -18 28l24 79q-23 0 -23 25l2 414h-67q-25 0 -25 25v48
q0 25 25 25h68l1 179q0 25 25 25h65q25 0 25 -25l1 -179h82q25 0 25 -25z" />
    <glyph glyph-name="Tcaron" unicode="&#x164;" horiz-adv-x="609" 
d="M314 797h-20q-20 0 -31 14l-98 115q-10 13 -6 22t20 9h35q18 0 30 -16l57 -82h10l52 82q12 16 31 16h34q16 0 20 -9t-6 -22l-97 -115q-11 -14 -31 -14zM593 707v-57q0 -25 -25 -25h-204l4 -600q0 -25 -25 -25h-76q-25 0 -25 25l4 600h-204q-25 0 -25 25v57q0 25 25 25
h526q25 0 25 -25z" />
    <glyph glyph-name="tcaron" unicode="&#x165;" horiz-adv-x="367" 
d="M383 752h25q28 0 23 -27l-22 -121q-5 -23 -27 -23h-14q-26 0 -23 26l12 121q1 24 26 24zM237 537h82q25 0 25 -25v-48q0 -25 -25 -25h-81l2 -414q0 -25 -25 -25h-73q-25 0 -25 25l2 414h-67q-25 0 -25 25v48q0 25 25 25h68l1 179q0 25 25 25h65q25 0 25 -25z" />
    <glyph glyph-name="Umacron" unicode="&#x16a;" horiz-adv-x="744" 
d="M500 894v-21q0 -25 -25 -25h-205q-25 0 -25 25v21q0 25 25 25h205q25 0 25 -25zM678 707l2 -391q1 -159 -84.5 -245.5t-224.5 -86.5q-138 0 -223 86.5t-84 245.5l3 391q0 25 25 25h68q25 0 25 -25l2 -378q1 -121 49.5 -180t138.5 -59q181 0 182 239l3 378q0 25 25 25h68
q25 0 25 -25z" />
    <glyph glyph-name="umacron" unicode="&#x16b;" horiz-adv-x="591" 
d="M422 693v-21q0 -25 -25 -25h-205q-25 0 -25 25v21q0 25 25 25h205q25 0 25 -25zM518 512l5 -487q0 -25 -25 -25h-74q-26 0 -24 25l1 48h-8q-54 -89 -152 -89q-80 0 -127 56.5t-46 162.5l2 309q0 25 25 25h65q25 0 25 -25l2 -280q1 -136 94 -136q57 0 90.5 47t29.5 138
l3 231q0 25 25 25h64q25 0 25 -25z" />
    <glyph glyph-name="Uring" unicode="&#x16e;" horiz-adv-x="744" 
d="M373 977q43 0 72 -28t29 -73t-29 -73.5t-72 -28.5t-72.5 28.5t-29.5 73.5t29.5 73t72.5 28zM373 924q-21 0 -35 -13t-14 -35q0 -21 14 -35t35 -14t34.5 13.5t13.5 35.5t-13.5 35t-34.5 13zM678 707l2 -391q1 -159 -84.5 -245.5t-224.5 -86.5q-138 0 -223 86.5t-84 245.5
l3 391q0 25 25 25h68q25 0 25 -25l2 -378q1 -121 49.5 -180t138.5 -59q181 0 182 239l3 378q0 25 25 25h68q25 0 25 -25z" />
    <glyph glyph-name="uring" unicode="&#x16f;" horiz-adv-x="591" 
d="M294 776q43 0 72 -28t29 -73t-29 -73.5t-72 -28.5t-72.5 28.5t-29.5 73.5t29.5 73t72.5 28zM294 723q-21 0 -35 -13t-14 -35q0 -21 14 -35t35 -14q20 0 34 14t14 35q0 22 -13.5 35t-34.5 13zM518 512l5 -487q0 -25 -25 -25h-74q-26 0 -24 25l1 48h-8q-54 -89 -152 -89
q-80 0 -127 56.5t-46 162.5l2 309q0 25 25 25h65q25 0 25 -25l2 -280q1 -136 94 -136q57 0 90.5 47t29.5 138l3 231q0 25 25 25h64q25 0 25 -25z" />
    <glyph glyph-name="Uhungarumlaut" unicode="&#x170;" horiz-adv-x="744" 
d="M434 935l-92 -114q-12 -15 -31 -15h-11q-15 0 -20 8t2 22l61 112q10 18 30 18h46q16 0 20.5 -9t-5.5 -22zM600 935l-92 -114q-12 -15 -31 -15h-11q-15 0 -20 8t2 22l61 112q10 18 30 18h46q16 0 20.5 -9t-5.5 -22zM678 707l2 -391q1 -159 -84.5 -245.5t-224.5 -86.5
q-138 0 -223 86.5t-84 245.5l3 391q0 25 25 25h68q25 0 25 -25l2 -378q1 -121 49.5 -180t138.5 -59q181 0 182 239l3 378q0 25 25 25h68q25 0 25 -25z" />
    <glyph glyph-name="uhungarumlaut" unicode="&#x171;" horiz-adv-x="591" 
d="M355 734l-92 -114q-12 -15 -31 -15h-11q-15 0 -20 8.5t2 21.5l61 112q10 18 30 18h46q16 0 20.5 -9t-5.5 -22zM521 734l-92 -114q-12 -15 -31 -15h-11q-15 0 -20 8.5t2 21.5l61 112q10 18 30 18h46q16 0 20.5 -9t-5.5 -22zM518 512l5 -487q0 -25 -25 -25h-74
q-26 0 -24 25l1 48h-8q-54 -89 -152 -89q-80 0 -127 56.5t-46 162.5l2 309q0 25 25 25h65q25 0 25 -25l2 -280q1 -136 94 -136q57 0 90.5 47t29.5 138l3 231q0 25 25 25h64q25 0 25 -25z" />
    <glyph glyph-name="Wcircumflex" unicode="&#x174;" horiz-adv-x="985" 
d="M486 902l-52 -82q-12 -16 -31 -16h-34q-16 0 -20 9t6 22l97 115q11 14 31 14h20q20 0 31 -14l98 -115q10 -13 6 -22t-20 -9h-35q-18 0 -30 16l-57 82h-10zM883 732h63q29 0 22 -28l-183 -683q-6 -21 -28 -21h-94q-22 0 -28 21l-142 532l-143 -532q-6 -21 -28 -21h-94
q-22 0 -28 21l-183 683q-7 28 22 28h70q22 0 28 -21l135 -514h4l145 514q6 21 28 21h95q22 0 28 -21l133 -514h5l145 514q6 21 28 21z" />
    <glyph glyph-name="wcircumflex" unicode="&#x175;" horiz-adv-x="787" 
d="M387 701l-52 -82q-12 -16 -31 -16h-34q-16 0 -20 9t6 22l97 115q11 14 31 14h20q20 0 31 -14l98 -115q10 -13 6 -22t-20 -9h-35q-18 0 -30 16l-57 82h-10zM678 537h60q29 0 22 -28l-129 -488q-6 -21 -28 -21h-104q-22 0 -28 21l-75 293h-7l-74 -292q-4 -22 -27 -22h-106
q-22 0 -28 21l-128 488q-7 28 22 28h63q23 0 27 -22l94 -389h13l96 389q4 22 27 22h55q23 0 27 -22l94 -389h12l95 389q4 22 27 22z" />
    <glyph glyph-name="Ycircumflex" unicode="&#x176;" horiz-adv-x="613" 
d="M299 902l-52 -82q-12 -16 -31 -16h-34q-16 0 -20 9t6 22l97 115q11 14 31 14h20q20 0 31 -14l98 -115q10 -13 6 -22t-20 -9h-35q-18 0 -30 16l-57 82h-10zM368 295l3 -270q0 -25 -25 -25h-76q-25 0 -25 25l2 271l-221 406q-7 14 -2 22t20 8h76q21 0 29 -18l157 -295h8
l155 295q9 18 29 18h71q15 0 20 -8t-2 -22z" />
    <glyph glyph-name="ycircumflex" unicode="&#x177;" horiz-adv-x="555" 
d="M273 701l-52 -82q-12 -16 -31 -16h-34q-16 0 -20 9t6 22l97 115q11 14 31 14h20q20 0 31 -14l98 -115q10 -13 6 -22t-20 -9h-35q-18 0 -30 16l-57 82h-10zM444 537h62q14 0 19 -8t1 -21l-243 -708q-7 -20 -28 -20h-74q-31 0 -21 29l59 161l-190 538q-4 13 1 21t19 8h62
q21 0 29 -20l129 -385h8l139 385q7 20 28 20z" />
    <glyph glyph-name="Ydieresis" unicode="&#x178;" horiz-adv-x="613" 
d="M274 929v-65q0 -25 -25 -25h-42q-25 0 -25 25v65q0 25 25 25h42q25 0 25 -25zM434 929v-65q0 -25 -25 -25h-42q-25 0 -25 25v65q0 25 25 25h42q25 0 25 -25zM368 295l3 -270q0 -25 -25 -25h-76q-25 0 -25 25l2 271l-221 406q-7 14 -2 22t20 8h76q21 0 29 -18l157 -295h8
l155 295q9 18 29 18h71q15 0 20 -8t-2 -22z" />
    <glyph glyph-name="Zacute" unicode="&#x179;" horiz-adv-x="672" 
d="M454 926l-92 -114q-12 -15 -31 -15h-11q-15 0 -20 8.5t2 21.5l61 112q10 18 30 18h46q16 0 20.5 -9t-5.5 -22zM204 108h375q25 0 25 -25v-58q0 -25 -25 -25h-504q-25 0 -25 25v51q0 16 13 33l376 507v9h-342q-25 0 -25 25v57q0 25 25 25h472q25 0 25 -25v-48
q0 -19 -12 -33l-378 -511v-7z" />
    <glyph glyph-name="zacute" unicode="&#x17a;" horiz-adv-x="488" 
d="M354 732l-92 -114q-12 -15 -31 -15h-11q-15 0 -20 8.5t2 21.5l61 112q10 18 30 18h46q16 0 20.5 -9t-5.5 -22zM444 512v-57q-6 -15 -13 -24l-254 -327v-6h248q25 0 25 -25v-48q0 -25 -25 -25h-362q-25 0 -25 25v57q5 14 12 22l263 328v7h-241q-25 0 -25 25v48q0 25 25 25
h347q25 0 25 -25z" />
    <glyph glyph-name="Zdotaccent" unicode="&#x17b;" horiz-adv-x="672" 
d="M394 921v-65q0 -25 -25 -25h-65q-25 0 -25 25v65q0 25 25 25h65q25 0 25 -25zM204 108h375q25 0 25 -25v-58q0 -25 -25 -25h-504q-25 0 -25 25v51q0 16 13 33l376 507v9h-342q-25 0 -25 25v57q0 25 25 25h472q25 0 25 -25v-48q0 -19 -12 -33l-378 -511v-7z" />
    <glyph glyph-name="zdotaccent" unicode="&#x17c;" horiz-adv-x="488" 
d="M293 727v-65q0 -25 -25 -25h-65q-25 0 -25 25v65q0 25 25 25h65q25 0 25 -25zM444 512v-57q-6 -15 -13 -24l-254 -327v-6h248q25 0 25 -25v-48q0 -25 -25 -25h-362q-25 0 -25 25v57q5 14 12 22l263 328v7h-241q-25 0 -25 25v48q0 25 25 25h347q25 0 25 -25z" />
    <glyph glyph-name="Zcaron" unicode="&#x17d;" horiz-adv-x="672" 
d="M345 797h-20q-20 0 -31 14l-98 115q-10 13 -6 22t20 9h35q18 0 30 -16l57 -82h10l52 82q12 16 31 16h34q16 0 20 -9t-6 -22l-97 -115q-11 -14 -31 -14zM204 108h375q25 0 25 -25v-58q0 -25 -25 -25h-504q-25 0 -25 25v51q0 16 13 33l376 507v9h-342q-25 0 -25 25v57
q0 25 25 25h472q25 0 25 -25v-48q0 -19 -12 -33l-378 -511v-7z" />
    <glyph glyph-name="zcaron" unicode="&#x17e;" horiz-adv-x="488" 
d="M244 602h-20q-20 0 -31 14l-98 115q-10 13 -6 22t20 9h35q18 0 30 -16l57 -82h10l52 82q12 16 31 16h34q16 0 20 -9t-6 -22l-97 -115q-11 -14 -31 -14zM177 98h248q25 0 25 -25v-48q0 -25 -25 -25h-362q-25 0 -25 25v57q5 14 12 22l263 328v7h-241q-25 0 -25 25v48
q0 25 25 25h347q25 0 25 -25v-57q-6 -15 -13 -24l-254 -327v-6z" />
    <glyph glyph-name="Acaron" unicode="&#x1cd;" 
d="M353 798h-20q-20 0 -31 14l-98 115q-10 13 -6 22t20 9h35q18 0 30 -16l57 -82h10l52 82q12 16 31 16h34q16 0 20 -9t-6 -22l-97 -115q-11 -14 -31 -14zM474 213h-258l-68 -193q-7 -20 -28 -20h-79q-31 0 -20 29l259 683q7 20 28 20h75q21 0 28 -20l259 -683
q11 -29 -20 -29h-81q-21 0 -28 20zM436 320l-90 260l-92 -260h182z" />
    <glyph glyph-name="acaron" unicode="&#x1ce;" horiz-adv-x="576" 
d="M293 602h-20q-20 0 -31 14l-98 115q-10 13 -6 22t20 9h35q18 0 30 -16l57 -82h10l52 82q12 16 31 16h34q16 0 20 -9t-6 -22l-97 -115q-11 -14 -31 -14zM483 0h-69q-25 0 -25 25v56h-8q-28 -42 -74.5 -67t-105.5 -25q-73 0 -118 40.5t-45 111.5q0 90 78 135.5t241 57.5
l32 2v14q0 103 -105 103q-69 0 -101 -45q-11 -18 -29 -18h-64q-14 0 -19.5 7.5t-1.5 20.5q21 56 77 95.5t149 39.5q206 0 209 -216l4 -312q0 -25 -25 -25zM228 91q70 0 116.5 43.5t44.5 90.5v24l-30 -2q-207 -15 -207 -99q0 -27 19.5 -42t56.5 -15z" />
    <glyph glyph-name="Icaron" unicode="&#x1cf;" horiz-adv-x="376" 
d="M197 798h-20q-20 0 -31 14l-98 115q-10 13 -6 22t20 9h35q18 0 30 -16l57 -82h10l52 82q12 16 31 16h34q16 0 20 -9t-6 -22l-97 -115q-11 -14 -31 -14zM154 732h68q25 0 25 -25l4 -682q0 -25 -25 -25h-77q-25 0 -25 25l5 682q0 25 25 25z" />
    <glyph glyph-name="icaron" unicode="&#x1d0;" horiz-adv-x="279" 
d="M149 602h-20q-20 0 -31 14l-98 115q-10 13 -6 22t20 9h35q18 0 30 -16l57 -82h10l52 82q12 16 31 16h34q16 0 20 -9t-6 -22l-97 -115q-11 -14 -31 -14zM107 537h65q25 0 25 -25l4 -487q0 -25 -25 -25h-73q-25 0 -25 25l4 487q0 25 25 25z" />
    <glyph glyph-name="Ocaron" unicode="&#x1d1;" horiz-adv-x="798" 
d="M408 803h-20q-20 0 -31 14l-98 115q-10 13 -6 22t20 9h35q18 0 30 -16l57 -82h10l52 82q12 16 31 16h34q16 0 20 -9t-6 -22l-97 -115q-11 -14 -31 -14zM405 748q151 0 249.5 -103t98.5 -267q0 -170 -103 -282t-256 -112q-151 0 -250.5 107t-99.5 275q0 167 103 274.5
t258 107.5zM402 90q102 0 167.5 74t65.5 203q0 130 -67 203t-172 73q-103 0 -168 -70.5t-65 -198.5q0 -131 67 -207.5t172 -76.5z" />
    <glyph glyph-name="ocaron" unicode="&#x1d2;" horiz-adv-x="599" 
d="M308 602h-20q-20 0 -31 14l-98 115q-10 13 -6 22t20 9h35q18 0 30 -16l57 -82h10l52 82q12 16 31 16h34q16 0 20 -9t-6 -22l-97 -115q-11 -14 -31 -14zM304 553q111 0 184 -77.5t73 -200.5q0 -126 -76 -208.5t-190 -82.5q-111 0 -184 79.5t-73 202.5q0 126 75.5 206.5
t190.5 80.5zM307 89q60 0 98 47t38 126q0 86 -43.5 137t-108.5 51q-60 0 -98 -46.5t-38 -126.5q0 -84 43.5 -136t108.5 -52z" />
    <glyph glyph-name="Ucaron" unicode="&#x1d3;" horiz-adv-x="744" 
d="M382 803h-20q-20 0 -31 14l-98 115q-10 13 -6 22t20 9h35q18 0 30 -16l57 -82h10l52 82q12 16 31 16h34q16 0 20 -9t-6 -22l-97 -115q-11 -14 -31 -14zM678 707l2 -391q1 -159 -84.5 -245.5t-224.5 -86.5q-138 0 -223 86.5t-84 245.5l3 391q0 25 25 25h68q25 0 25 -25
l2 -378q1 -121 49.5 -180t138.5 -59q181 0 182 239l3 378q0 25 25 25h68q25 0 25 -25z" />
    <glyph glyph-name="ucaron" unicode="&#x1d4;" horiz-adv-x="591" 
d="M303 602h-20q-20 0 -31 14l-98 115q-10 13 -6 22t20 9h35q18 0 30 -16l57 -82h10l52 82q12 16 31 16h34q16 0 20 -9t-6 -22l-97 -115q-11 -14 -31 -14zM498 0h-74q-26 0 -24 25l1 48h-8q-54 -89 -152 -89q-80 0 -127 56.5t-46 162.5l2 309q0 25 25 25h65q25 0 25 -25
l2 -280q1 -136 94 -136q57 0 90.5 47t29.5 138l3 231q0 25 25 25h64q25 0 25 -25l5 -487q0 -25 -25 -25z" />
    <glyph glyph-name="dotlessj" unicode="&#x237;" horiz-adv-x="303" 
d="M212 512l4 -512q0 -65 -17.5 -109.5t-50.5 -67t-68.5 -32t-81.5 -11.5q-25 0 -25 25v54q0 24 25 26q53 2 73.5 20t21.5 85l4 522q0 25 25 25h65q25 0 25 -25z" />
    <glyph glyph-name="circumflex" unicode="&#x2c6;" horiz-adv-x="573" 
d="M327 749l98 -115q10 -13 6 -22t-20 -9h-35q-18 0 -30 16l-57 82h-10l-52 -82q-12 -16 -31 -16h-34q-16 0 -20 9t6 22l97 115q11 14 31 14h20q20 0 31 -14z" />
    <glyph glyph-name="caron" unicode="&#x2c7;" horiz-adv-x="573" 
d="M377 740h34q16 0 20 -9t-6 -22l-97 -115q-11 -14 -31 -14h-20q-20 0 -31 14l-98 115q-10 13 -6 22t20 9h35q18 0 30 -16l57 -82h10l52 82q12 16 31 16z" />
    <glyph glyph-name="breve" unicode="&#x2d8;" horiz-adv-x="538" 
d="M416 725q0 -67 -40 -100t-108 -33q-67 0 -106.5 33.5t-39.5 99.5q0 16 25 16h21q25 0 25 -16q0 -69 75 -69q76 0 76 69q0 16 25 16h22q25 0 25 -16z" />
    <glyph glyph-name="dotaccent" unicode="&#x2d9;" horiz-adv-x="359" 
d="M237 727v-65q0 -25 -25 -25h-65q-25 0 -25 25v65q0 25 25 25h65q25 0 25 -25z" />
    <glyph glyph-name="ring" unicode="&#x2da;" horiz-adv-x="448" 
d="M224 776q43 0 72 -28t29 -73t-29 -73.5t-72 -28.5t-72.5 28.5t-29.5 73.5t29.5 73t72.5 28zM224 723q-21 0 -35 -13t-14 -35q0 -21 14 -35t35 -14q20 0 34 14t14 35q0 22 -13.5 35t-34.5 13z" />
    <glyph glyph-name="tilde" unicode="&#x2dc;" horiz-adv-x="545" 
d="M215 744q23 0 43 -11.5t31 -25t23 -25t22 -11.5q18 0 23 31q3 25 25 25h15q27 0 25 -26q-12 -100 -88 -100q-27 0 -48 18.5t-37.5 36.5t-32.5 18q-22 0 -27 -32q-5 -24 -26 -24h-15q-27 0 -25 26q11 100 92 100z" />
    <glyph glyph-name="hungarumlaut" unicode="&#x2dd;" horiz-adv-x="602" 
d="M290 732l-92 -114q-12 -15 -31 -15h-11q-15 0 -20 8.5t2 21.5l61 112q10 18 30 18h46q16 0 20.5 -9t-5.5 -22zM456 732l-92 -114q-12 -15 -31 -15h-11q-15 0 -20 8.5t2 21.5l60 112q10 18 30 18h47q16 0 20.5 -9t-5.5 -22z" />
    <glyph glyph-name="Wgrave" unicode="&#x1e80;" horiz-adv-x="985" 
d="M520 804h-11q-19 0 -31 15l-92 114q-10 13 -5.5 22t20.5 9h46q20 0 30 -18l61 -112q7 -14 2 -22t-20 -8zM883 732h63q29 0 22 -28l-183 -683q-6 -21 -28 -21h-94q-22 0 -28 21l-142 532l-143 -532q-6 -21 -28 -21h-94q-22 0 -28 21l-183 683q-7 28 22 28h70q22 0 28 -21
l135 -514h4l145 514q6 21 28 21h95q22 0 28 -21l133 -514h5l145 514q6 21 28 21z" />
    <glyph glyph-name="wgrave" unicode="&#x1e81;" horiz-adv-x="787" 
d="M421 603h-11q-19 0 -31 15l-92 114q-10 13 -5.5 22t20.5 9h46q20 0 30 -18l61 -112q7 -13 2 -21.5t-20 -8.5zM678 537h60q29 0 22 -28l-129 -488q-6 -21 -28 -21h-104q-22 0 -28 21l-75 293h-7l-74 -292q-4 -22 -27 -22h-106q-22 0 -28 21l-128 488q-7 28 22 28h63
q23 0 27 -22l94 -389h13l96 389q4 22 27 22h55q23 0 27 -22l94 -389h12l95 389q4 22 27 22z" />
    <glyph glyph-name="Wacute" unicode="&#x1e82;" horiz-adv-x="985" 
d="M611 933l-92 -114q-12 -15 -31 -15h-11q-15 0 -20 8t2 22l61 112q10 18 30 18h46q16 0 20.5 -9t-5.5 -22zM883 732h63q29 0 22 -28l-183 -683q-6 -21 -28 -21h-94q-22 0 -28 21l-142 532l-143 -532q-6 -21 -28 -21h-94q-22 0 -28 21l-183 683q-7 28 22 28h70q22 0 28 -21
l135 -514h4l145 514q6 21 28 21h95q22 0 28 -21l133 -514h5l145 514q6 21 28 21z" />
    <glyph glyph-name="wacute" unicode="&#x1e83;" horiz-adv-x="787" 
d="M512 732l-92 -114q-12 -15 -31 -15h-11q-15 0 -20 8.5t2 21.5l61 112q10 18 30 18h46q16 0 20.5 -9t-5.5 -22zM678 537h60q29 0 22 -28l-129 -488q-6 -21 -28 -21h-104q-22 0 -28 21l-75 293h-7l-74 -292q-4 -22 -27 -22h-106q-22 0 -28 21l-128 488q-7 28 22 28h63
q23 0 27 -22l94 -389h13l96 389q4 22 27 22h55q23 0 27 -22l94 -389h12l95 389q4 22 27 22z" />
    <glyph glyph-name="Wdieresis" unicode="&#x1e84;" horiz-adv-x="985" 
d="M461 929v-65q0 -25 -25 -25h-42q-25 0 -25 25v65q0 25 25 25h42q25 0 25 -25zM621 929v-65q0 -25 -25 -25h-42q-25 0 -25 25v65q0 25 25 25h42q25 0 25 -25zM883 732h63q29 0 22 -28l-183 -683q-6 -21 -28 -21h-94q-22 0 -28 21l-142 532l-143 -532q-6 -21 -28 -21h-94
q-22 0 -28 21l-183 683q-7 28 22 28h70q22 0 28 -21l135 -514h4l145 514q6 21 28 21h95q22 0 28 -21l133 -514h5l145 514q6 21 28 21z" />
    <glyph glyph-name="wdieresis" unicode="&#x1e85;" horiz-adv-x="787" 
d="M361 728v-65q0 -25 -25 -25h-42q-25 0 -25 25v65q0 25 25 25h42q25 0 25 -25zM521 728v-65q0 -25 -25 -25h-42q-25 0 -25 25v65q0 25 25 25h42q25 0 25 -25zM678 537h60q29 0 22 -28l-129 -488q-6 -21 -28 -21h-104q-22 0 -28 21l-75 293h-7l-74 -292q-4 -22 -27 -22
h-106q-22 0 -28 21l-128 488q-7 28 22 28h63q23 0 27 -22l94 -389h13l96 389q4 22 27 22h55q23 0 27 -22l94 -389h12l95 389q4 22 27 22z" />
    <glyph glyph-name="Ygrave" unicode="&#x1ef2;" horiz-adv-x="613" 
d="M334 804h-11q-19 0 -31 15l-92 114q-10 13 -5.5 22t20.5 9h46q20 0 30 -18l61 -112q7 -14 2 -22t-20 -8zM368 295l3 -270q0 -25 -25 -25h-76q-25 0 -25 25l2 271l-221 406q-7 14 -2 22t20 8h76q21 0 29 -18l157 -295h8l155 295q9 18 29 18h71q15 0 20 -8t-2 -22z" />
    <glyph glyph-name="ygrave" unicode="&#x1ef3;" horiz-adv-x="555" 
d="M308 603h-11q-19 0 -31 15l-92 114q-10 13 -5.5 22t20.5 9h46q20 0 30 -18l61 -112q7 -13 2 -21.5t-20 -8.5zM444 537h62q14 0 19 -8t1 -21l-243 -708q-7 -20 -28 -20h-74q-31 0 -21 29l59 161l-190 538q-4 13 1 21t19 8h62q21 0 29 -20l129 -385h8l139 385q7 20 28 20z
" />
    <glyph glyph-name="endash" unicode="&#x2013;" horiz-adv-x="744" 
d="M657 309v-54q0 -25 -25 -25h-520q-25 0 -25 25v54q0 25 25 25h520q25 0 25 -25z" />
    <glyph glyph-name="emdash" unicode="&#x2014;" horiz-adv-x="934" 
d="M848 309v-54q0 -25 -25 -25h-711q-25 0 -25 25v54q0 25 25 25h711q25 0 25 -25z" />
    <glyph glyph-name="quoteleft" unicode="&#x2018;" horiz-adv-x="344" 
d="M127 451v65q0 77 17.5 125.5t58.5 89.5q16 15 35 5q21 -11 7 -35q-30 -44 -31 -81t32 -61q18 -12 18 -30v-78q0 -25 -25 -25h-87q-25 0 -25 25z" />
    <glyph glyph-name="quoteright" unicode="&#x2019;" horiz-adv-x="261" 
d="M218 712v-65q0 -76 -18 -125t-59 -89q-14 -16 -34 -5q-23 12 -7 34q31 44 31.5 81.5t-33.5 61.5q-18 11 -18 29v78q0 25 25 25h88q25 0 25 -25z" />
    <glyph glyph-name="quotesinglbase" unicode="&#x201a;" horiz-adv-x="300" 
d="M258 97v-65q0 -76 -18 -125t-58 -90q-16 -15 -35 -5q-22 12 -7 35q31 44 31.5 81t-33.5 62q-18 11 -18 29v78q0 25 25 25h88q25 0 25 -25z" />
    <glyph glyph-name="quotedblleft" unicode="&#x201c;" horiz-adv-x="572" 
d="M126 451v65q0 76 18 125t58 90q16 15 35 5q22 -12 7 -35q-31 -44 -31.5 -81t33.5 -62q18 -10 18 -29v-78q0 -25 -25 -25h-88q-25 0 -25 25zM354 451v65q0 76 18 125t58 90q16 15 35 5q22 -12 7 -35q-31 -44 -31.5 -81t33.5 -62q18 -10 18 -29v-78q0 -25 -25 -25h-88
q-25 0 -25 25z" />
    <glyph glyph-name="quotedblright" unicode="&#x201d;" horiz-adv-x="489" 
d="M218 707v-65q0 -76 -18 -125t-58 -90q-16 -15 -35 -5q-21 11 -7 35q31 44 31.5 81t-33.5 62q-18 10 -18 29v78q0 25 25 25h88q25 0 25 -25zM446 707v-65q0 -76 -18 -125t-58 -90q-16 -15 -35 -5q-21 11 -7 35q31 44 31.5 81t-33.5 62q-18 10 -18 29v78q0 25 25 25h88
q25 0 25 -25z" />
    <glyph glyph-name="quotedblbase" unicode="&#x201e;" horiz-adv-x="300" 
d="M145 122h88q25 0 25 -25v-65q0 -76 -18 -125t-58 -90q-16 -15 -35 -5q-22 12 -7 35q31 44 31.5 81t-33.5 62q-18 11 -18 29v78q0 25 25 25z" />
    <glyph glyph-name="dagger" unicode="&#x2020;" horiz-adv-x="659" 
d="M539 316v-43q0 -25 -25 -25h-136l2 -447q0 -25 -25 -25h-52q-25 0 -25 25l3 447h-136q-25 0 -25 25v43q0 25 25 25h137l1 175q0 25 25 25h43q25 0 25 -25l1 -175h137q25 0 25 -25z" />
    <glyph glyph-name="daggerdbl" unicode="&#x2021;" horiz-adv-x="659" 
d="M377 248v-154h137q25 0 25 -25v-43q0 -25 -25 -25h-137l1 -200q0 -25 -25 -25h-47q-25 0 -25 25l1 200h-137q-25 0 -25 25v43q0 25 25 25h137v154h-137q-25 0 -25 25v43q0 25 25 25h137l1 175q0 25 25 25h43q25 0 25 -25l1 -175h137q25 0 25 -25v-43q0 -25 -25 -25h-137z
" />
    <glyph glyph-name="bullet" unicode="&#x2022;" horiz-adv-x="561" 
d="M281 448q65 0 111.5 -46t46.5 -112t-46.5 -112t-111.5 -46q-66 0 -112.5 46t-46.5 112t46.5 112t112.5 46z" />
    <glyph glyph-name="ellipsis" unicode="&#x2026;" horiz-adv-x="998" 
d="M260 123v-76q0 -25 -25 -25h-88q-25 0 -25 25v76q0 25 25 25h88q25 0 25 -25zM565 123v-76q0 -25 -25 -25h-88q-25 0 -25 25v76q0 25 25 25h88q25 0 25 -25zM871 123v-76q0 -25 -25 -25h-88q-25 0 -25 25v76q0 25 25 25h88q25 0 25 -25z" />
    <glyph glyph-name="perthousand" unicode="&#x2030;" horiz-adv-x="1172" 
d="M200 784q64 0 109.5 -45t45.5 -110t-45.5 -110t-109.5 -45q-65 0 -110.5 45.5t-45.5 109.5t45.5 109.5t110.5 45.5zM707 700l-488 -684q-12 -16 -30 -16h-57q-15 0 -19.5 8.5t4.5 21.5l489 684q12 16 30 16h56q15 0 19.5 -8.5t-4.5 -21.5zM200 697q-28 0 -48 -19.5
t-20 -48.5q0 -28 20 -48t48 -20t48 20t20 48t-20 48t-48 20zM621 333q65 0 110.5 -45.5t45.5 -110.5q0 -64 -46 -109.5t-110 -45.5t-109.5 45.5t-45.5 109.5t45.5 110t109.5 46zM973 333q64 0 109.5 -45.5t45.5 -110.5q0 -64 -45.5 -109.5t-109.5 -45.5t-110 45.5t-46 109.5
q0 65 45.5 110.5t110.5 45.5zM621 246q-28 0 -48 -20t-20 -49q0 -27 20 -47.5t48 -20.5t48.5 20.5t20.5 47.5q0 28 -20.5 48.5t-48.5 20.5zM973 246q-29 0 -49 -20t-20 -49q0 -27 20.5 -47.5t48.5 -20.5t48 20.5t20 47.5q0 28 -20 48.5t-48 20.5z" />
    <glyph glyph-name="guilsinglleft" unicode="&#x2039;" horiz-adv-x="449" 
d="M324 423v-44q0 -18 -16 -30l-109 -70l109 -70q16 -12 16 -30v-43q0 -15 -8.5 -19.5t-21.5 3.5l-154 99q-16 12 -16 30v60q0 18 16 30l154 100q13 8 21.5 3.5t8.5 -19.5z" />
    <glyph glyph-name="guilsinglright" unicode="&#x203a;" horiz-adv-x="449" 
d="M154 439l154 -99q16 -12 16 -30v-60q0 -18 -16 -30l-154 -100q-13 -8 -21.5 -3.5t-8.5 19.5v44q0 18 16 30l109 70l-109 70q-16 12 -16 30v43q0 15 8.5 20t21.5 -4z" />
    <glyph glyph-name="zerosuperior" unicode="&#x2070;" horiz-adv-x="317" 
d="M161 737q50 0 81 -35.5t31 -99.5q0 -66 -32 -103t-83 -37t-82.5 36t-31.5 101t32.5 101.5t84.5 36.5zM156 670q-38 0 -38 -68q0 -39 13 -56t30 -17q38 0 38 69q0 38 -12.5 55t-30.5 17z" />
    <glyph glyph-name="foursuperior" unicode="&#x2074;" horiz-adv-x="345" 
d="M300 535v-7q0 -25 -25 -25h-28v-11q0 -25 -25 -25h-21q-25 0 -25 25v11h-107q-25 0 -25 25v18q0 25 8 35l115 140q9 11 20 11h34q25 0 25 -25l1 -147h28q25 0 25 -25zM177 560v81h-2l-64 -79v-2h66z" />
    <glyph glyph-name="fivesuperior" unicode="&#x2075;" horiz-adv-x="317" 
d="M188 649q36 0 60.5 -23.5t24.5 -63.5q0 -44 -29.5 -72t-84.5 -28q-83 0 -109 58q-5 12 2 19.5t20 7.5h27q13 0 31 -15q12 -9 33 -9q35 0 35 31q0 33 -36 33q-14 0 -26 -3q-27 -5 -31 -5h-27q-27 0 -24 26l11 103q3 24 27 24h146q25 0 25 -25v-11q0 -25 -25 -25h-108
l-5 -37h6q24 15 57 15z" />
    <glyph glyph-name="sixsuperior" unicode="&#x2076;" horiz-adv-x="321" 
d="M185 635q41 0 66.5 -23t25.5 -59q0 -41 -33.5 -66t-78.5 -25q-54 0 -89 34t-35 100q0 63 34 102t90 39q71 0 100 -52q6 -12 -0.5 -20t-20.5 -8h-22q-11 0 -31 13q-12 7 -25 7q-43 0 -50 -57h4q32 15 65 15zM171 522q32 0 32 26q0 31 -37 31q-26 0 -48 -11q11 -46 53 -46z
" />
    <glyph glyph-name="sevensuperior" unicode="&#x2077;" horiz-adv-x="309" 
d="M69 732h171q25 0 25 -25v-13q0 -8 -9 -26q-50 -89 -87 -181q-9 -20 -29 -20h-36q-14 0 -19.5 8.5t1.5 21.5q51 103 91 164v6l-108 -1q-25 0 -25 25v16q0 25 25 25z" />
    <glyph glyph-name="eightsuperior" unicode="&#x2078;" horiz-adv-x="306" 
d="M153 737q45 0 73.5 -21.5t28.5 -53.5q0 -39 -38 -55v-3q20 -7 34 -24t14 -41q0 -34 -29.5 -55.5t-81.5 -21.5t-82.5 21.5t-30.5 55.5q0 45 50 65v4q-39 12 -39 52q0 33 28 55t73 22zM153 683q-34 0 -34 -24t34 -24t34 24t-34 24zM153 572q-19 0 -29.5 -8t-10.5 -20
q0 -30 40 -30t40 30q0 28 -40 28z" />
    <glyph glyph-name="ninesuperior" unicode="&#x2079;" horiz-adv-x="350" 
d="M185 737q53 0 88 -34t35 -100q0 -64 -34.5 -102.5t-93.5 -38.5q-72 0 -102 52q-6 12 0 20t20 8l21 1q9 0 31 -14q11 -7 29 -7q47 0 55 57h-5q-27 -15 -65 -15q-42 0 -67 22.5t-25 60.5q0 41 33 65.5t80 24.5zM183 621q28 0 48 10q-11 48 -53 48q-33 0 -33 -27
q0 -31 38 -31z" />
    <glyph glyph-name="euro" unicode="&#x20ac;" horiz-adv-x="729" 
d="M488 90q65 0 130 26q25 11 31 -16l11 -47q5 -22 -14 -32q-74 -37 -168 -37q-128 0 -217.5 68.5t-122.5 184.5h-69q-25 0 -25 25v43q0 25 25 25h54q-1 10 -1 32q0 24 1 36h-54q-25 0 -25 25v43q0 25 25 25h70q34 120 125 189.5t216 69.5q90 0 165 -37q20 -10 14 -33
l-15 -52q-7 -26 -32 -15q-73 32 -142 32q-75 0 -131.5 -39.5t-81.5 -114.5l213 -1q25 0 25 -25v-43q0 -25 -25 -25l-229 1l-1 -24q0 -16 2 -44l228 -1q25 0 25 -25v-42q0 -25 -25 -25h-206q29 -71 87 -109t137 -38z" />
    <glyph glyph-name="trademark" unicode="&#x2122;" horiz-adv-x="674" 
d="M294 707v-3q0 -25 -25 -25h-53v-182q0 -25 -25 -25h-9q-25 0 -25 25v182l-52 -1q-25 0 -25 25v4q0 25 25 25h164q25 0 25 -25zM585 707l8 -210q2 -25 -25 -25h-5q-24 0 -26 25l-4 143h-4l-36 -146q-4 -22 -27 -22h-13q-22 0 -28 21l-38 147h-5l-3 -143q-2 -25 -26 -25h-5
q-27 0 -25 25l8 210q1 25 26 25h35q23 0 27 -22l38 -151h4l39 152q6 21 28 21h31q25 0 26 -25z" />
    <glyph glyph-name="minus" unicode="&#x2212;" horiz-adv-x="811" 
d="M741 293v-54q0 -25 -25 -25h-521q-25 0 -25 25v54q0 25 25 25h521q25 0 25 -25z" />
    <glyph glyph-name="infinity" unicode="&#x221e;" horiz-adv-x="1076" 
d="M757 516q87 0 143 -63t56 -157t-57.5 -155t-154.5 -61q-60 0 -108 28t-106 96q-104 -124 -211 -124q-87 0 -143 63t-56 156q0 94 57.5 155.5t154.5 61.5q60 0 108.5 -28t106.5 -96q100 124 210 124zM332 195q65 0 140 104q-40 60 -72 84t-69 24q-43 0 -68.5 -27.5
t-25.5 -71.5q0 -52 25.5 -82.5t69.5 -30.5zM744 189q43 0 68.5 27t25.5 72q0 52 -25.5 82.5t-68.5 30.5q-65 0 -140 -104q41 -60 72.5 -84t67.5 -24z" />
    <glyph glyph-name="notequal" unicode="&#x2260;" horiz-adv-x="770" 
d="M486 319l-61 -130h199q25 0 25 -25v-48q0 -25 -25 -25h-244l-59 -126q-9 -19 -30 -19h-54q-14 0 -19 8t1 21l54 116h-128q-25 0 -25 25v48q0 25 25 25h174l60 130h-234q-25 0 -25 25v49q0 25 25 25h281l58 125q9 19 30 19h53q14 0 19 -8t-1 -21l-53 -115h92q25 0 25 -25
v-49q0 -25 -25 -25h-138z" />
    <glyph glyph-name="lessequal" unicode="&#x2264;" horiz-adv-x="660" 
d="M540 477v-39q0 -22 -21 -29l-269 -88l269 -85q21 -7 21 -29v-37q0 -29 -28 -21l-372 122q-20 8 -20 29v42q0 21 20 28l371 127q13 4 21 -1t8 -19zM120 33v37q0 25 25 25h370q25 0 25 -25v-37q0 -25 -25 -25h-370q-25 0 -25 25z" />
    <glyph glyph-name="greaterequal" unicode="&#x2265;" horiz-adv-x="660" 
d="M149 497l371 -127q20 -7 20 -28v-42q0 -21 -20 -29l-372 -122q-28 -8 -28 21v37q0 21 21 29l269 85l-269 88q-21 7 -21 29v39q0 14 8 19t21 1zM120 33v37q0 25 25 25h370q25 0 25 -25v-37q0 -25 -25 -25h-370q-25 0 -25 25z" />
    <glyph glyph-name="apple" unicode="&#xf8ff;" horiz-adv-x="566" 
d="M364 530q12 4 19.5 -3t5.5 -20q-6 -33 -28 -56q-23 -30 -54 -37q-11 -3 -18.5 3.5t-5.5 18.5q4 30 27 59q23 26 54 35zM388 405q50 0 83 -33q16 -16 -4 -35q-39 -37 -39 -88q2 -61 53 -97q20 -14 12 -33q-13 -30 -30 -53q-20 -32 -38.5 -49.5t-43.5 -17.5q-16 0 -41 11
t-46 11q-23 0 -48 -11t-40 -11q-17 0 -34 11.5t-27 23.5t-25 33q-54 78 -56 175q0 54 23 96q40 65 111 67q19 1 49 -11.5t39 -12.5q7 0 42.5 12t59.5 12z" />
    <glyph glyph-name="idotaccent" horiz-adv-x="279" 
d="M198 727v-65q0 -25 -25 -25h-65q-25 0 -25 25v65q0 25 25 25h65q25 0 25 -25zM197 512l4 -487q0 -25 -25 -25h-73q-25 0 -25 25l4 487q0 25 25 25h65q25 0 25 -25z" />
    <glyph glyph-name="braceleft.case" horiz-adv-x="466" 
d="M396 825v-48q0 -25 -22 -25q-52 0 -76 -25t-24 -87v-144q0 -104 -60 -135v-8q60 -27 60 -143v-137q0 -61 23.5 -86t76.5 -25q22 0 22 -25v-49q0 -25 -25 -25h-12q-101 0 -147.5 47.5t-46.5 157.5v121q0 57 -9 83.5t-36 32.5q-24 6 -24 26v52q0 20 24 26q27 6 36 32.5
t9 83.5v125q0 109 46.5 154.5t147.5 45.5h12q25 0 25 -25z" />
    <glyph glyph-name="braceright.case" horiz-adv-x="466" 
d="M70 -112v49q0 25 22 25q53 0 76.5 25t23.5 86v145q0 103 60 134v8q-60 27 -60 144v136q0 62 -24 87t-76 25q-22 0 -22 25v48q0 25 25 25h12q101 0 147.5 -47.5t46.5 -157.5v-121q0 -57 9 -83t36 -32q24 -6 24 -26v-53q0 -20 -24 -26q-27 -6 -36 -32.5t-9 -83.5v-124
q0 -109 -46.5 -155t-147.5 -46h-12q-25 0 -25 25z" />
    <glyph glyph-name="bracketleft.case" horiz-adv-x="438" 
d="M201 737l5 -764h137q25 0 25 -25v-43q0 -25 -25 -25h-222q-25 0 -25 25l4 900q0 25 25 25h218q25 0 25 -25v-43q0 -25 -25 -25h-142z" />
    <glyph glyph-name="bracketright.case" horiz-adv-x="438" 
d="M95 830h223q25 0 25 -25l-5 -900q0 -25 -25 -25h-218q-25 0 -25 25v43q0 25 25 25h142l-4 764h-138q-25 0 -25 25v43q0 25 25 25z" />
    <glyph glyph-name="parenleft.case" horiz-adv-x="437" 
d="M321 836l16 -12q20 -14 6 -34q-117 -176 -117 -432t117 -433q14 -20 -7 -34l-15 -11q-19 -14 -35 2q-87 86 -137.5 211.5t-50.5 264.5t50.5 264.5t137.5 210.5q15 17 35 3z" />
    <glyph glyph-name="parenright.case" horiz-adv-x="437" 
d="M115 -120l-15 11q-20 14 -6 34q117 177 117 433t-117 432q-14 20 6 35l15 11q19 14 35 -2q88 -86 138.5 -211.5t50.5 -264.5q0 -140 -50.5 -265t-138.5 -211q-16 -16 -35 -2z" />
    <glyph glyph-name="guillemetleft.case" horiz-adv-x="681" 
d="M124 349v60q0 18 16 30l154 100q13 8 21.5 3.5t8.5 -19.5v-44q0 -18 -16 -30l-109 -70l109 -70q16 -12 16 -30v-43q0 -15 -8.5 -19.5t-21.5 3.5l-154 99q-16 12 -16 30zM557 523v-44q0 -18 -16 -30l-109 -70l109 -70q16 -12 16 -30v-43q0 -15 -8.5 -19.5t-21.5 3.5
l-154 99q-16 12 -16 30v60q0 18 16 30l154 100q13 8 21.5 3.5t8.5 -19.5z" />
    <glyph glyph-name="guillemetright.case" horiz-adv-x="681" 
d="M124 480v43q0 15 8.5 19.5t21.5 -3.5l154 -99q16 -12 16 -30v-60q0 -18 -16 -30l-154 -100q-13 -8 -21.5 -3.5t-8.5 19.5v44q0 18 16 30l109 70l-109 70q-16 12 -16 30zM387 539l154 -99q16 -12 16 -30v-60q0 -18 -16 -30l-154 -100q-13 -8 -21.5 -3.5t-8.5 19.5v44
q0 18 16 30l109 70l-109 70q-16 12 -16 30v43q0 15 8.5 20t21.5 -4z" />
    <glyph glyph-name="guilsinglleft.case" horiz-adv-x="449" 
d="M324 523v-44q0 -18 -16 -30l-109 -70l109 -70q16 -12 16 -30v-43q0 -15 -8.5 -19.5t-21.5 3.5l-154 99q-16 12 -16 30v60q0 18 16 30l154 100q13 8 21.5 3.5t8.5 -19.5z" />
    <glyph glyph-name="guilsinglright.case" horiz-adv-x="449" 
d="M154 539l154 -99q16 -12 16 -30v-60q0 -18 -16 -30l-154 -100q-13 -8 -21.5 -3.5t-8.5 19.5v44q0 18 16 30l109 70l-109 70q-16 12 -16 30v43q0 15 8.5 20t21.5 -4z" />
    <glyph glyph-name="caron.alt" horiz-adv-x="338" 
d="M211 735l-22 -121q-5 -23 -27 -23h-14q-26 0 -23 26l12 121q1 24 26 24h25q28 0 23 -27z" />
    </font>
</defs>
</svg>
