<?xml version="1.0" standalone="no"?>
<!DOCTYPE svg PUBLIC "-//W3C//DTD SVG 1.1//EN" "http://www.w3.org/Graphics/SVG/1.1/DTD/svg11.dtd" >
<svg>
<metadata>
Created by FontForge 20090622 at Thu Jul 13 08:55:43 2017
 By deploy user
Copyright (c) 2011 by Vincenzo Vuono. All rights reserved.
</metadata>
<defs>
<font id="Gravity-Regular" horiz-adv-x="664" >
  <font-face 
    font-family="Gravity"
    font-weight="400"
    font-stretch="normal"
    units-per-em="1000"
    panose-1="0 0 5 0 0 0 0 0 0 0"
    ascent="800"
    descent="-200"
    x-height="531"
    cap-height="727"
    bbox="-22 -245 1056 970"
    underline-thickness="70"
    underline-position="-150"
    unicode-range="U+0020-U+F8FF"
  />
<missing-glyph horiz-adv-x="680" 
d="M583 707v-688q0 -20 -20 -20h-446q-20 0 -20 20v688q0 20 20 20h446q20 0 20 -20zM186 672l154 -257l153 257h-307zM156 112l146 251l-146 252v-503zM378 363l146 -252v504zM186 54l308 1l-154 255z" />
    <glyph glyph-name=".notdef" horiz-adv-x="680" 
d="M583 707v-688q0 -20 -20 -20h-446q-20 0 -20 20v688q0 20 20 20h446q20 0 20 -20zM186 672l154 -257l153 257h-307zM156 112l146 251l-146 252v-503zM378 363l146 -252v504zM186 54l308 1l-154 255z" />
    <glyph glyph-name=".null" horiz-adv-x="0" 
 />
    <glyph glyph-name="nonmarkingreturn" horiz-adv-x="333" 
 />
    <glyph glyph-name="space" unicode=" " horiz-adv-x="207" 
 />
    <glyph glyph-name="exclam" unicode="!" horiz-adv-x="334" 
d="M213 712l3 -470q0 -20 -20 -20h-51q-20 0 -20 20l3 470q0 20 20 20h45q20 0 20 -20zM218 89v-69q0 -20 -20 -20h-62q-20 0 -20 20v69q0 20 20 20h62q20 0 20 -20z" />
    <glyph glyph-name="quotedbl" unicode="&#x22;" horiz-adv-x="455" 
d="M217 719l-33 -208q-3 -18 -22 -18h-30q-21 0 -18 21l27 207q1 19 21 19h36q22 0 19 -21zM381 718l-34 -207q-3 -18 -22 -18h-29q-21 0 -18 21l26 207q1 19 21 19h37q22 0 19 -22z" />
    <glyph glyph-name="numbersign" unicode="#" horiz-adv-x="751" 
d="M543 458l-29 -141h123q21 0 18 -22l-6 -29q-5 -18 -22 -18h-127l-47 -230q-5 -18 -22 -18h-35q-22 0 -17 22l47 226h-161l-47 -230q-4 -18 -22 -18h-34q-22 0 -17 22l47 226h-120q-22 0 -17 22l6 29q5 18 22 18h123l29 141h-120q-21 0 -18 22l6 29q5 18 22 18h125l38 186
q4 18 22 18h32q21 0 18 -22l-38 -182h162l39 186q5 18 22 18h32q21 0 18 -22l-38 -182h122q21 0 18 -22l-6 -29q-5 -18 -22 -18h-126zM470 458h-162l-29 -141h161z" />
    <glyph glyph-name="dollar" unicode="$" horiz-adv-x="628" 
d="M581 204q0 -82 -62.5 -129.5t-169.5 -51.5l3 -112q0 -20 -20 -20h-36q-20 0 -20 20l3 115q-95 12 -151.5 59t-75.5 107q-6 22 18 22h43q17 0 24 -15q53 -105 200 -105q76 0 117 26t41 73q0 45 -40.5 76.5t-131.5 60.5l-39 12q-103 31 -154 72t-53 108q-2 73 54.5 119.5
t147.5 55.5l-3 113q0 20 20 20h36q20 0 20 -20l-3 -113q80 -7 134.5 -47.5t78.5 -98.5q8 -23 -17 -23h-41q-16 0 -24 14q-53 86 -172 86q-70 0 -107.5 -26t-37.5 -69q0 -42 37.5 -67.5t128.5 -51.5l38 -11q113 -33 163.5 -81.5t50.5 -117.5z" />
    <glyph glyph-name="percent" unicode="%" horiz-adv-x="785" 
d="M186 771q58 0 98.5 -40.5t40.5 -98.5t-40.5 -99t-98.5 -41t-99 41t-41 99t41 98.5t99 40.5zM658 706l-476 -693q-9 -13 -24 -13h-40q-12 0 -15.5 7t3.5 17l477 693q9 13 24 13h39q12 0 15.5 -7t-3.5 -17zM186 706q-31 0 -52.5 -21.5t-21.5 -52.5q0 -30 21.5 -52t52.5 -22
q30 0 51.5 22t21.5 52q0 31 -21.5 52.5t-51.5 21.5zM599 294q58 0 98.5 -40.5t40.5 -98.5t-40.5 -98.5t-98.5 -40.5t-98.5 40.5t-40.5 98.5t40.5 98.5t98.5 40.5zM599 229q-31 0 -52.5 -21.5t-21.5 -52.5q0 -30 21.5 -52t52.5 -22q30 0 52 22t22 52q0 31 -22 52.5t-52 21.5z
" />
    <glyph glyph-name="ampersand" unicode="&#x26;" horiz-adv-x="734" 
d="M655 0h-64q-15 0 -25 11l-36 42q-84 -70 -212 -70q-111 0 -180 52t-69 138q0 66 41.5 116.5t125.5 100.5q-44 52 -64.5 93t-20.5 87q0 76 51 125.5t136 49.5q84 0 132 -48t48 -121q0 -61 -37 -109.5t-119 -100.5l160 -179q12 35 12 79q0 24 -2 39q-3 21 18 21h43
q19 0 22 -18q4 -21 4 -49q0 -80 -36 -141l83 -93q9 -10 5.5 -17.5t-16.5 -7.5zM337 670q-47 0 -75 -28.5t-28 -68.5q0 -58 79 -150q62 41 91.5 74.5t29.5 75.5q0 41 -25.5 69t-71.5 28zM323 61q98 0 154 53l-191 218q-68 -41 -99 -78t-31 -77q0 -52 45 -84t122 -32z" />
    <glyph glyph-name="quotesingle" unicode="'" horiz-adv-x="292" 
d="M217 719l-33 -208q-3 -18 -22 -18h-30q-21 0 -18 21l27 207q1 19 21 19h36q22 0 19 -21z" />
    <glyph glyph-name="parenleft" unicode="(" horiz-adv-x="428" 
d="M322 736l9 -6q16 -12 4 -28q-136 -181 -136 -444t136 -444q13 -16 -4 -28l-9 -6q-14 -10 -28 2q-88 86 -139 211.5t-51 264.5q0 140 51 265.5t139 211.5q14 12 28 1z" />
    <glyph glyph-name="parenright" unicode=")" horiz-adv-x="428" 
d="M106 -220l-9 6q-17 12 -4 28q136 181 136 444t-136 444q-12 16 4 28l9 7q14 10 28 -2q89 -86 139.5 -211.5t50.5 -265.5t-50.5 -265t-139.5 -211q-14 -12 -28 -2z" />
    <glyph glyph-name="asterisk" unicode="*" horiz-adv-x="446" 
d="M365 502l-12 -22q-11 -17 -28 -6l-87 64l-5 -94q-2 -20 -21 -19l-24 2q-23 0 -16 23l19 64l-47 -47q-17 -17 -28 3l-13 18q-11 17 6 28l79 51l-99 44q-19 10 -8 27l12 22q11 17 28 5l88 -64l5 95q2 20 21 18l23 -2q23 0 16 -23l-18 -64l47 48q17 17 28 -3l12 -19
q11 -17 -6 -28l-79 -50l99 -44q19 -10 8 -27z" />
    <glyph glyph-name="plus" unicode="+" horiz-adv-x="741" 
d="M621 282v-34q0 -20 -20 -20h-192v-194q0 -20 -20 -20h-37q-20 0 -20 20v194h-192q-20 0 -20 20v34q0 20 20 20h192v193q0 20 20 20h37q20 0 20 -20v-193h192q20 0 20 -20z" />
    <glyph glyph-name="comma" unicode="," horiz-adv-x="338" 
d="M222 85v-58q0 -65 -14.5 -105.5t-47.5 -74.5q-12 -12 -27 -4q-16 9 -4 27q55 81 4 121q-13 10 -13 24v70q0 20 20 20h62q20 0 20 -20z" />
    <glyph glyph-name="hyphen" unicode="-" horiz-adv-x="589" 
d="M469 301v-37q0 -20 -20 -20h-309q-20 0 -20 20v37q0 20 20 20h309q20 0 20 -20z" />
    <glyph glyph-name="period" unicode="." horiz-adv-x="330" 
d="M214 85v-64q0 -20 -20 -20h-58q-20 0 -20 20v64q0 20 20 20h58q20 0 20 -20z" />
    <glyph glyph-name="slash" unicode="/" horiz-adv-x="498" 
d="M482 707l-332 -692q-8 -15 -23 -15h-51q-11 0 -15.5 7t0.5 17l333 692q8 15 23 15h50q11 0 15.5 -6.5t-0.5 -17.5z" />
    <glyph glyph-name="zero" unicode="0" horiz-adv-x="612" 
d="M310 737q118 0 187 -97t69 -267q0 -175 -72 -278.5t-192 -103.5q-117 0 -186.5 100t-69.5 272q0 174 72 274t192 100zM303 659q-81 0 -125 -74t-44 -211q0 -146 47 -225.5t129 -79.5q80 0 124.5 76t44.5 215q0 144 -47 221.5t-129 77.5z" />
    <glyph glyph-name="one" unicode="1" horiz-adv-x="461" 
d="M372 0h-55q-20 0 -20 20l4 636h-7l-180 -155q-15 -14 -28 2l-26 29q-14 15 2 28l188 159q12 9 25 9h93q20 0 20 -20l4 -688q0 -20 -20 -20z" />
    <glyph glyph-name="two" unicode="2" horiz-adv-x="599" 
d="M208 81h325q20 0 20 -20v-41q0 -20 -20 -20h-431q-20 0 -20 20v36q0 15 10 26l224 239q67 71 99 121.5t32 97.5q0 54 -36 88t-99 34q-53 0 -92.5 -26.5t-58.5 -75.5q-7 -16 -23 -16h-43q-11 0 -15.5 6t-1.5 16q23 75 84.5 124.5t154.5 49.5q99 0 156 -57t57 -141
q0 -62 -37 -122t-117 -149l-168 -186v-4z" />
    <glyph glyph-name="three" unicode="3" horiz-adv-x="589" 
d="M404 387q139 -44 139 -179q0 -94 -63.5 -156t-178.5 -62q-103 0 -170 51t-82 125q-5 21 19 21h49q16 0 22 -18q13 -48 55.5 -74.5t102.5 -26.5q75 0 118 38.5t43 105.5q0 134 -199 134h-27q-20 0 -20 20v34q0 20 20 20h27q92 0 135.5 32t43.5 88q0 54 -37 88t-100 34
q-113 0 -152 -102q-7 -16 -23 -16h-43q-11 0 -15.5 6t-1.5 16q22 75 83.5 124.5t155.5 49.5q100 0 158 -56t58 -136q0 -54 -29.5 -96.5t-87.5 -64.5z" />
    <glyph glyph-name="four" unicode="4" horiz-adv-x="640" 
d="M594 223v-36q0 -20 -20 -20h-98l1 -147q0 -20 -20 -20h-50q-20 0 -20 20l1 147h-322q-20 0 -20 20v38q0 25 9 39l321 449q11 15 25 15h52q20 0 20 -20l3 -465h98q20 0 20 -20zM388 243l2 358h-5l-251 -355v-3h254z" />
    <glyph glyph-name="five" unicode="5" horiz-adv-x="591" 
d="M515 708v-41q0 -20 -20 -20h-305l-20 -219h7q63 36 135 36q106 0 169.5 -67.5t63.5 -171.5q0 -102 -63.5 -168.5t-179.5 -66.5q-102 0 -170 51t-83 125q-5 21 19 21h48q17 0 22 -17q14 -48 56 -75t105 -27q77 0 119 40.5t42 116.5t-41.5 118.5t-117.5 42.5
q-72 0 -129 -40q-13 -8 -25 -7l-45 2q-20 1 -18 21l32 347q1 19 21 19h358q20 0 20 -20z" />
    <glyph glyph-name="six" unicode="6" horiz-adv-x="615" 
d="M326 447q108 0 175.5 -64.5t67.5 -165.5q0 -104 -72.5 -167t-178.5 -63q-116 0 -190.5 85t-74.5 264q0 191 74 298t203 107q85 0 141 -45t75 -117q6 -22 -17 -22h-43q-16 0 -22 17q-16 42 -52.5 65.5t-84.5 23.5q-83 0 -131.5 -71t-56.5 -200h9q84 55 178 55zM324 66
q73 0 118 39t45 107q0 67 -45 112t-129 45q-98 0 -175 -60q9 -243 186 -243z" />
    <glyph glyph-name="seven" unicode="7" horiz-adv-x="575" 
d="M66 728h443q20 0 20 -20v-34q0 -14 -10 -31q-155 -282 -280 -627q-6 -16 -23 -16h-62q-24 0 -16 23q134 338 293 618v7h-365q-20 0 -20 20v40q0 20 20 20z" />
    <glyph glyph-name="eight" unicode="8" horiz-adv-x="616" 
d="M308 745q98 0 159.5 -57t61.5 -142q0 -108 -96 -156v-3q59 -22 94.5 -71.5t35.5 -118.5q0 -97 -69.5 -155.5t-185.5 -58.5q-115 0 -185 58.5t-70 155.5q0 69 35.5 118t89.5 72v4q-91 47 -91 153q0 87 61 144t160 57zM308 670q-62 0 -100 -36t-38 -92t37 -92t101 -36
q63 0 100.5 36.5t37.5 91.5q0 56 -38 92t-100 36zM308 349q-75 0 -121.5 -41.5t-46.5 -106.5q0 -64 45 -102t123 -38t123 38t45 102q0 65 -46.5 106.5t-121.5 41.5z" />
    <glyph glyph-name="nine" unicode="9" horiz-adv-x="625" 
d="M310 741q114 0 188 -84.5t74 -266.5q0 -193 -74.5 -298t-204.5 -105q-88 0 -146.5 45t-77.5 117q-6 21 17 23l45 1q17 0 23 -17q16 -43 54 -66.5t88 -23.5q85 0 134 71.5t57 205.5h-10q-84 -55 -176 -55q-105 0 -170 63t-65 163q0 103 70 165t174 62zM314 366
q95 0 173 58q-12 240 -183 240q-71 0 -113.5 -38.5t-42.5 -106.5q0 -66 42.5 -109.5t123.5 -43.5z" />
    <glyph glyph-name="colon" unicode=":" horiz-adv-x="325" 
d="M220 527v-69q0 -20 -20 -20h-63q-20 0 -20 20v69q0 20 20 20h63q20 0 20 -20zM219 101v-69q0 -20 -20 -20h-63q-20 0 -20 20v69q0 20 20 20h63q20 0 20 -20z" />
    <glyph glyph-name="semicolon" unicode=";" horiz-adv-x="414" 
d="M309 527v-69q0 -20 -20 -20h-63q-20 0 -20 20v69q0 20 20 20h63q20 0 20 -20zM222 85v-58q0 -65 -14.5 -105.5t-47.5 -74.5q-12 -12 -27 -4q-16 9 -4 27q55 81 4 121q-13 10 -13 24v70q0 20 20 20h62q20 0 20 -20z" />
    <glyph glyph-name="less" unicode="&#x3c;" horiz-adv-x="715" 
d="M595 483v-34q0 -17 -15 -24l-374 -162l374 -158q15 -6 15 -23v-36q0 -25 -23 -15l-437 188q-15 7 -15 24v40q0 17 15 24l437 192q23 10 23 -16z" />
    <glyph glyph-name="equal" unicode="=" horiz-adv-x="735" 
d="M616 385v-34q0 -20 -20 -20h-456q-20 0 -20 20v34q0 20 20 20h456q20 0 20 -20zM616 165v-34q0 -20 -20 -20h-456q-20 0 -20 20v34q0 20 20 20h456q20 0 20 -20z" />
    <glyph glyph-name="greater" unicode="&#x3e;" horiz-adv-x="715" 
d="M143 499l437 -188q15 -7 15 -24v-40q0 -17 -15 -24l-437 -192q-23 -10 -23 16v35q0 16 15 24l374 161l-374 158q-15 7 -15 24v35q0 25 23 15z" />
    <glyph glyph-name="question" unicode="?" horiz-adv-x="588" 
d="M307 740q104 0 163.5 -58t59.5 -146q0 -78 -50.5 -139.5t-150.5 -113.5v-66q0 -20 -20 -20h-54q-20 0 -20 20v85q0 16 15 23q104 50 148.5 99t44.5 108t-37.5 93t-102.5 34q-55 0 -95.5 -25.5t-58.5 -72.5q-6 -17 -22 -17h-46q-11 0 -16.5 4t-3.5 12q19 76 83 128t163 52
zM331 77v-65q0 -20 -20 -20h-58q-20 0 -20 20v65q0 20 20 20h58q20 0 20 -20z" />
    <glyph glyph-name="at" unicode="@" horiz-adv-x="879" 
d="M454 640q160 0 258 -96t98 -245q0 -98 -43 -149t-113 -51q-50 0 -79.5 24.5t-40.5 57.5h-3q-17 -39 -49 -58.5t-68 -19.5q-58 0 -95 44.5t-37 113.5q0 73 41 119t102 46t93 -50h3v22q0 20 20 20h21q20 0 20 -20v-130q0 -106 73 -106q84 0 84 128t-79 204.5t-207 76.5
q-134 0 -222.5 -83t-88.5 -223q0 -137 87.5 -221.5t238.5 -84.5q60 0 105 11q23 5 23 -17l2 -19q1 -18 -16 -24q-57 -17 -127 -17q-169 0 -277.5 103t-108.5 269q0 168 109.5 271.5t275.5 103.5zM429 367q-39 0 -61.5 -27.5t-22.5 -74.5q0 -49 23 -76t61 -27t62.5 26.5
t26.5 72.5v16q-3 44 -27 67t-62 23z" />
    <glyph glyph-name="A" unicode="A" 
d="M472 225h-281l-75 -209q-6 -16 -23 -16h-55q-11 0 -15.5 6.5t-0.5 16.5l259 688q6 16 23 16h56q17 0 23 -16l259 -688q4 -10 -0.5 -16.5t-15.5 -6.5h-56q-17 0 -23 16zM444 305l-112 311l-112 -311h224z" />
    <glyph glyph-name="B" unicode="B" horiz-adv-x="668" 
d="M513 385q109 -52 109 -172q0 -92 -63.5 -152.5t-166.5 -60.5h-303q-20 0 -20 20l3 687q0 20 20 20h270q100 0 159.5 -53.5t59.5 -137.5q0 -94 -68 -151zM160 649l1 -235h205q60 0 93.5 31t33.5 85t-37.5 86.5t-103.5 32.5h-192zM163 78h222q71 0 110 34t39 93t-42.5 94.5
t-117.5 35.5h-212z" />
    <glyph glyph-name="C" unicode="C" horiz-adv-x="742" 
d="M388 739q102 0 179.5 -51.5t114.5 -143.5q8 -23 -16 -23l-46 -1q-16 0 -24 14q-72 127 -213 127q-110 0 -179.5 -78t-69.5 -214q0 -138 71 -220.5t187 -82.5q149 0 211 138q7 16 24 16l44 -1q25 0 17 -22q-34 -90 -112 -150t-192 -60q-151 0 -244.5 105t-93.5 270
q0 167 97 272t245 105z" />
    <glyph glyph-name="D" unicode="D" horiz-adv-x="721" 
d="M92 727h238q165 0 255 -95.5t90 -257.5q0 -166 -91.5 -270t-255.5 -104h-239q-20 0 -20 20l3 687q0 20 20 20zM163 79h158q124 0 195 76.5t71 208.5q0 135 -70 210t-194 75h-163z" />
    <glyph glyph-name="E" unicode="E" horiz-adv-x="587" 
d="M164 80h357q20 0 20 -20v-40q0 -20 -20 -20h-432q-20 0 -20 20l3 687q0 20 20 20h428q20 0 20 -20v-40q0 -20 -20 -20h-360l2 -226h307q20 0 20 -20v-41q0 -20 -20 -20h-307z" />
    <glyph glyph-name="F" unicode="F" horiz-adv-x="585" 
d="M160 647l2 -223h306q20 0 20 -20v-40q0 -20 -20 -20h-306l2 -324q0 -20 -20 -20h-55q-20 0 -20 20l3 687q0 20 20 20h427q20 0 20 -20v-40q0 -20 -20 -20h-359z" />
    <glyph glyph-name="G" unicode="G" horiz-adv-x="775" 
d="M452 352h252q17 0 17 -19q-3 -153 -95.5 -249.5t-241.5 -96.5q-146 0 -239.5 105.5t-93.5 270.5t97 270.5t246 105.5q100 0 178 -50.5t114 -135.5q8 -23 -16 -23l-46 -1q-16 0 -24 14q-33 56 -88.5 87t-123.5 31q-109 0 -179 -78t-70 -214q0 -138 71 -220.5t187 -82.5
q88 0 152.5 54.5t81.5 151.5h-179q-20 0 -20 20v40q0 20 20 20z" />
    <glyph glyph-name="H" unicode="H" horiz-adv-x="720" 
d="M631 0h-54q-20 0 -20 20l1 320h-396l1 -320q0 -20 -20 -20h-54q-20 0 -20 20l3 687q0 20 20 20h48q20 0 20 -20l1 -286h398l1 286q0 20 20 20h48q20 0 20 -20l3 -687q0 -20 -20 -20z" />
    <glyph glyph-name="I" unicode="I" horiz-adv-x="353" 
d="M220 707l4 -687q0 -20 -20 -20h-55q-20 0 -20 20l3 687q0 20 20 20h48q20 0 20 -20z" />
    <glyph glyph-name="J" unicode="J" horiz-adv-x="485" 
d="M354 707l1 -391q1 -169 -66.5 -240t-222.5 -75q-20 0 -20 20v38q0 20 20 20q112 5 155 57.5t43 172.5l2 398q0 20 20 20h48q20 0 20 -20z" />
    <glyph glyph-name="K" unicode="K" horiz-adv-x="694" 
d="M269 366l-121 -115l1 -231q0 -20 -20 -20h-54q-20 0 -20 20l3 687q0 20 20 20h48q20 0 20 -20l2 -353l381 363q10 10 24 10h58q14 0 17 -7.5t-7 -17.5l-293 -280l312 -398q8 -10 4.5 -17t-16.5 -7h-68q-15 0 -24 12z" />
    <glyph glyph-name="L" unicode="L" horiz-adv-x="574" 
d="M164 80h363q20 0 20 -20v-40q0 -20 -20 -20h-438q-20 0 -20 20l3 687q0 20 20 20h48q20 0 20 -20z" />
    <glyph glyph-name="M" unicode="M" horiz-adv-x="865" 
d="M776 0h-50q-20 0 -20 20l-10 616l-209 -620q-6 -16 -23 -16h-60q-18 0 -22 16l-213 634l-9 -630q0 -20 -20 -20h-51q-21 0 -19 20l19 687q2 20 21 20h98q17 0 23 -16l203 -589l203 589q6 16 23 16h95q19 0 21 -20l19 -687q2 -20 -19 -20z" />
    <glyph glyph-name="N" unicode="N" horiz-adv-x="723" 
d="M650 707l4 -687q0 -20 -20 -20h-92q-16 0 -24 14l-359 624l3 -618q0 -20 -20 -20h-53q-20 0 -20 20l3 687q0 20 20 20h97q16 0 24 -14l348 -603l3 597q0 20 20 20h46q20 0 20 -20z" />
    <glyph glyph-name="O" unicode="O" horiz-adv-x="774" 
d="M393 739q147 0 241 -101t94 -263q0 -168 -98.5 -278t-247.5 -110q-146 0 -241 106t-95 270q0 165 98.5 270.5t248.5 105.5zM387 661q-112 0 -182.5 -78t-70.5 -214q0 -137 71 -220t183 -83q110 0 181.5 82t71.5 219q0 135 -71 214.5t-183 79.5z" />
    <glyph glyph-name="P" unicode="P" horiz-adv-x="653" 
d="M92 727h273q108 0 174.5 -60t66.5 -157q0 -98 -67 -162t-174 -64h-203l2 -264q0 -20 -20 -20h-55q-20 0 -20 20l3 687q0 20 20 20zM162 361h196q76 0 118.5 37.5t42.5 102.5q0 67 -44.5 107.5t-116.5 40.5h-198z" />
    <glyph glyph-name="Q" unicode="Q" horiz-adv-x="774" 
d="M728 375q0 -94 -33 -172.5t-92 -132.5l50 -60q12 -15 -2 -28l-29 -23q-14 -13 -28 2l-54 65q-73 -39 -158 -39q-146 0 -241 106t-95 270q0 165 98.5 270.5t248.5 105.5q147 0 241 -101t94 -263zM388 66q55 0 100 21l-49 59q-14 15 2 28l29 24q16 13 28 -2l55 -66
q88 85 88 237q0 135 -71 214.5t-183 79.5t-182.5 -78t-70.5 -214q0 -137 71 -220t183 -83z" />
    <glyph glyph-name="R" unicode="R" horiz-adv-x="654" 
d="M309 321h-147l2 -301q0 -20 -20 -20h-55q-20 0 -20 20l3 687q0 20 20 20h274q106 0 169.5 -55.5t63.5 -143.5q0 -78 -51 -134.5t-139 -69.5l212 -300q7 -10 3.5 -17t-16.5 -7h-67q-15 0 -24 13zM161 399h194q76 0 116 32.5t40 89.5q0 59 -41.5 93.5t-114.5 34.5h-195z
" />
    <glyph glyph-name="S" unicode="S" horiz-adv-x="655" 
d="M329 739q99 0 166 -47.5t94 -119.5q4 -10 -0.5 -16.5t-15.5 -6.5h-46q-16 0 -24 14q-58 97 -181 97q-74 0 -114 -29t-40 -76t39.5 -75.5t136.5 -57.5l39 -12q119 -37 172.5 -91t53.5 -130q0 -94 -70.5 -148t-190.5 -54q-126 0 -201 57t-96 134q-6 22 18 22h48
q17 0 23 -15q55 -118 211 -118q80 0 123.5 28.5t43.5 81.5q0 50 -42.5 85t-138.5 67l-41 13q-109 35 -162.5 80.5t-55.5 119.5q-2 90 69.5 143.5t181.5 53.5z" />
    <glyph glyph-name="T" unicode="T" horiz-adv-x="585" 
d="M571 707v-40q0 -20 -20 -20h-214l3 -627q0 -20 -20 -20h-54q-20 0 -20 20l3 627h-215q-20 0 -20 20v40q0 20 20 20h517q20 0 20 -20z" />
    <glyph glyph-name="U" unicode="U" horiz-adv-x="731" 
d="M661 707l1 -394q1 -155 -81.5 -240.5t-215.5 -85.5t-215 85.5t-81 240.5l2 394q0 20 20 20h47q20 0 20 -20l2 -384q1 -128 55.5 -192.5t151.5 -64.5t150.5 64.5t53.5 192.5l2 384q0 20 20 20h48q20 0 20 -20z" />
    <glyph glyph-name="V" unicode="V" horiz-adv-x="652" 
d="M565 727h50q24 0 16 -23l-248 -688q-6 -16 -23 -16h-69q-17 0 -23 16l-247 688q-8 23 16 23h49q17 0 23 -16l214 -583h3l216 583q6 16 23 16z" />
    <glyph glyph-name="W" unicode="W" horiz-adv-x="979" 
d="M900 727h43q11 0 15.5 -6t1.5 -16l-193 -688q-4 -17 -23 -17h-67q-19 0 -23 17l-164 583l-165 -583q-4 -17 -23 -17h-66q-19 0 -23 17l-194 688q-3 10 1.5 16t15.5 6h49q19 0 23 -17l158 -564h6l164 564q4 17 23 17h68q18 0 23 -17l157 -564h5l165 564q4 17 23 17z" />
    <glyph glyph-name="X" unicode="X" horiz-adv-x="714" 
d="M638 0h-63q-15 0 -24 13l-196 294l-196 -294q-9 -13 -25 -13h-58q-13 0 -16.5 7t3.5 17l244 353l-218 326q-7 10 -3 17t16 7h52q15 0 24 -13l189 -276l189 276q9 13 24 13h48q12 0 16 -7t-3 -17l-227 -333l236 -346q7 -10 3.5 -17t-15.5 -7z" />
    <glyph glyph-name="Y" unicode="Y" horiz-adv-x="598" 
d="M345 306l2 -286q0 -20 -20 -20h-53q-20 0 -20 20l2 286l-229 397q-6 11 -2 17.5t16 6.5h53q16 0 24 -14l180 -313h6l181 313q8 14 24 14h48q12 0 16 -6.5t-2 -17.5z" />
    <glyph glyph-name="Z" unicode="Z" horiz-adv-x="655" 
d="M167 81h407q20 0 20 -20v-41q0 -20 -20 -20h-504q-20 0 -20 20v36q0 12 10 25l409 559v7h-380q-20 0 -20 20v40q0 20 20 20h476q20 0 20 -20v-34q0 -15 -9 -26l-409 -561v-5z" />
    <glyph glyph-name="bracketleft" unicode="[" horiz-adv-x="413" 
d="M176 661l3 -812h144q20 0 20 -20v-29q0 -20 -20 -20h-206q-20 0 -20 20l3 910q0 20 20 20h203q20 0 20 -20v-29q0 -20 -20 -20h-147z" />
    <glyph glyph-name="backslash" unicode="\" horiz-adv-x="498" 
d="M31 731h51q16 0 23 -15l332 -692q5 -10 0.5 -17t-15.5 -7h-51q-15 0 -23 15l-332 692q-5 11 -0.5 17.5t15.5 6.5z" />
    <glyph glyph-name="bracketright" unicode="]" horiz-adv-x="413" 
d="M90 730h206q20 0 20 -20l-3 -910q0 -20 -20 -20h-203q-20 0 -20 20v29q0 20 20 20h147l-3 812h-144q-20 0 -20 20v29q0 20 20 20z" />
    <glyph glyph-name="asciicircum" unicode="^" horiz-adv-x="728" 
d="M486 207h-37q-17 0 -22 18l-62 288l-64 -288q-5 -18 -22 -18h-36q-23 0 -18 22l100 435q5 18 22 18h38q17 0 22 -18l97 -435q5 -22 -18 -22z" />
    <glyph glyph-name="underscore" unicode="_" horiz-adv-x="612" 
d="M568 -96v-22q0 -20 -20 -20h-484q-20 0 -20 20v22q0 20 20 20h484q20 0 20 -20z" />
    <glyph glyph-name="grave" unicode="`" horiz-adv-x="399" 
d="M148 760h32q16 0 24 -14l66 -109q6 -11 2 -17.5t-16 -6.5h-6q-16 0 -24 12l-90 111q-8 10 -4.5 17t16.5 7z" />
    <glyph glyph-name="a" unicode="a" horiz-adv-x="561" 
d="M288 543q93 0 143.5 -49.5t51.5 -149.5l3 -324q0 -20 -20 -20h-49q-20 0 -20 20v64h-7q-61 -93 -183 -93q-73 0 -118 38.5t-45 108.5q0 90 80 132t247 52l26 2v29q0 115 -117 115q-88 0 -120 -63q-9 -15 -24 -15h-43q-11 0 -17 3.5t-4 9.5q18 58 72 99t144 41zM397 258
l-24 -2q-127 -8 -185 -34t-58 -78q0 -37 25.5 -57t70.5 -20q69 0 117.5 40.5t53.5 87.5v63z" />
    <glyph glyph-name="b" unicode="b" horiz-adv-x="608" 
d="M162 478h6q55 65 149 65q110 0 178.5 -78t68.5 -205q0 -120 -62 -196.5t-161 -76.5q-52 0 -97.5 22.5t-73.5 65.5h-6v-55q0 -20 -20 -20h-50q-20 0 -20 20l4 706q0 20 20 20h43q20 0 20 -20zM318 466q-63 0 -106 -45t-53 -125v-82q12 -72 54.5 -110.5t105.5 -38.5
q74 0 115.5 53t41.5 143q0 96 -43.5 150.5t-114.5 54.5z" />
    <glyph glyph-name="c" unicode="c" horiz-adv-x="532" 
d="M288 543q82 0 139 -42.5t77 -106.5q4 -10 -1 -16t-16 -6h-44q-15 0 -23 15q-41 78 -131 78q-75 0 -116.5 -51.5t-41.5 -151.5q0 -96 42 -146t119 -50q88 0 125 69q7 15 23 15h44q11 0 15.5 -6.5t0.5 -16.5q-25 -60 -80 -100t-135 -40q-110 0 -175.5 75t-65.5 197
q0 129 67 206.5t177 77.5z" />
    <glyph glyph-name="d" unicode="d" horiz-adv-x="607" 
d="M530 726l3 -706q0 -20 -20 -20h-52q-20 0 -20 20v55h-6q-26 -43 -71 -65.5t-97 -22.5q-99 0 -161 76.5t-62 196.5q0 127 68.5 205t178.5 78q93 0 148 -65h5v248q0 20 20 20h46q20 0 20 -20zM289 466q-74 0 -116 -53.5t-42 -145.5q0 -94 43.5 -147.5t115.5 -53.5
q62 0 105.5 43.5t52.5 120.5v82q-12 74 -54.5 114t-104.5 40z" />
    <glyph glyph-name="e" unicode="e" horiz-adv-x="568" 
d="M296 542q110 0 169.5 -76t57.5 -193q0 -20 -21 -20h-370q1 -87 45.5 -137.5t119.5 -50.5q85 0 126 68q8 14 24 14h43q11 0 15.5 -6.5t-0.5 -16.5q-30 -66 -85.5 -101.5t-129.5 -35.5q-109 0 -177.5 76t-68.5 199q0 125 70 202.5t182 77.5zM289 465q-64 0 -102.5 -39.5
t-49.5 -103.5h297q-2 61 -40.5 102t-104.5 41z" />
    <glyph glyph-name="f" unicode="f" horiz-adv-x="369" 
d="M346 726v-38q0 -20 -20 -20q-72 -2 -100 -24.5t-27 -95.5v-17h122q20 0 20 -20v-34q0 -20 -20 -20h-122l3 -437q0 -20 -20 -20h-52q-20 0 -20 20l3 437h-65q-20 0 -20 20v34q0 20 20 20h65v11q1 115 56.5 161t156.5 44q20 -2 20 -21z" />
    <glyph glyph-name="g" unicode="g" horiz-adv-x="609" 
d="M267 543q112 0 170 -90l6 1l1 57q0 20 20 20h46q20 0 20 -20l5 -445q1 -146 -64 -222.5t-179 -76.5q-150 0 -211 127q-5 10 -0.5 16.5t15.5 6.5h45q15 0 24 -13q42 -59 127 -59q152 0 149 194v27h-5q-56 -66 -146 -66q-110 0 -178 74.5t-68 197.5q0 117 62 194t161 77z
M290 466q-71 0 -115 -55t-44 -147q0 -88 42 -137t116 -49q63 0 105 36t54 102v82q-9 79 -52.5 123.5t-105.5 44.5z" />
    <glyph glyph-name="h" unicode="h" horiz-adv-x="578" 
d="M165 452l7 -1q64 88 164 88q76 0 120.5 -49.5t45.5 -139.5l2 -330q0 -20 -20 -20h-52q-20 0 -20 20l2 308q0 63 -28 95t-79 32q-57 0 -95.5 -40.5t-46.5 -116.5l1 -278q0 -20 -20 -20h-52q-20 0 -20 20l4 706q0 20 20 20h45q20 0 20 -20z" />
    <glyph glyph-name="i" unicode="i" horiz-adv-x="261" 
d="M174 726v-60q0 -20 -20 -20h-45q-20 0 -20 20v60q0 20 20 20h45q20 0 20 -20zM173 511l3 -491q0 -20 -20 -20h-52q-20 0 -20 20l4 491q0 20 20 20h45q20 0 20 -20z" />
    <glyph glyph-name="j" unicode="j" horiz-adv-x="291" 
d="M191 726v-60q0 -20 -20 -20h-45q-20 0 -20 20v60q0 20 20 20h45q20 0 20 -20zM191 511l4 -529q0 -58 -14.5 -98.5t-43 -62t-61.5 -30.5t-78 -11q-20 0 -20 20v38q0 20 20 20q59 2 81.5 25t23.5 94l3 534q0 20 20 20h45q20 0 20 -20z" />
    <glyph glyph-name="k" unicode="k" horiz-adv-x="566" 
d="M233 262l-68 -64l1 -178q0 -20 -20 -20h-52q-20 0 -20 20l4 706q0 20 20 20h45q20 0 20 -20l2 -434l239 229q10 10 24 10h52q14 0 17 -7.5t-7 -17.5l-202 -192l216 -290q7 -10 3.5 -17t-15.5 -7h-57q-15 0 -24 12z" />
    <glyph glyph-name="l" unicode="l" horiz-adv-x="285" 
d="M185 726l4 -706q0 -20 -20 -20h-52q-20 0 -20 20l3 706q0 20 20 20h45q20 0 20 -20z" />
    <glyph glyph-name="m" unicode="m" horiz-adv-x="864" 
d="M635 543q75 0 117.5 -50t42.5 -143l2 -330q0 -20 -20 -20h-52q-20 0 -20 20l2 308q1 131 -97 131q-54 0 -90.5 -41t-43.5 -121l1 -277q0 -20 -20 -20h-51q-20 0 -20 20l1 308q1 131 -97 131q-54 0 -91.5 -39.5t-45.5 -121.5l2 -278q0 -20 -20 -20h-52q-20 0 -20 20l3 491
q0 20 20 20h46q20 0 20 -20v-59h5q70 91 162 91q106 0 139 -100h7q70 100 170 100z" />
    <glyph glyph-name="n" unicode="n" horiz-adv-x="575" 
d="M336 543q76 0 120.5 -50.5t44.5 -142.5v-330q0 -20 -20 -20h-46q-20 0 -20 20v308q0 65 -28.5 98t-79.5 33q-57 0 -95.5 -41t-46.5 -120l1 -278q0 -20 -20 -20h-52q-20 0 -20 20l4 491q0 20 20 20h45q20 0 20 -20l1 -59l7 -1q65 92 165 92z" />
    <glyph glyph-name="o" unicode="o" horiz-adv-x="590" 
d="M299 543q107 0 176.5 -75t69.5 -196q0 -124 -72 -204.5t-182 -80.5q-107 0 -177 78t-70 198q0 124 72 202t183 78zM290 466q-71 0 -115 -53t-44 -142q0 -91 48 -148t120 -57q70 0 114.5 54t44.5 142q0 93 -47.5 148.5t-120.5 55.5z" />
    <glyph glyph-name="p" unicode="p" horiz-adv-x="608" 
d="M341 543q99 0 161 -76.5t62 -196.5q0 -126 -68.5 -204.5t-178.5 -78.5q-88 0 -147 64h-5l1 -251q0 -20 -20 -20h-52q-20 0 -20 20l4 711q0 20 20 20h45q20 0 20 -20l1 -57h6q58 89 171 89zM318 466q-63 0 -106 -44.5t-53 -122.5v-82q13 -73 55 -112.5t105 -39.5
q74 0 115.5 53t41.5 145q0 94 -43.5 148.5t-114.5 54.5z" />
    <glyph glyph-name="q" unicode="q" horiz-adv-x="607" 
d="M267 543q52 0 97 -22.5t73 -66.5h7v57q0 20 20 20h46q20 0 20 -20l3 -711q0 -20 -20 -20h-52q-20 0 -20 20l2 251h-6q-59 -64 -148 -64q-110 0 -177.5 78t-67.5 204q0 122 61.5 198t161.5 76zM290 466q-72 0 -115.5 -54t-43.5 -149q0 -92 42 -145t116 -53
q62 0 104.5 39.5t54.5 112.5v82q-9 79 -52.5 123t-105.5 44z" />
    <glyph glyph-name="r" unicode="r" horiz-adv-x="366" 
d="M343 522v-52q0 -20 -20 -20q-71 -3 -111.5 -38t-46.5 -120l1 -272q0 -20 -20 -20h-52q-20 0 -20 20l4 491q0 20 20 20h45q20 0 20 -20l1 -63l7 -1q58 85 151 95q21 2 21 -20z" />
    <glyph glyph-name="s" unicode="s" horiz-adv-x="519" 
d="M260 543q81 0 132.5 -37.5t70.5 -90.5q4 -10 -1 -16t-16 -6h-44q-15 0 -24 13q-41 60 -123 60q-47 0 -75.5 -20t-28.5 -52q0 -29 26.5 -45.5t89.5 -34.5l41 -12q89 -26 128.5 -63t39.5 -92q0 -73 -55.5 -116.5t-148.5 -43.5q-86 0 -142.5 38.5t-80.5 101.5q-8 23 17 23
h51q15 0 23 -15q39 -70 137 -70q110 0 110 74q0 32 -28 52.5t-93 39.5l-40 12q-79 22 -120 55t-41 90q0 68 55.5 111.5t139.5 43.5z" />
    <glyph glyph-name="t" unicode="t" horiz-adv-x="350" 
d="M327 511v-34q0 -20 -20 -20h-93l2 -437q0 -20 -20 -20h-52q-20 0 -20 20l2 437h-76q-20 0 -20 20v34q0 20 20 20h76l1 187q0 20 20 20h45q20 0 20 -20l1 -187h94q20 0 20 -20z" />
    <glyph glyph-name="u" unicode="u" horiz-adv-x="577" 
d="M499 511l3 -491q0 -20 -20 -20h-51q-20 0 -20 20l1 59h-7q-63 -92 -164 -92q-77 0 -122 52t-45 150l2 322q0 20 20 20h45q20 0 20 -20l2 -301q1 -139 106 -139q58 0 95.5 41t47.5 121l2 278q0 20 20 20h45q20 0 20 -20z" />
    <glyph glyph-name="v" unicode="v" horiz-adv-x="521" 
d="M492 508l-168 -492q-6 -16 -23 -16h-82q-17 0 -23 16l-167 492q-8 23 16 23h44q17 0 23 -16l143 -420h10l144 420q6 16 23 16h44q24 0 16 -23z" />
    <glyph glyph-name="w" unicode="w" horiz-adv-x="773" 
d="M686 531h43q11 0 15.5 -6t1.5 -16l-137 -492q-5 -17 -23 -17h-76q-19 0 -23 17l-100 348h-8l-93 -348q-6 -17 -23 -17h-77q-18 0 -23 17l-136 492q-3 10 1.5 16t15.5 6h44q17 0 23 -17l111 -418h11l112 418q6 17 23 17h38q18 0 23 -17l113 -418h10l111 418q6 17 23 17z
" />
    <glyph glyph-name="x" unicode="x" horiz-adv-x="545" 
d="M329 263l164 -239q7 -10 3.5 -17t-15.5 -7h-56q-15 0 -24 13l-132 195l-133 -195q-9 -13 -24 -13h-54q-13 0 -16.5 7t3.5 17l179 251l-158 232q-7 10 -3 17t16 7h51q15 0 24 -13l130 -189l131 189q9 13 24 13h46q13 0 16.5 -7t-3.5 -17z" />
    <glyph glyph-name="y" unicode="y" horiz-adv-x="525" 
d="M436 531h43q24 0 16 -23l-249 -712q-6 -16 -23 -16h-53q-24 0 -16 23l63 174l-188 531q-8 23 16 23h44q17 0 23 -16l143 -417h7l151 417q6 16 23 16z" />
    <glyph glyph-name="z" unicode="z" horiz-adv-x="492" 
d="M442 511v-41q-5 -12 -10 -19l-282 -373v-4h277q20 0 20 -20v-34q0 -20 -20 -20h-363q-20 0 -20 20v40q0 6 3 9l296 383v5h-268q-20 0 -20 20v34q0 20 20 20h347q20 0 20 -20z" />
    <glyph glyph-name="braceleft" unicode="{" horiz-adv-x="439" 
d="M369 730v-34q0 -20 -20 -20q-54 0 -78 -24.5t-24 -87.5v-171q0 -59 -14.5 -87t-43.5 -43v-7q58 -27 58 -136v-165q0 -63 24 -88t78 -25q20 0 20 -20v-34q0 -20 -20 -20h-12q-88 0 -129.5 42t-41.5 140v153q0 58 -10 84t-40 32q-19 4 -19 22v37q0 18 19 22q30 6 40 32
t10 84v155q0 98 41 138.5t130 40.5h12q20 0 20 -20z" />
    <glyph glyph-name="bar" unicode="|" horiz-adv-x="376" 
d="M226 755l3 -980q0 -20 -20 -20h-42q-20 0 -20 20l3 980q0 20 20 20h36q20 0 20 -20z" />
    <glyph glyph-name="braceright" unicode="}" horiz-adv-x="439" 
d="M70 -212v34q0 20 20 20q54 0 78 25t24 88v170q0 59 14.5 87t43.5 43v7q-58 27 -58 136v166q0 63 -24 87.5t-78 24.5q-20 0 -20 20v34q0 20 20 20h12q89 0 130 -41.5t41 -140.5v-153q0 -58 10 -84t40 -32q19 -4 19 -22v-37q0 -18 -19 -22q-30 -6 -40 -32t-10 -84v-155
q0 -98 -41 -138.5t-130 -40.5h-12q-20 0 -20 20z" />
    <glyph glyph-name="asciitilde" unicode="~" horiz-adv-x="608" 
d="M226 370q28 0 53 -13.5t39 -29t31 -29t32 -13.5q30 0 34 46q2 20 21 20h27q21 0 19 -20q-4 -48 -28.5 -80t-72.5 -32q-34 0 -61 21.5t-49 43t-44 21.5q-34 0 -40 -46q-2 -20 -20 -20h-28q-21 0 -19 19q7 112 106 112z" />
    <glyph glyph-name="exclamdown" unicode="&#xa1;" horiz-adv-x="334" 
d="M116 449v69q0 20 20 20h62q20 0 20 -20v-69q0 -20 -20 -20h-62q-20 0 -20 20zM121 -174l-3 470q0 20 20 20h51q20 0 20 -20l-3 -470q0 -20 -20 -20h-45q-20 0 -20 20z" />
    <glyph glyph-name="cent" unicode="&#xa2;" horiz-adv-x="532" 
d="M292 155q88 0 125 69q7 15 23 15h44q11 0 15.5 -6.5t0.5 -16.5q-21 -53 -67 -91t-112 -47l3 -115q0 -20 -20 -20h-32q-20 0 -20 20l3 115q-97 10 -154 83.5t-57 186.5q0 119 57.5 195t153.5 87l-3 116q0 20 20 20h32q20 0 20 -20l-3 -116q70 -9 118 -50t65 -97
q4 -10 -1 -16t-16 -6h-44q-15 0 -23 15q-41 78 -131 78q-75 0 -116.5 -51.5t-41.5 -151.5q0 -96 42 -146t119 -50z" />
    <glyph glyph-name="sterling" unicode="&#xa3;" horiz-adv-x="658" 
d="M192 81h377q20 0 20 -20v-41q0 -20 -20 -20h-480q-20 0 -20 20v36q0 15 13 25q49 34 61 68t12 109v49h-31q-20 0 -20 20v37q0 20 20 20h31v132q0 100 59.5 162t158.5 62q90 0 142 -49t70 -125q5 -22 -18 -22h-43q-17 0 -22 17q-30 101 -132 101q-61 0 -96 -39t-35 -115
v-124h193q20 0 20 -20v-37q0 -20 -20 -20h-193v-63q0 -108 -47 -158v-5z" />
    <glyph glyph-name="currency" unicode="&#xa4;" horiz-adv-x="701" 
d="M537 400l-45 -46q26 -42 26 -90q0 -42 -21 -81q-4 -8 -7 -11q-18 -26 -44 -45q-4 -4 -5 -3q-41 -27 -90 -27q-47 0 -91 26l-46 -47q-14 -14 -28 0l-21 22q-14 14 0 28l46 45q-28 42 -28 93q0 69 49 118t119 49q51 0 91 -28l46 47q14 14 28 0l21 -22q14 -14 0 -28z
M351 159q22 0 45 10l-21 21q-14 14 0 28l20 21q14 15 28 1l22 -21q10 23 10 45q0 43 -30.5 74t-73.5 31q-24 0 -46 -11l15 -15q14 -14 0 -28l-21 -22q-14 -14 -28 0l-16 16q-10 -23 -10 -45q0 -43 31.5 -74t74.5 -31z" />
    <glyph glyph-name="yen" unicode="&#xa5;" horiz-adv-x="598" 
d="M378 364h83q20 0 20 -20v-25q0 -20 -20 -20h-116v-67h116q20 0 20 -20v-25q0 -20 -20 -20h-115l1 -147q0 -20 -20 -20h-53q-20 0 -20 20l1 147h-103q-20 0 -20 20v25q0 20 20 20h103v67h-103q-20 0 -20 20v25q0 20 20 20h70l-195 339q-6 11 -2 17.5t16 6.5h53
q16 0 24 -14l180 -313h6l181 313q8 14 24 14h48q12 0 16 -6.5t-2 -17.5z" />
    <glyph glyph-name="section" unicode="&#xa7;" horiz-adv-x="563" 
d="M422 234q72 -42 72 -115t-55 -117t-144 -44q-85 0 -140 39t-79 103q-8 23 17 23h48q15 0 23 -15q41 -72 135 -72q48 0 76.5 18.5t28.5 54.5q0 33 -27.5 53t-100.5 44l-18 7q-86 29 -126 60.5t-40 87.5q0 77 79 125q-79 41 -79 113q0 68 54 111.5t138 43.5q78 0 128.5 -38
t67.5 -91q4 -10 -1 -16t-16 -6h-44q-16 0 -24 14q-38 60 -116 60q-46 0 -73.5 -20t-27.5 -52q0 -29 26 -45t95 -38l19 -6q97 -31 136.5 -67.5t39.5 -91.5q0 -78 -72 -123zM178 367q0 -29 26 -45t95 -38l19 -7l16 -5q70 22 70 75q0 32 -28 52.5t-100 45.5l-10 3
q-41 -10 -64.5 -31t-23.5 -50z" />
    <glyph glyph-name="dieresis" unicode="&#xa8;" horiz-adv-x="445" 
d="M184 726v-60q0 -20 -20 -20h-28q-20 0 -20 20v60q0 20 20 20h28q20 0 20 -20zM329 726v-60q0 -20 -20 -20h-28q-20 0 -20 20v60q0 20 20 20h28q20 0 20 -20z" />
    <glyph glyph-name="copyright" unicode="&#xa9;" horiz-adv-x="866" 
d="M433 728q154 0 259 -101.5t105 -263.5t-105 -263t-259 -101t-259 101t-105 263t105.5 263.5t258.5 101.5zM433 669q-129 0 -217 -85t-88 -221q0 -135 88 -220.5t217 -85.5t217.5 85.5t88.5 220.5q0 136 -88.5 221t-217.5 85zM438 571q61 0 104.5 -31t60.5 -78
q4 -10 -1 -16t-16 -6h-24q-16 0 -23 15q-31 58 -101 58q-58 0 -90 -39t-32 -113q0 -73 33 -111t93 -38q67 0 97 52q7 15 23 15h21q12 0 16.5 -6.5t-0.5 -16.5q-20 -45 -62 -74.5t-101 -29.5q-84 0 -134.5 57t-50.5 150q0 96 51.5 154t135.5 58z" />
    <glyph glyph-name="guillemetleft" unicode="&#xab;" horiz-adv-x="648" 
d="M111 246v42q0 16 13 25l163 106q10 7 17 3t7 -16v-30q0 -17 -13 -24l-130 -85l130 -85q13 -7 13 -24v-29q0 -12 -6.5 -16t-17.5 3l-163 106q-13 7 -13 24zM537 406v-30q0 -17 -13 -24l-130 -85l130 -85q13 -7 13 -24v-29q0 -12 -6.5 -16t-17.5 3l-163 106q-13 7 -13 24
v42q0 16 13 25l163 106q10 7 17 3t7 -16z" />
    <glyph glyph-name="registered" unicode="&#xae;" horiz-adv-x="539" 
d="M269 758q74 0 126.5 -52.5t52.5 -125.5q0 -74 -53 -126.5t-126 -52.5t-125.5 52.5t-52.5 126.5t52.5 126t125.5 52zM269 446q55 0 95 39.5t40 94.5t-39.5 94.5t-95.5 39.5q-55 0 -94.5 -39t-39.5 -95q0 -55 39.5 -94.5t94.5 -39.5zM336 609q0 -33 -33 -44l24 -37
q7 -10 3 -17t-16 -7q-16 0 -23 13l-27 44h-17v-37q0 -20 -20 -20q-18 0 -18 20v110q0 20 20 20h51q27 0 41.5 -12.5t14.5 -32.5zM247 593h32q20 0 20 14q0 15 -20 15h-32v-29z" />
    <glyph glyph-name="macron" unicode="&#xaf;" horiz-adv-x="459" 
d="M344 676v-14q0 -20 -20 -20h-188q-20 0 -20 20v14q0 20 20 20h188q20 0 20 -20z" />
    <glyph glyph-name="degree" unicode="&#xb0;" horiz-adv-x="439" 
d="M220 758q58 0 98.5 -40.5t40.5 -98.5t-40.5 -99t-98.5 -41t-99 41t-41 99t41 98.5t99 40.5zM220 693q-31 0 -52.5 -21.5t-21.5 -52.5q0 -30 21.5 -52t52.5 -22q30 0 51.5 22t21.5 52q0 31 -21.5 52.5t-51.5 21.5z" />
    <glyph glyph-name="twosuperior" unicode="&#xb2;" horiz-adv-x="327" 
d="M180 731q45 0 70 -23.5t25 -55.5q0 -44 -53 -89l-53 -46v-4h92q20 0 20 -20v-7q0 -20 -20 -20h-163q-20 0 -20 20v11q0 10 6 15l97 84q36 29 36 51q0 33 -41 33q-29 0 -43 -20q-11 -14 -24 -14h-16q-11 0 -16.5 3.5t-3.5 10.5q9 29 36 50t71 21z" />
    <glyph glyph-name="threesuperior" unicode="&#xb3;" horiz-adv-x="309" 
d="M206 601q57 -17 57 -62q0 -34 -28 -55.5t-78 -21.5q-44 0 -71 17t-36 43q-4 9 1.5 15t16.5 6h18q13 0 23 -15q13 -19 48 -19q49 0 49 33q0 36 -73 36q-18 0 -18 20v1q0 20 18 20q65 0 65 33q0 14 -12 23t-32 9q-27 0 -40 -16q-11 -14 -24 -14h-15q-11 0 -16 6t-1 16
q26 55 101 55q46 0 70.5 -20.5t24.5 -49.5q0 -42 -48 -60z" />
    <glyph glyph-name="acute" unicode="&#xb4;" horiz-adv-x="399" 
d="M264 736l-90 -111q-8 -12 -24 -12h-6q-12 0 -16 6.5t2 17.5l65 109q8 14 24 14h33q13 0 16.5 -7t-4.5 -17z" />
    <glyph glyph-name="paragraph" unicode="&#xb6;" horiz-adv-x="718" 
d="M250 616h144q20 0 20 -20v-676q0 -20 -20 -20h-42q-20 0 -20 20v311h-82q-94 0 -150 54t-56 140q0 85 56 138t150 53zM556 616h45q20 0 20 -20v-676q0 -20 -20 -20h-46q-20 0 -20 20l1 676q0 20 20 20z" />
    <glyph glyph-name="periodcentered" unicode="&#xb7;" horiz-adv-x="360" 
d="M229 312v-65q0 -20 -20 -20h-58q-20 0 -20 20v65q0 20 20 20h58q20 0 20 -20z" />
    <glyph glyph-name="cedilla" unicode="&#xb8;" horiz-adv-x="412" 
d="M231 -10l-14 -42q80 -15 80 -84q0 -40 -26.5 -65.5t-75.5 -25.5q-33 0 -63 13q-16 9 -11 26l2 5q6 20 25 12q24 -10 47 -10q22 0 36 11.5t14 30.5q0 20 -17.5 33.5t-53.5 13.5q-20 2 -14 23l20 65q4 17 22 17h13q24 0 16 -23z" />
    <glyph glyph-name="onesuperior" unicode="&#xb9;" horiz-adv-x="277" 
d="M206 706l2 -220q0 -20 -20 -20h-22q-20 0 -20 20v193h-3l-47 -40q-15 -14 -28 2l-8 9q-14 15 2 28l47 39q12 9 25 9h52q20 0 20 -20z" />
    <glyph glyph-name="guillemetright" unicode="&#xbb;" horiz-adv-x="648" 
d="M111 377v29q0 12 6.5 16t17.5 -3l163 -106q13 -7 13 -24v-42q0 -16 -13 -25l-163 -106q-10 -7 -17 -3t-7 16v30q0 17 13 24l130 85l-130 85q-13 7 -13 24zM361 419l163 -106q13 -7 13 -24v-42q0 -16 -13 -25l-163 -106q-10 -7 -17 -3t-7 16v30q0 17 13 24l130 85l-130 85
q-13 7 -13 24v29q0 12 7 16t17 -3z" />
    <glyph glyph-name="questiondown" unicode="&#xbf;" horiz-adv-x="588" 
d="M264 454v64q0 20 20 20h58q20 0 20 -20v-64q0 -20 -20 -20h-58q-20 0 -20 20zM288 -210q-105 0 -164.5 58t-59.5 147q0 78 50.5 139t151.5 114v66q0 20 20 20h54q20 0 20 -20v-86q0 -16 -15 -23q-104 -50 -148.5 -98.5t-44.5 -107.5t37.5 -93t102.5 -34q55 0 95.5 25
t58.5 72q6 17 22 17h46q11 0 16.5 -4t3.5 -12q-19 -76 -83 -128t-163 -52z" />
    <glyph glyph-name="Agrave" unicode="&#xc0;" 
d="M348 810h-6q-16 0 -24 12l-90 111q-8 10 -4.5 17t16.5 7h33q16 0 24 -14l65 -109q6 -10 2 -17t-16 -7zM472 225h-281l-75 -209q-6 -16 -23 -16h-55q-11 0 -15.5 6.5t-0.5 16.5l259 688q6 16 23 16h56q17 0 23 -16l259 -688q4 -10 -0.5 -16.5t-15.5 -6.5h-56q-17 0 -23 16
zM444 305l-112 311l-112 -311h224z" />
    <glyph glyph-name="Aacute" unicode="&#xc1;" 
d="M443 933l-90 -111q-8 -12 -24 -12h-6q-12 0 -16 7t2 17l65 109q8 14 24 14h33q13 0 16.5 -7t-4.5 -17zM472 225h-281l-75 -209q-6 -16 -23 -16h-55q-11 0 -15.5 6.5t-0.5 16.5l259 688q6 16 23 16h56q17 0 23 -16l259 -688q4 -10 -0.5 -16.5t-15.5 -6.5h-56q-17 0 -23 16
zM444 305l-112 311l-112 -311h224z" />
    <glyph glyph-name="Acircumflex" unicode="&#xc2;" 
d="M326 907l-57 -84q-9 -13 -24 -13h-25q-13 0 -16.5 7t4.5 18l90 109q10 11 25 11h16q15 0 25 -11l91 -109q8 -11 4.5 -18t-16.5 -7h-26q-15 0 -24 13l-59 84h-8zM472 225h-281l-75 -209q-6 -16 -23 -16h-55q-11 0 -15.5 6.5t-0.5 16.5l259 688q6 16 23 16h56q17 0 23 -16
l259 -688q4 -10 -0.5 -16.5t-15.5 -6.5h-56q-17 0 -23 16zM444 305l-112 311l-112 -311h224z" />
    <glyph glyph-name="Atilde" unicode="&#xc3;" 
d="M282 881q-24 0 -29 -34q-3 -20 -20 -20h-11q-20 0 -19 21q7 87 78 87q21 0 39.5 -11t29 -24t23 -24t23.5 -11q22 0 26 34q3 20 20 20h10q22 0 20 -21q-10 -87 -76 -87q-25 0 -45 17.5t-36.5 35t-32.5 17.5zM472 225h-281l-75 -209q-6 -16 -23 -16h-55q-11 0 -15.5 6.5
t-0.5 16.5l259 688q6 16 23 16h56q17 0 23 -16l259 -688q4 -10 -0.5 -16.5t-15.5 -6.5h-56q-17 0 -23 16zM444 305l-112 311l-112 -311h224z" />
    <glyph glyph-name="Adieresis" unicode="&#xc4;" 
d="M300 924v-60q0 -20 -20 -20h-29q-20 0 -20 20v60q0 20 20 20h29q20 0 20 -20zM445 924v-60q0 -20 -20 -20h-29q-20 0 -20 20v60q0 20 20 20h29q20 0 20 -20zM472 225h-281l-75 -209q-6 -16 -23 -16h-55q-11 0 -15.5 6.5t-0.5 16.5l259 688q6 16 23 16h56q17 0 23 -16
l259 -688q4 -10 -0.5 -16.5t-15.5 -6.5h-56q-17 0 -23 16zM444 305l-112 311l-112 -311h224z" />
    <glyph glyph-name="Aring" unicode="&#xc5;" 
d="M331 785q-38 0 -64 25t-26 65t26 65.5t64 25.5q39 0 65 -25t26 -66q0 -40 -26 -65t-65 -25zM331 925q-21 0 -35 -13.5t-14 -36.5q0 -21 14 -35t35 -14t35.5 14t14.5 35q0 23 -14 36.5t-36 13.5zM472 225h-281l-75 -209q-6 -16 -23 -16h-55q-11 0 -15.5 6.5t-0.5 16.5
l259 688q6 16 23 16h56q17 0 23 -16l259 -688q4 -10 -0.5 -16.5t-15.5 -6.5h-56q-17 0 -23 16zM444 305l-112 311l-112 -311h224z" />
    <glyph glyph-name="AE" unicode="&#xc6;" horiz-adv-x="943" 
d="M567 80h310q20 0 20 -20v-40q0 -20 -20 -20h-378q-20 0 -20 20v205h-243l-120 -211q-8 -14 -24 -14h-51q-12 0 -16 7t2 17l394 690q8 14 24 14h431q20 0 20 -20v-40q0 -20 -20 -20h-309v-227h259q20 0 20 -20v-41q0 -20 -20 -20h-259v-260zM479 305v349l-198 -349h198z
" />
    <glyph glyph-name="Ccedilla" unicode="&#xc7;" horiz-adv-x="742" 
d="M627 220l44 -1q25 0 17 -22q-33 -88 -108 -147t-184 -63l-16 -48q80 -15 80 -84q0 -40 -26.5 -65.5t-75.5 -25.5q-33 0 -63 13q-16 9 -11 26l2 5q6 20 25 12q24 -10 47 -10q22 0 36 11.5t14 30.5q0 20 -17.5 33.5t-53.5 13.5q-20 2 -14 23l20 67q-134 15 -215.5 117.5
t-81.5 255.5q0 167 97 272t245 105q102 0 179.5 -51.5t114.5 -143.5q8 -23 -16 -23l-46 -1q-16 0 -24 14q-72 127 -213 127q-110 0 -179.5 -78t-69.5 -214q0 -138 71 -220.5t187 -82.5q149 0 211 138q7 16 24 16z" />
    <glyph glyph-name="Egrave" unicode="&#xc8;" horiz-adv-x="587" 
d="M314 810h-6q-16 0 -24 12l-90 111q-8 10 -4.5 17t16.5 7h33q16 0 24 -14l65 -109q6 -10 2 -17t-16 -7zM164 80h357q20 0 20 -20v-40q0 -20 -20 -20h-432q-20 0 -20 20l3 687q0 20 20 20h428q20 0 20 -20v-40q0 -20 -20 -20h-360l2 -226h307q20 0 20 -20v-41
q0 -20 -20 -20h-307z" />
    <glyph glyph-name="Eacute" unicode="&#xc9;" horiz-adv-x="587" 
d="M409 933l-90 -111q-8 -12 -24 -12h-6q-12 0 -16 7t2 17l65 109q8 14 24 14h33q13 0 16.5 -7t-4.5 -17zM164 80h357q20 0 20 -20v-40q0 -20 -20 -20h-432q-20 0 -20 20l3 687q0 20 20 20h428q20 0 20 -20v-40q0 -20 -20 -20h-360l2 -226h307q20 0 20 -20v-41
q0 -20 -20 -20h-307z" />
    <glyph glyph-name="Ecircumflex" unicode="&#xca;" horiz-adv-x="587" 
d="M292 907l-57 -84q-9 -13 -24 -13h-25q-13 0 -16.5 7t4.5 18l90 109q10 11 25 11h16q15 0 25 -11l91 -109q8 -11 4.5 -18t-16.5 -7h-26q-15 0 -24 13l-59 84h-8zM164 80h357q20 0 20 -20v-40q0 -20 -20 -20h-432q-20 0 -20 20l3 687q0 20 20 20h428q20 0 20 -20v-40
q0 -20 -20 -20h-360l2 -226h307q20 0 20 -20v-41q0 -20 -20 -20h-307z" />
    <glyph glyph-name="Edieresis" unicode="&#xcb;" horiz-adv-x="587" 
d="M266 924v-60q0 -20 -20 -20h-29q-20 0 -20 20v60q0 20 20 20h29q20 0 20 -20zM411 924v-60q0 -20 -20 -20h-29q-20 0 -20 20v60q0 20 20 20h29q20 0 20 -20zM164 80h357q20 0 20 -20v-40q0 -20 -20 -20h-432q-20 0 -20 20l3 687q0 20 20 20h428q20 0 20 -20v-40
q0 -20 -20 -20h-360l2 -226h307q20 0 20 -20v-41q0 -20 -20 -20h-307z" />
    <glyph glyph-name="Igrave" unicode="&#xcc;" horiz-adv-x="353" 
d="M85 957h33q16 0 24 -14l65 -109q6 -10 2 -17t-16 -7h-6q-16 0 -24 12l-90 111q-8 10 -4.5 17t16.5 7zM220 707l4 -687q0 -20 -20 -20h-55q-20 0 -20 20l3 687q0 20 20 20h48q20 0 20 -20z" />
    <glyph glyph-name="Iacute" unicode="&#xcd;" horiz-adv-x="353" 
d="M288 933l-90 -111q-8 -12 -24 -12h-6q-12 0 -16 7t2 17l65 109q8 14 24 14h33q13 0 16.5 -7t-4.5 -17zM220 707l4 -687q0 -20 -20 -20h-55q-20 0 -20 20l3 687q0 20 20 20h48q20 0 20 -20z" />
    <glyph glyph-name="Icircumflex" unicode="&#xce;" horiz-adv-x="353" 
d="M209 944l91 -109q8 -11 4.5 -18t-16.5 -7h-26q-15 0 -24 13l-59 84h-8l-57 -84q-9 -13 -24 -13h-25q-13 0 -16.5 7t4.5 18l90 109q10 11 25 11h16q15 0 25 -11zM152 727h48q20 0 20 -20l4 -687q0 -20 -20 -20h-55q-20 0 -20 20l3 687q0 20 20 20z" />
    <glyph glyph-name="Idieresis" unicode="&#xcf;" horiz-adv-x="353" 
d="M145 924v-60q0 -20 -20 -20h-29q-20 0 -20 20v60q0 20 20 20h29q20 0 20 -20zM290 924v-60q0 -20 -20 -20h-29q-20 0 -20 20v60q0 20 20 20h29q20 0 20 -20zM220 707l4 -687q0 -20 -20 -20h-55q-20 0 -20 20l3 687q0 20 20 20h48q20 0 20 -20z" />
    <glyph glyph-name="Eth" unicode="&#xd0;" horiz-adv-x="721" 
d="M92 727h238q165 0 255 -95.5t90 -257.5q0 -166 -91.5 -270t-255.5 -104h-239q-20 0 -20 20l1 224q-13 0 -13 20v37q0 20 13 20l2 386q0 20 20 20zM163 79h158q124 0 195 76.5t71 208.5q0 135 -70 210t-194 75h-163l2 -328h224q20 0 20 -20v-37q0 -20 -20 -20h-224z" />
    <glyph glyph-name="Ntilde" unicode="&#xd1;" horiz-adv-x="723" 
d="M312 885q-24 0 -29 -34q-3 -20 -20 -20h-11q-20 0 -19 21q7 87 78 87q21 0 39.5 -11t29 -24t23 -24t23.5 -11q22 0 26 34q3 20 20 20h10q22 0 20 -21q-10 -87 -76 -87q-25 0 -45 17.5t-36.5 35t-32.5 17.5zM650 707l4 -687q0 -20 -20 -20h-92q-16 0 -24 14l-359 624
l3 -618q0 -20 -20 -20h-53q-20 0 -20 20l3 687q0 20 20 20h97q16 0 24 -14l348 -603l3 597q0 20 20 20h46q20 0 20 -20z" />
    <glyph glyph-name="Ograve" unicode="&#xd2;" horiz-adv-x="774" 
d="M296 961h33q16 0 24 -14l65 -109q6 -10 2 -17t-16 -7h-6q-16 0 -24 12l-90 111q-8 10 -4.5 17t16.5 7zM393 739q147 0 241 -101t94 -263q0 -168 -98.5 -278t-247.5 -110q-146 0 -241 106t-95 270q0 165 98.5 270.5t248.5 105.5zM387 661q-112 0 -182.5 -78t-70.5 -214
q0 -137 71 -220t183 -83q110 0 181.5 82t71.5 219q0 135 -71 214.5t-183 79.5z" />
    <glyph glyph-name="Oacute" unicode="&#xd3;" horiz-adv-x="774" 
d="M499 937l-90 -111q-8 -12 -24 -12h-6q-12 0 -16 7t2 17l65 109q8 14 24 14h33q13 0 16.5 -7t-4.5 -17zM393 739q147 0 241 -101t94 -263q0 -168 -98.5 -278t-247.5 -110q-146 0 -241 106t-95 270q0 165 98.5 270.5t248.5 105.5zM387 661q-112 0 -182.5 -78t-70.5 -214
q0 -137 71 -220t183 -83q110 0 181.5 82t71.5 219q0 135 -71 214.5t-183 79.5z" />
    <glyph glyph-name="Ocircumflex" unicode="&#xd4;" horiz-adv-x="774" 
d="M382 911l-57 -84q-9 -13 -24 -13h-25q-13 0 -16.5 7t4.5 18l90 109q10 11 25 11h16q15 0 25 -11l91 -109q8 -11 4.5 -18t-16.5 -7h-26q-15 0 -24 13l-59 84h-8zM393 739q147 0 241 -101t94 -263q0 -168 -98.5 -278t-247.5 -110q-146 0 -241 106t-95 270q0 165 98.5 270.5
t248.5 105.5zM388 66q110 0 181.5 82t71.5 219q0 135 -71 214.5t-183 79.5t-182.5 -78t-70.5 -214q0 -137 71 -220t183 -83z" />
    <glyph glyph-name="Otilde" unicode="&#xd5;" horiz-adv-x="774" 
d="M337 939q21 0 39.5 -11t29 -24t23 -24t23.5 -11q22 0 26 34q3 20 20 20h10q22 0 20 -21q-10 -87 -76 -87q-25 0 -45 17.5t-36.5 35t-32.5 17.5q-24 0 -29 -34q-3 -20 -20 -20h-11q-20 0 -19 21q7 87 78 87zM393 739q147 0 241 -101t94 -263q0 -168 -98.5 -278
t-247.5 -110q-146 0 -241 106t-95 270q0 165 98.5 270.5t248.5 105.5zM387 661q-112 0 -182.5 -78t-70.5 -214q0 -137 71 -220t183 -83q110 0 181.5 82t71.5 219q0 135 -71 214.5t-183 79.5z" />
    <glyph glyph-name="Odieresis" unicode="&#xd6;" horiz-adv-x="774" 
d="M356 928v-60q0 -20 -20 -20h-29q-20 0 -20 20v60q0 20 20 20h29q20 0 20 -20zM501 928v-60q0 -20 -20 -20h-29q-20 0 -20 20v60q0 20 20 20h29q20 0 20 -20zM393 739q147 0 241 -101t94 -263q0 -168 -98.5 -278t-247.5 -110q-146 0 -241 106t-95 270q0 165 98.5 270.5
t248.5 105.5zM387 661q-112 0 -182.5 -78t-70.5 -214q0 -137 71 -220t183 -83q110 0 181.5 82t71.5 219q0 135 -71 214.5t-183 79.5z" />
    <glyph glyph-name="multiply" unicode="&#xd7;" horiz-adv-x="641" 
d="M445 240l62 -62q14 -14 0 -28l-96 -97q-14 -14 -28 0l-62 63l-63 -63q-14 -14 -28 0l-96 97q-14 14 0 28l63 62l-63 63q-14 14 0 28l96 95q14 14 28 0l63 -62l62 62q14 14 28 0l96 -95q14 -14 0 -28z" />
    <glyph glyph-name="Oslash" unicode="&#xd8;" horiz-adv-x="800" 
d="M729 706l-63 -76q87 -100 87 -255q0 -168 -98.5 -278t-247.5 -110q-121 0 -210 76l-42 -51q-9 -12 -25 -12h-51q-13 0 -16.5 7t4.5 18l78 94q-74 101 -74 244q0 165 98.5 270.5t248.5 105.5q109 0 192 -58l32 38q9 12 25 12h50q13 0 16.5 -7.5t-4.5 -17.5zM159 369
q0 -104 44 -181l354 428q-64 45 -146 45q-111 0 -181.5 -78t-70.5 -214zM413 66q110 0 181 82t71 219q0 118 -55 195l-359 -434q67 -62 162 -62z" />
    <glyph glyph-name="Ugrave" unicode="&#xd9;" horiz-adv-x="731" 
d="M273 961h33q16 0 24 -14l65 -109q6 -10 2 -17t-16 -7h-6q-16 0 -24 12l-90 111q-8 10 -4.5 17t16.5 7zM661 707l1 -394q1 -155 -81.5 -240.5t-215.5 -85.5t-215 85.5t-81 240.5l2 394q0 20 20 20h47q20 0 20 -20l2 -384q1 -128 55.5 -192.5t151.5 -64.5t150.5 64.5
t53.5 192.5l2 384q0 20 20 20h48q20 0 20 -20z" />
    <glyph glyph-name="Uacute" unicode="&#xda;" horiz-adv-x="731" 
d="M476 937l-90 -111q-8 -12 -24 -12h-6q-12 0 -16 7t2 17l65 109q8 14 24 14h33q13 0 16.5 -7t-4.5 -17zM661 707l1 -394q1 -155 -81.5 -240.5t-215.5 -85.5t-215 85.5t-81 240.5l2 394q0 20 20 20h47q20 0 20 -20l2 -384q1 -128 55.5 -192.5t151.5 -64.5t150.5 64.5
t53.5 192.5l2 384q0 20 20 20h48q20 0 20 -20z" />
    <glyph glyph-name="Ucircumflex" unicode="&#xdb;" horiz-adv-x="731" 
d="M359 911l-57 -84q-9 -13 -24 -13h-25q-13 0 -16.5 7t4.5 18l90 109q10 11 25 11h16q15 0 25 -11l91 -109q8 -11 4.5 -18t-16.5 -7h-26q-15 0 -24 13l-59 84h-8zM661 707l1 -394q1 -155 -81.5 -240.5t-215.5 -85.5t-215 85.5t-81 240.5l2 394q0 20 20 20h47q20 0 20 -20
l2 -384q1 -128 55.5 -192.5t151.5 -64.5t150.5 64.5t53.5 192.5l2 384q0 20 20 20h48q20 0 20 -20z" />
    <glyph glyph-name="Udieresis" unicode="&#xdc;" horiz-adv-x="731" 
d="M333 928v-60q0 -20 -20 -20h-29q-20 0 -20 20v60q0 20 20 20h29q20 0 20 -20zM478 928v-60q0 -20 -20 -20h-29q-20 0 -20 20v60q0 20 20 20h29q20 0 20 -20zM661 707l1 -394q1 -155 -81.5 -240.5t-215.5 -85.5t-215 85.5t-81 240.5l2 394q0 20 20 20h47q20 0 20 -20
l2 -384q1 -128 55.5 -192.5t151.5 -64.5t150.5 64.5t53.5 192.5l2 384q0 20 20 20h48q20 0 20 -20z" />
    <glyph glyph-name="Yacute" unicode="&#xdd;" horiz-adv-x="598" 
d="M411 937l-90 -111q-8 -12 -24 -12h-6q-12 0 -16 7t2 17l65 109q8 14 24 14h33q13 0 16.5 -7t-4.5 -17zM345 306l2 -286q0 -20 -20 -20h-53q-20 0 -20 20l2 286l-229 397q-6 11 -2 17.5t16 6.5h53q16 0 24 -14l180 -313h6l181 313q8 14 24 14h48q12 0 16 -6.5t-2 -17.5z
" />
    <glyph glyph-name="germandbls" unicode="&#xdf;" horiz-adv-x="610" 
d="M421 379q143 -43 143 -180q0 -90 -66 -147.5t-201 -61.5q-21 0 -21 20v41q0 20 20 20q183 7 183 132t-172 134q-20 0 -20 20v34q0 19 20 21q71 4 106.5 38.5t35.5 87.5q0 56 -37 90t-97 34q-69 0 -112 -49.5t-42 -154.5l3 -438q0 -20 -20 -20h-55q-20 0 -20 20l3 438
q2 131 67 206.5t178 75.5q100 0 157.5 -56t57.5 -138q0 -55 -28 -99t-83 -68z" />
    <glyph glyph-name="agrave" unicode="&#xe0;" horiz-adv-x="561" 
d="M186 760h33q16 0 24 -14l65 -109q6 -11 2 -17.5t-16 -6.5h-6q-16 0 -24 12l-90 111q-8 10 -4.5 17t16.5 7zM288 543q93 0 143.5 -49.5t51.5 -149.5l3 -324q0 -20 -20 -20h-49q-20 0 -20 20v64h-7q-61 -93 -183 -93q-73 0 -118 38.5t-45 108.5q0 90 80 132t247 52l26 2v29
q0 115 -117 115q-88 0 -120 -63q-9 -15 -24 -15h-43q-11 0 -17 3.5t-4 9.5q18 58 72 99t144 41zM397 258l-24 -2q-127 -8 -185 -34t-58 -78q0 -37 25.5 -57t70.5 -20q69 0 117.5 40.5t53.5 87.5v63z" />
    <glyph glyph-name="aacute" unicode="&#xe1;" horiz-adv-x="561" 
d="M389 736l-90 -111q-8 -12 -24 -12h-6q-12 0 -16 6.5t2 17.5l65 109q8 14 24 14h33q13 0 16.5 -7t-4.5 -17zM288 543q93 0 143.5 -49.5t51.5 -149.5l3 -324q0 -20 -20 -20h-49q-20 0 -20 20v64h-7q-61 -93 -183 -93q-73 0 -118 38.5t-45 108.5q0 90 80 132t247 52l26 2v29
q0 115 -117 115q-88 0 -120 -63q-9 -15 -24 -15h-43q-11 0 -17 3.5t-4 9.5q18 58 72 99t144 41zM397 258l-24 -2q-127 -8 -185 -34t-58 -78q0 -37 25.5 -57t70.5 -20q69 0 117.5 40.5t53.5 87.5v63z" />
    <glyph glyph-name="acircumflex" unicode="&#xe2;" horiz-adv-x="561" 
d="M273 710l-57 -84q-9 -13 -24 -13h-25q-13 0 -16.5 7.5t4.5 17.5l90 109q10 11 25 11h16q15 0 25 -11l91 -109q8 -10 4.5 -17.5t-16.5 -7.5h-26q-15 0 -24 13l-59 84h-8zM466 0h-49q-20 0 -20 20v64h-7q-61 -93 -183 -93q-73 0 -118 38.5t-45 108.5q0 90 80 132t247 52
l26 2v29q0 115 -117 115q-88 0 -120 -63q-9 -15 -24 -15h-43q-25 0 -17 22q20 55 73 93t139 38q93 0 143.5 -49.5t51.5 -149.5l3 -324q0 -20 -20 -20zM226 67q69 0 117.5 40.5t53.5 87.5v63l-24 -2q-127 -8 -185 -34t-58 -78q0 -37 25.5 -57t70.5 -20z" />
    <glyph glyph-name="atilde" unicode="&#xe3;" horiz-adv-x="561" 
d="M227 738q21 0 39.5 -11t29 -24t23 -24t23.5 -11q22 0 26 34q3 20 20 20h10q22 0 20 -21q-10 -87 -76 -87q-25 0 -45 17.5t-36.5 35t-32.5 17.5q-24 0 -29 -34q-3 -20 -20 -20h-11q-20 0 -19 21q7 87 78 87zM288 543q93 0 143.5 -49.5t51.5 -149.5l3 -324q0 -20 -20 -20
h-49q-20 0 -20 20v64h-7q-61 -93 -183 -93q-73 0 -118 38.5t-45 108.5q0 90 80 132t247 52l26 2v29q0 115 -117 115q-88 0 -120 -63q-9 -15 -24 -15h-43q-11 0 -17 3.5t-4 9.5q18 58 72 99t144 41zM397 258l-24 -2q-127 -8 -185 -34t-58 -78q0 -37 25.5 -57t70.5 -20
q69 0 117.5 40.5t53.5 87.5v63z" />
    <glyph glyph-name="adieresis" unicode="&#xe4;" horiz-adv-x="561" 
d="M246 727v-60q0 -20 -20 -20h-29q-20 0 -20 20v60q0 20 20 20h29q20 0 20 -20zM391 727v-60q0 -20 -20 -20h-29q-20 0 -20 20v60q0 20 20 20h29q20 0 20 -20zM288 543q93 0 143.5 -49.5t51.5 -149.5l3 -324q0 -20 -20 -20h-49q-20 0 -20 20v64h-7q-61 -93 -183 -93
q-73 0 -118 38.5t-45 108.5q0 90 80 132t247 52l26 2v29q0 115 -117 115q-88 0 -120 -63q-9 -15 -24 -15h-43q-11 0 -17 3.5t-4 9.5q18 58 72 99t144 41zM397 258l-24 -2q-127 -8 -185 -34t-58 -78q0 -37 25.5 -57t70.5 -20q69 0 117.5 40.5t53.5 87.5v63z" />
    <glyph glyph-name="aring" unicode="&#xe5;" horiz-adv-x="561" 
d="M277 769q39 0 65 -25t26 -66q0 -40 -26 -65t-65 -25q-38 0 -64 25t-26 65t26 65.5t64 25.5zM277 728q-21 0 -35 -13.5t-14 -36.5q0 -21 14 -35t35 -14t35.5 14t14.5 35q0 23 -14 36.5t-36 13.5zM288 543q93 0 143.5 -49.5t51.5 -149.5l3 -324q0 -20 -20 -20h-49
q-20 0 -20 20v64h-7q-61 -93 -183 -93q-73 0 -118 38.5t-45 108.5q0 90 80 132t247 52l26 2v29q0 115 -117 115q-88 0 -120 -63q-9 -15 -24 -15h-43q-11 0 -17 3.5t-4 9.5q18 58 72 99t144 41zM397 258l-24 -2q-127 -8 -185 -34t-58 -78q0 -37 25.5 -57t70.5 -20
q69 0 117.5 40.5t53.5 87.5v63z" />
    <glyph glyph-name="ae" unicode="&#xe6;" horiz-adv-x="921" 
d="M649 542q110 0 169.5 -76t57.5 -193q0 -20 -21 -20h-370q1 -87 45.5 -137.5t119.5 -50.5q83 0 126 68q8 14 24 14h43q11 0 15.5 -6.5t-0.5 -16.5q-30 -66 -85.5 -101.5t-129.5 -35.5q-71 0 -126.5 33.5t-86.5 94.5h-3q-28 -57 -87 -90t-133 -33t-118.5 38t-44.5 108
q0 90 80 132t247 52l26 2v23q0 122 -117 122q-88 0 -120 -63q-9 -15 -24 -15h-43q-25 0 -17 22q20 55 73 93t139 38q126 0 171 -89q71 87 190 87zM490 322h297q-2 61 -40.5 102t-104.5 41q-64 0 -102.5 -39.5t-49.5 -103.5zM397 258l-24 -2q-127 -8 -185 -34t-58 -78
q0 -36 25.5 -56t70.5 -20q72 0 121.5 50.5t49.5 118.5v21z" />
    <glyph glyph-name="ccedilla" unicode="&#xe7;" horiz-adv-x="532" 
d="M292 66q88 0 125 69q7 15 23 15h44q11 0 15.5 -6.5t0.5 -16.5q-23 -57 -74 -96t-124 -43l-16 -49q80 -15 80 -84q0 -40 -26.5 -65.5t-75.5 -25.5q-33 0 -63 13q-16 9 -11 26l2 5q6 20 25 12q24 -10 47 -10q22 0 36 11.5t14 30.5q0 20 -17.5 33.5t-53.5 13.5q-20 2 -14 23
l20 67q-95 13 -150 85.5t-55 184.5q0 129 67 206.5t177 77.5q82 0 139 -42.5t77 -106.5q4 -10 -1 -16t-16 -6h-44q-15 0 -23 15q-41 78 -131 78q-75 0 -116.5 -51.5t-41.5 -151.5q0 -96 42 -146t119 -50z" />
    <glyph glyph-name="egrave" unicode="&#xe8;" horiz-adv-x="568" 
d="M193 760h33q16 0 24 -14l65 -109q6 -11 2 -17.5t-16 -6.5h-6q-16 0 -24 12l-90 111q-8 10 -4.5 17t16.5 7zM296 542q110 0 169.5 -76t57.5 -193q0 -20 -21 -20h-370q1 -87 45.5 -137.5t119.5 -50.5q85 0 126 68q8 14 24 14h43q11 0 15.5 -6.5t-0.5 -16.5
q-30 -66 -85.5 -101.5t-129.5 -35.5q-109 0 -177.5 76t-68.5 199q0 125 70 202.5t182 77.5zM289 465q-64 0 -102.5 -39.5t-49.5 -103.5h297q-2 61 -40.5 102t-104.5 41z" />
    <glyph glyph-name="eacute" unicode="&#xe9;" horiz-adv-x="568" 
d="M397 736l-90 -111q-8 -12 -24 -12h-6q-12 0 -16 6.5t2 17.5l65 109q8 14 24 14h33q13 0 16.5 -7t-4.5 -17zM296 542q110 0 169.5 -76t57.5 -193q0 -20 -21 -20h-370q1 -87 45.5 -137.5t119.5 -50.5q85 0 126 68q8 14 24 14h43q11 0 15.5 -6.5t-0.5 -16.5
q-30 -66 -85.5 -101.5t-129.5 -35.5q-109 0 -177.5 76t-68.5 199q0 125 70 202.5t182 77.5zM289 465q-64 0 -102.5 -39.5t-49.5 -103.5h297q-2 61 -40.5 102t-104.5 41z" />
    <glyph glyph-name="ecircumflex" unicode="&#xea;" horiz-adv-x="568" 
d="M280 710l-57 -84q-9 -13 -24 -13h-25q-13 0 -16.5 7.5t4.5 17.5l90 109q10 11 25 11h16q15 0 25 -11l91 -109q8 -10 4.5 -17.5t-16.5 -7.5h-26q-15 0 -24 13l-59 84h-8zM296 542q110 0 169.5 -76t57.5 -193q0 -20 -21 -20h-370q1 -87 45.5 -137.5t119.5 -50.5
q85 0 126 68q8 14 24 14h43q11 0 15.5 -6.5t-0.5 -16.5q-30 -66 -85.5 -101.5t-129.5 -35.5q-109 0 -177.5 76t-68.5 199q0 125 70 202.5t182 77.5zM137 322h297q-2 61 -40.5 102t-104.5 41q-64 0 -102.5 -39.5t-49.5 -103.5z" />
    <glyph glyph-name="edieresis" unicode="&#xeb;" horiz-adv-x="568" 
d="M254 727v-60q0 -20 -20 -20h-29q-20 0 -20 20v60q0 20 20 20h29q20 0 20 -20zM399 727v-60q0 -20 -20 -20h-29q-20 0 -20 20v60q0 20 20 20h29q20 0 20 -20zM296 542q110 0 169.5 -76t57.5 -193q0 -20 -21 -20h-370q1 -87 45.5 -137.5t119.5 -50.5q85 0 126 68
q8 14 24 14h43q11 0 15.5 -6.5t-0.5 -16.5q-30 -66 -85.5 -101.5t-129.5 -35.5q-109 0 -177.5 76t-68.5 199q0 125 70 202.5t182 77.5zM289 465q-64 0 -102.5 -39.5t-49.5 -103.5h297q-2 61 -40.5 102t-104.5 41z" />
    <glyph glyph-name="igrave" unicode="&#xec;" horiz-adv-x="261" 
d="M39 760h33q16 0 24 -14l65 -109q6 -11 2 -17.5t-16 -6.5h-6q-16 0 -24 12l-90 111q-8 10 -4.5 17t16.5 7zM173 511l3 -491q0 -20 -20 -20h-52q-20 0 -20 20l4 491q0 20 20 20h45q20 0 20 -20z" />
    <glyph glyph-name="iacute" unicode="&#xed;" horiz-adv-x="261" 
d="M243 736l-90 -111q-8 -12 -24 -12h-6q-12 0 -16 6.5t2 17.5l65 109q8 14 24 14h33q13 0 16.5 -7t-4.5 -17zM173 511l3 -491q0 -20 -20 -20h-52q-20 0 -20 20l4 491q0 20 20 20h45q20 0 20 -20z" />
    <glyph glyph-name="icircumflex" unicode="&#xee;" horiz-adv-x="261" 
d="M164 747l91 -109q8 -10 4.5 -17.5t-16.5 -7.5h-26q-15 0 -24 13l-59 84h-8l-57 -84q-9 -13 -24 -13h-25q-13 0 -16.5 7.5t4.5 17.5l90 109q10 11 25 11h16q15 0 25 -11zM108 531h45q20 0 20 -20l3 -491q0 -20 -20 -20h-52q-20 0 -20 20l4 491q0 20 20 20z" />
    <glyph glyph-name="idieresis" unicode="&#xef;" horiz-adv-x="261" 
d="M99 727v-60q0 -20 -20 -20h-29q-20 0 -20 20v60q0 20 20 20h29q20 0 20 -20zM244 727v-60q0 -20 -20 -20h-29q-20 0 -20 20v60q0 20 20 20h29q20 0 20 -20zM173 511l3 -491q0 -20 -20 -20h-52q-20 0 -20 20l4 491q0 20 20 20h45q20 0 20 -20z" />
    <glyph glyph-name="ntilde" unicode="&#xf1;" horiz-adv-x="575" 
d="M239 738q21 0 39.5 -11t29 -24t23 -24t23.5 -11q22 0 26 34q3 20 20 20h10q22 0 20 -21q-10 -87 -76 -87q-25 0 -45 17.5t-36.5 35t-32.5 17.5q-24 0 -29 -34q-3 -20 -20 -20h-11q-20 0 -19 21q7 87 78 87zM336 543q76 0 120.5 -50.5t44.5 -142.5v-330q0 -20 -20 -20h-46
q-20 0 -20 20v308q0 65 -28.5 98t-79.5 33q-57 0 -95.5 -41t-46.5 -120l1 -278q0 -20 -20 -20h-52q-20 0 -20 20l4 491q0 20 20 20h45q20 0 20 -20l1 -59l7 -1q65 92 165 92z" />
    <glyph glyph-name="ograve" unicode="&#xf2;" horiz-adv-x="590" 
d="M203 760h33q16 0 24 -14l65 -109q6 -11 2 -17.5t-16 -6.5h-6q-16 0 -24 12l-90 111q-8 10 -4.5 17t16.5 7zM299 543q107 0 176.5 -75t69.5 -196q0 -124 -72 -204.5t-182 -80.5q-107 0 -177 78t-70 198q0 124 72 202t183 78zM290 466q-71 0 -115 -53t-44 -142
q0 -91 48 -148t120 -57q70 0 114.5 54t44.5 142q0 93 -47.5 148.5t-120.5 55.5z" />
    <glyph glyph-name="oacute" unicode="&#xf3;" horiz-adv-x="590" 
d="M407 736l-90 -111q-8 -12 -24 -12h-6q-12 0 -16 6.5t2 17.5l65 109q8 14 24 14h33q13 0 16.5 -7t-4.5 -17zM299 543q107 0 176.5 -75t69.5 -196q0 -124 -72 -204.5t-182 -80.5q-107 0 -177 78t-70 198q0 124 72 202t183 78zM290 466q-71 0 -115 -53t-44 -142
q0 -91 48 -148t120 -57q70 0 114.5 54t44.5 142q0 93 -47.5 148.5t-120.5 55.5z" />
    <glyph glyph-name="ocircumflex" unicode="&#xf4;" horiz-adv-x="590" 
d="M290 710l-57 -84q-9 -13 -24 -13h-25q-13 0 -16.5 7.5t4.5 17.5l90 109q10 11 25 11h16q15 0 25 -11l91 -109q8 -10 4.5 -17.5t-16.5 -7.5h-26q-15 0 -24 13l-59 84h-8zM299 543q107 0 176.5 -75t69.5 -196q0 -124 -72 -204.5t-182 -80.5q-107 0 -177 78t-70 198
q0 124 72 202t183 78zM299 66q70 0 114.5 54t44.5 142q0 93 -47.5 148.5t-120.5 55.5q-71 0 -115 -53t-44 -142q0 -91 48 -148t120 -57z" />
    <glyph glyph-name="otilde" unicode="&#xf5;" horiz-adv-x="590" 
d="M245 738q21 0 39.5 -11t29 -24t23 -24t23.5 -11q22 0 26 34q3 20 20 20h10q22 0 20 -21q-10 -87 -76 -87q-25 0 -45 17.5t-36.5 35t-32.5 17.5q-24 0 -29 -34q-3 -20 -20 -20h-11q-20 0 -19 21q7 87 78 87zM299 543q107 0 176.5 -75t69.5 -196q0 -124 -72 -204.5
t-182 -80.5q-107 0 -177 78t-70 198q0 124 72 202t183 78zM290 466q-71 0 -115 -53t-44 -142q0 -91 48 -148t120 -57q70 0 114.5 54t44.5 142q0 93 -47.5 148.5t-120.5 55.5z" />
    <glyph glyph-name="odieresis" unicode="&#xf6;" horiz-adv-x="590" 
d="M263 727v-60q0 -20 -20 -20h-29q-20 0 -20 20v60q0 20 20 20h29q20 0 20 -20zM408 727v-60q0 -20 -20 -20h-29q-20 0 -20 20v60q0 20 20 20h29q20 0 20 -20zM299 543q107 0 176.5 -75t69.5 -196q0 -124 -72 -204.5t-182 -80.5q-107 0 -177 78t-70 198q0 124 72 202
t183 78zM290 466q-71 0 -115 -53t-44 -142q0 -91 48 -148t120 -57q70 0 114.5 54t44.5 142q0 93 -47.5 148.5t-120.5 55.5z" />
    <glyph glyph-name="divide" unicode="&#xf7;" horiz-adv-x="763" 
d="M435 488v-65q0 -20 -20 -20h-58q-20 0 -20 20v65q0 20 20 20h58q20 0 20 -20zM643 287v-38q0 -20 -20 -20h-483q-20 0 -20 20v38q0 20 20 20h483q20 0 20 -20zM435 103v-64q0 -20 -20 -20h-58q-20 0 -20 20v64q0 20 20 20h58q20 0 20 -20z" />
    <glyph glyph-name="oslash" unicode="&#xf8;" horiz-adv-x="642" 
d="M575 506l-56 -64q49 -71 49 -170q0 -123 -72.5 -204t-181.5 -81q-82 0 -145 49l-21 -25q-10 -11 -25 -11h-47q-13 0 -16 7t5 18l54 62q-52 74 -52 176q0 124 72 202t183 78q84 0 149 -49l22 26q10 11 25 11h46q13 0 16 -7.5t-5 -17.5zM154 271q0 -66 25 -114l236 272
q-43 37 -102 37q-71 0 -115 -53t-44 -142zM480 262q0 63 -23 109l-233 -271q42 -34 98 -34q70 0 114 54t44 142z" />
    <glyph glyph-name="ugrave" unicode="&#xf9;" horiz-adv-x="577" 
d="M196 760h33q16 0 24 -14l65 -109q6 -11 2 -17.5t-16 -6.5h-6q-16 0 -24 12l-90 111q-8 10 -4.5 17t16.5 7zM499 511l3 -491q0 -20 -20 -20h-51q-20 0 -20 20l1 59h-7q-63 -92 -164 -92q-77 0 -122 52t-45 150l2 322q0 20 20 20h45q20 0 20 -20l2 -301q1 -139 106 -139
q58 0 95.5 41t47.5 121l2 278q0 20 20 20h45q20 0 20 -20z" />
    <glyph glyph-name="uacute" unicode="&#xfa;" horiz-adv-x="577" 
d="M399 736l-90 -111q-8 -12 -24 -12h-6q-12 0 -16 6.5t2 17.5l65 109q8 14 24 14h33q13 0 16.5 -7t-4.5 -17zM499 511l3 -491q0 -20 -20 -20h-51q-20 0 -20 20l1 59h-7q-63 -92 -164 -92q-77 0 -122 52t-45 150l2 322q0 20 20 20h45q20 0 20 -20l2 -301q1 -139 106 -139
q58 0 95.5 41t47.5 121l2 278q0 20 20 20h45q20 0 20 -20z" />
    <glyph glyph-name="ucircumflex" unicode="&#xfb;" horiz-adv-x="577" 
d="M283 710l-57 -84q-9 -13 -24 -13h-25q-13 0 -16.5 7.5t4.5 17.5l90 109q10 11 25 11h16q15 0 25 -11l91 -109q8 -10 4.5 -17.5t-16.5 -7.5h-26q-15 0 -24 13l-59 84h-8zM482 0h-51q-20 0 -20 20l1 59h-7q-63 -92 -164 -92q-77 0 -122 52t-45 150l2 322q0 20 20 20h45
q20 0 20 -20l2 -301q1 -139 106 -139q58 0 95.5 41t47.5 121l2 278q0 20 20 20h45q20 0 20 -20l3 -491q0 -20 -20 -20z" />
    <glyph glyph-name="udieresis" unicode="&#xfc;" horiz-adv-x="577" 
d="M256 727v-60q0 -20 -20 -20h-29q-20 0 -20 20v60q0 20 20 20h29q20 0 20 -20zM401 727v-60q0 -20 -20 -20h-29q-20 0 -20 20v60q0 20 20 20h29q20 0 20 -20zM499 511l3 -491q0 -20 -20 -20h-51q-20 0 -20 20l1 59h-7q-63 -92 -164 -92q-77 0 -122 52t-45 150l2 322
q0 20 20 20h45q20 0 20 -20l2 -301q1 -139 106 -139q58 0 95.5 41t47.5 121l2 278q0 20 20 20h45q20 0 20 -20z" />
    <glyph glyph-name="yacute" unicode="&#xfd;" horiz-adv-x="525" 
d="M376 736l-90 -111q-8 -12 -24 -12h-6q-12 0 -16 6.5t2 17.5l65 109q8 14 24 14h33q13 0 16.5 -7t-4.5 -17zM436 531h43q24 0 16 -23l-249 -712q-6 -16 -23 -16h-53q-24 0 -16 23l63 174l-188 531q-8 23 16 23h44q17 0 23 -16l143 -417h7l151 417q6 16 23 16z" />
    <glyph glyph-name="ydieresis" unicode="&#xff;" horiz-adv-x="525" 
d="M233 727v-60q0 -20 -20 -20h-29q-20 0 -20 20v60q0 20 20 20h29q20 0 20 -20zM378 727v-60q0 -20 -20 -20h-29q-20 0 -20 20v60q0 20 20 20h29q20 0 20 -20zM436 531h43q24 0 16 -23l-249 -712q-6 -16 -23 -16h-53q-24 0 -16 23l63 174l-188 531q-8 23 16 23h44
q17 0 23 -16l143 -417h7l151 417q6 16 23 16z" />
    <glyph glyph-name="Amacron" unicode="&#x100;" 
d="M446 889v-14q0 -20 -20 -20h-188q-20 0 -20 20v14q0 20 20 20h188q20 0 20 -20zM472 225h-281l-75 -209q-6 -16 -23 -16h-55q-11 0 -15.5 6.5t-0.5 16.5l259 688q6 16 23 16h56q17 0 23 -16l259 -688q4 -10 -0.5 -16.5t-15.5 -6.5h-56q-17 0 -23 16zM444 305l-112 311
l-112 -311h224z" />
    <glyph glyph-name="amacron" unicode="&#x101;" horiz-adv-x="561" 
d="M392 692v-14q0 -20 -20 -20h-188q-20 0 -20 20v14q0 20 20 20h188q20 0 20 -20zM288 543q93 0 143.5 -49.5t51.5 -149.5l3 -324q0 -20 -20 -20h-49q-20 0 -20 20v64h-7q-61 -93 -183 -93q-73 0 -118 38.5t-45 108.5q0 90 80 132t247 52l26 2v29q0 115 -117 115
q-88 0 -120 -63q-9 -15 -24 -15h-43q-11 0 -17 3.5t-4 9.5q18 58 72 99t144 41zM397 258l-24 -2q-127 -8 -185 -34t-58 -78q0 -37 25.5 -57t70.5 -20q69 0 117.5 40.5t53.5 87.5v63z" />
    <glyph glyph-name="Abreve" unicode="&#x102;" 
d="M330 801q-59 0 -94.5 30t-35.5 89q0 15 20 15h14q20 0 20 -15q0 -70 76 -70q77 0 77 70q0 15 20 15h15q20 0 20 -15q0 -59 -36 -89t-96 -30zM472 225h-281l-75 -209q-6 -16 -23 -16h-55q-11 0 -15.5 6.5t-0.5 16.5l259 688q6 16 23 16h56q17 0 23 -16l259 -688
q4 -10 -0.5 -16.5t-15.5 -6.5h-56q-17 0 -23 16zM444 305l-112 311l-112 -311h224z" />
    <glyph glyph-name="abreve" unicode="&#x103;" horiz-adv-x="561" 
d="M408 723q0 -59 -36 -89t-96 -30q-59 0 -94.5 30t-35.5 89q0 15 20 15h14q20 0 20 -15q0 -70 76 -70q77 0 77 70q0 15 20 15h15q20 0 20 -15zM288 543q93 0 143.5 -49.5t51.5 -149.5l3 -324q0 -20 -20 -20h-49q-20 0 -20 20v64h-7q-61 -93 -183 -93q-73 0 -118 38.5
t-45 108.5q0 90 80 132t247 52l26 2v29q0 115 -117 115q-88 0 -120 -63q-9 -15 -24 -15h-43q-11 0 -17 3.5t-4 9.5q18 58 72 99t144 41zM397 258l-24 -2q-127 -8 -185 -34t-58 -78q0 -37 25.5 -57t70.5 -20q69 0 117.5 40.5t53.5 87.5v63z" />
    <glyph glyph-name="Cacute" unicode="&#x106;" horiz-adv-x="742" 
d="M483 932l-90 -111q-8 -12 -24 -12h-6q-12 0 -16 6.5t2 17.5l65 109q8 14 24 14h33q13 0 16.5 -7t-4.5 -17zM388 739q102 0 179.5 -51.5t114.5 -143.5q8 -23 -16 -23l-46 -1q-16 0 -24 14q-72 127 -213 127q-110 0 -179.5 -78t-69.5 -214q0 -138 71 -220.5t187 -82.5
q149 0 211 138q7 16 24 16l44 -1q25 0 17 -22q-34 -90 -112 -150t-192 -60q-151 0 -244.5 105t-93.5 270q0 167 97 272t245 105z" />
    <glyph glyph-name="cacute" unicode="&#x107;" horiz-adv-x="532" 
d="M391 736l-90 -111q-8 -12 -24 -12h-6q-12 0 -16 6.5t2 17.5l65 109q8 14 24 14h33q13 0 16.5 -7t-4.5 -17zM288 543q82 0 139 -42.5t77 -106.5q4 -10 -1 -16t-16 -6h-44q-15 0 -23 15q-41 78 -131 78q-75 0 -116.5 -51.5t-41.5 -151.5q0 -96 42 -146t119 -50q88 0 125 69
q7 15 23 15h44q11 0 15.5 -6.5t0.5 -16.5q-25 -60 -80 -100t-135 -40q-110 0 -175.5 75t-65.5 197q0 129 67 206.5t177 77.5z" />
    <glyph glyph-name="Cdotaccent" unicode="&#x10a;" horiz-adv-x="742" 
d="M414 922v-60q0 -20 -20 -20h-45q-20 0 -20 20v60q0 20 20 20h45q20 0 20 -20zM388 739q102 0 179.5 -51.5t114.5 -143.5q8 -23 -16 -23l-46 -1q-16 0 -24 14q-72 127 -213 127q-110 0 -179.5 -78t-69.5 -214q0 -138 71 -220.5t187 -82.5q149 0 211 138q7 16 24 16l44 -1
q25 0 17 -22q-34 -90 -112 -150t-192 -60q-151 0 -244.5 105t-93.5 270q0 167 97 272t245 105z" />
    <glyph glyph-name="cdotaccent" unicode="&#x10b;" horiz-adv-x="532" 
d="M323 726v-60q0 -20 -20 -20h-45q-20 0 -20 20v60q0 20 20 20h45q20 0 20 -20zM288 543q82 0 139 -42.5t77 -106.5q4 -10 -1 -16t-16 -6h-44q-15 0 -23 15q-41 78 -131 78q-75 0 -116.5 -51.5t-41.5 -151.5q0 -96 42 -146t119 -50q88 0 125 69q7 15 23 15h44
q11 0 15.5 -6.5t0.5 -16.5q-25 -60 -80 -100t-135 -40q-110 0 -175.5 75t-65.5 197q0 129 67 206.5t177 77.5z" />
    <glyph glyph-name="Ccaron" unicode="&#x10c;" horiz-adv-x="742" 
d="M378 809h-16q-15 0 -25 11l-91 109q-8 11 -4.5 18t16.5 7h26q15 0 24 -13l59 -84h8l57 84q9 13 24 13h25q13 0 16.5 -7t-4.5 -18l-90 -109q-10 -11 -25 -11zM627 220l44 -1q25 0 17 -22q-34 -90 -112 -150t-192 -60q-151 0 -244.5 105t-93.5 270q0 167 97 272t245 105
q102 0 179.5 -51.5t114.5 -143.5q8 -23 -16 -23l-46 -1q-16 0 -24 14q-72 127 -213 127q-110 0 -179.5 -78t-69.5 -214q0 -138 71 -220.5t187 -82.5q149 0 211 138q7 16 24 16z" />
    <glyph glyph-name="ccaron" unicode="&#x10d;" horiz-adv-x="532" 
d="M287 613h-16q-15 0 -25 11l-91 109q-8 11 -4.5 18t16.5 7h26q15 0 24 -13l59 -84h8l57 84q9 13 24 13h25q13 0 16.5 -7t-4.5 -18l-90 -109q-10 -11 -25 -11zM292 66q88 0 125 69q7 15 23 15h44q11 0 15.5 -6.5t0.5 -16.5q-25 -60 -80 -100t-135 -40q-110 0 -175.5 75
t-65.5 197q0 129 67 206.5t177 77.5q82 0 139 -42.5t77 -106.5q4 -10 -1 -16t-16 -6h-44q-15 0 -23 15q-41 78 -131 78q-75 0 -116.5 -51.5t-41.5 -151.5q0 -96 42 -146t119 -50z" />
    <glyph glyph-name="Dcaron" unicode="&#x10e;" horiz-adv-x="721" 
d="M322 809h-16q-15 0 -25 11l-91 109q-8 11 -4.5 18t16.5 7h26q15 0 24 -13l59 -84h8l57 84q9 13 24 13h25q13 0 16.5 -7t-4.5 -18l-90 -109q-10 -11 -25 -11zM92 727h238q165 0 255 -95.5t90 -257.5q0 -166 -91.5 -270t-255.5 -104h-239q-20 0 -20 20l3 687q0 20 20 20z
M163 79h158q124 0 195 76.5t71 208.5q0 135 -70 210t-194 75h-163z" />
    <glyph glyph-name="dcaron" unicode="&#x10f;" horiz-adv-x="607" 
d="M530 726l3 -706q0 -20 -20 -20h-52q-20 0 -20 20v55h-6q-26 -43 -71 -65.5t-97 -22.5q-99 0 -161 76.5t-62 196.5q0 127 68.5 205t178.5 78q93 0 148 -65h5v248q0 20 20 20h46q20 0 20 -20zM668 724l-21 -131q-3 -18 -21 -18h-9q-21 0 -19 21l13 131q1 19 21 19h18
q23 0 18 -22zM289 466q-74 0 -116 -53.5t-42 -145.5q0 -94 43.5 -147.5t115.5 -53.5q62 0 105.5 43.5t52.5 120.5v82q-12 74 -54.5 114t-104.5 40z" />
    <glyph glyph-name="Emacron" unicode="&#x112;" horiz-adv-x="587" 
d="M412 889v-14q0 -20 -20 -20h-188q-20 0 -20 20v14q0 20 20 20h188q20 0 20 -20zM164 80h357q20 0 20 -20v-40q0 -20 -20 -20h-432q-20 0 -20 20l3 687q0 20 20 20h428q20 0 20 -20v-40q0 -20 -20 -20h-360l2 -226h307q20 0 20 -20v-41q0 -20 -20 -20h-307z" />
    <glyph glyph-name="emacron" unicode="&#x113;" horiz-adv-x="568" 
d="M399 692v-14q0 -20 -20 -20h-188q-20 0 -20 20v14q0 20 20 20h188q20 0 20 -20zM296 542q110 0 169.5 -76t57.5 -193q0 -20 -21 -20h-370q1 -87 45.5 -137.5t119.5 -50.5q85 0 126 68q8 14 24 14h43q11 0 15.5 -6.5t-0.5 -16.5q-30 -66 -85.5 -101.5t-129.5 -35.5
q-109 0 -177.5 76t-68.5 199q0 125 70 202.5t182 77.5zM289 465q-64 0 -102.5 -39.5t-49.5 -103.5h297q-2 61 -40.5 102t-104.5 41z" />
    <glyph glyph-name="Edotaccent" unicode="&#x116;" horiz-adv-x="587" 
d="M340 923v-60q0 -20 -20 -20h-45q-20 0 -20 20v60q0 20 20 20h45q20 0 20 -20zM164 80h357q20 0 20 -20v-40q0 -20 -20 -20h-432q-20 0 -20 20l3 687q0 20 20 20h428q20 0 20 -20v-40q0 -20 -20 -20h-360l2 -226h307q20 0 20 -20v-41q0 -20 -20 -20h-307z" />
    <glyph glyph-name="edotaccent" unicode="&#x117;" horiz-adv-x="568" 
d="M328 726v-60q0 -20 -20 -20h-45q-20 0 -20 20v60q0 20 20 20h45q20 0 20 -20zM296 542q110 0 169.5 -76t57.5 -193q0 -20 -21 -20h-370q1 -87 45.5 -137.5t119.5 -50.5q85 0 126 68q8 14 24 14h43q11 0 15.5 -6.5t-0.5 -16.5q-30 -66 -85.5 -101.5t-129.5 -35.5
q-109 0 -177.5 76t-68.5 199q0 125 70 202.5t182 77.5zM289 465q-64 0 -102.5 -39.5t-49.5 -103.5h297q-2 61 -40.5 102t-104.5 41z" />
    <glyph glyph-name="Ecaron" unicode="&#x11a;" horiz-adv-x="587" 
d="M305 810h-16q-15 0 -25 11l-91 109q-8 10 -4.5 17.5t16.5 7.5h26q15 0 24 -13l59 -84h8l57 84q9 13 24 13h25q13 0 16.5 -7.5t-4.5 -17.5l-90 -109q-10 -11 -25 -11zM164 80h357q20 0 20 -20v-40q0 -20 -20 -20h-432q-20 0 -20 20l3 687q0 20 20 20h428q20 0 20 -20v-40
q0 -20 -20 -20h-360l2 -226h307q20 0 20 -20v-41q0 -20 -20 -20h-307z" />
    <glyph glyph-name="ecaron" unicode="&#x11b;" horiz-adv-x="568" 
d="M292 613h-16q-15 0 -25 11l-91 109q-8 11 -4.5 18t16.5 7h26q15 0 24 -13l59 -84h8l57 84q9 13 24 13h25q13 0 16.5 -7t-4.5 -18l-90 -109q-10 -11 -25 -11zM296 542q110 0 169.5 -76t57.5 -193q0 -20 -21 -20h-370q1 -87 45.5 -137.5t119.5 -50.5q85 0 126 68
q8 14 24 14h43q11 0 15.5 -6.5t-0.5 -16.5q-30 -66 -85.5 -101.5t-129.5 -35.5q-109 0 -177.5 76t-68.5 199q0 125 70 202.5t182 77.5zM137 322h297q-2 61 -40.5 102t-104.5 41q-64 0 -102.5 -39.5t-49.5 -103.5z" />
    <glyph glyph-name="Gbreve" unicode="&#x11e;" horiz-adv-x="775" 
d="M388 800q-59 0 -94.5 30t-35.5 89q0 15 20 15h14q20 0 20 -15q0 -70 76 -70q77 0 77 70q0 15 20 15h15q20 0 20 -15q0 -59 -36 -89t-96 -30zM452 352h252q17 0 17 -19q-3 -153 -95.5 -249.5t-241.5 -96.5q-146 0 -239.5 105.5t-93.5 270.5t97 270.5t246 105.5
q100 0 178 -50.5t114 -135.5q8 -23 -16 -23l-46 -1q-16 0 -24 14q-33 56 -88.5 87t-123.5 31q-109 0 -179 -78t-70 -214q0 -138 71 -220.5t187 -82.5q88 0 152.5 54.5t81.5 151.5h-179q-20 0 -20 20v40q0 20 20 20z" />
    <glyph glyph-name="gbreve" unicode="&#x11f;" horiz-adv-x="609" 
d="M432 723q0 -59 -36 -89t-96 -30q-59 0 -94.5 30t-35.5 89q0 15 20 15h14q20 0 20 -15q0 -70 76 -70q77 0 77 70q0 15 20 15h15q20 0 20 -15zM267 543q112 0 170 -90l6 1l1 57q0 20 20 20h46q20 0 20 -20l5 -445q1 -146 -64 -222.5t-179 -76.5q-150 0 -211 127
q-5 10 -0.5 16.5t15.5 6.5h45q15 0 24 -13q42 -59 127 -59q152 0 149 194v27h-5q-56 -66 -146 -66q-110 0 -178 74.5t-68 197.5q0 117 62 194t161 77zM290 466q-71 0 -115 -55t-44 -147q0 -88 42 -137t116 -49q63 0 105 36t54 102v82q-9 79 -52.5 123.5t-105.5 44.5z" />
    <glyph glyph-name="Gdotaccent" unicode="&#x120;" horiz-adv-x="775" 
d="M432 922v-60q0 -20 -20 -20h-45q-20 0 -20 20v60q0 20 20 20h45q20 0 20 -20zM452 352h252q17 0 17 -19q-3 -153 -95.5 -249.5t-241.5 -96.5q-146 0 -239.5 105.5t-93.5 270.5t97 270.5t246 105.5q100 0 178 -50.5t114 -135.5q8 -23 -16 -23l-46 -1q-16 0 -24 14
q-33 56 -88.5 87t-123.5 31q-109 0 -179 -78t-70 -214q0 -138 71 -220.5t187 -82.5q88 0 152.5 54.5t81.5 151.5h-179q-20 0 -20 20v40q0 20 20 20z" />
    <glyph glyph-name="gdotaccent" unicode="&#x121;" horiz-adv-x="609" 
d="M344 726v-60q0 -20 -20 -20h-45q-20 0 -20 20v60q0 20 20 20h45q20 0 20 -20zM267 543q112 0 170 -90l6 1l1 57q0 20 20 20h46q20 0 20 -20l5 -445q1 -146 -64 -222.5t-179 -76.5q-150 0 -211 127q-5 10 -0.5 16.5t15.5 6.5h45q15 0 24 -13q42 -59 127 -59q152 0 149 194
v27h-5q-56 -66 -146 -66q-110 0 -178 74.5t-68 197.5q0 117 62 194t161 77zM290 466q-71 0 -115 -55t-44 -147q0 -88 42 -137t116 -49q63 0 105 36t54 102v82q-9 79 -52.5 123.5t-105.5 44.5z" />
    <glyph glyph-name="Imacron" unicode="&#x12a;" horiz-adv-x="353" 
d="M291 889v-14q0 -20 -20 -20h-188q-20 0 -20 20v14q0 20 20 20h188q20 0 20 -20zM220 707l4 -687q0 -20 -20 -20h-55q-20 0 -20 20l3 687q0 20 20 20h48q20 0 20 -20z" />
    <glyph glyph-name="imacron" unicode="&#x12b;" horiz-adv-x="261" 
d="M245 692v-14q0 -20 -20 -20h-188q-20 0 -20 20v14q0 20 20 20h188q20 0 20 -20zM173 511l3 -491q0 -20 -20 -20h-52q-20 0 -20 20l4 491q0 20 20 20h45q20 0 20 -20z" />
    <glyph glyph-name="Idotaccent" unicode="&#x130;" horiz-adv-x="353" 
d="M219 923v-60q0 -20 -20 -20h-45q-20 0 -20 20v60q0 20 20 20h45q20 0 20 -20zM220 707l4 -687q0 -20 -20 -20h-55q-20 0 -20 20l3 687q0 20 20 20h48q20 0 20 -20z" />
    <glyph glyph-name="dotlessi" unicode="&#x131;" horiz-adv-x="261" 
d="M173 511l3 -491q0 -20 -20 -20h-52q-20 0 -20 20l4 491q0 20 20 20h45q20 0 20 -20z" />
    <glyph glyph-name="Lacute" unicode="&#x139;" horiz-adv-x="574" 
d="M230 937l-90 -111q-8 -12 -24 -12h-6q-12 0 -16 7t2 17l65 109q8 14 24 14h33q13 0 16.5 -7t-4.5 -17zM164 80h363q20 0 20 -20v-40q0 -20 -20 -20h-438q-20 0 -20 20l3 687q0 20 20 20h48q20 0 20 -20z" />
    <glyph glyph-name="lacute" unicode="&#x13a;" horiz-adv-x="285" 
d="M255 940l-90 -111q-8 -12 -24 -12h-6q-12 0 -16 6.5t2 17.5l65 109q8 14 24 14h33q13 0 16.5 -7t-4.5 -17zM185 726l4 -706q0 -20 -20 -20h-52q-20 0 -20 20l3 706q0 20 20 20h45q20 0 20 -20z" />
    <glyph glyph-name="Lcaron" unicode="&#x13d;" horiz-adv-x="574" 
d="M164 80h363q20 0 20 -20v-40q0 -20 -20 -20h-438q-20 0 -20 20l3 687q0 20 20 20h48q20 0 20 -20z" />
    <glyph glyph-name="lcaron" unicode="&#x13e;" horiz-adv-x="285" 
d="M185 726l4 -706q0 -20 -20 -20h-52q-20 0 -20 20l3 706q0 20 20 20h45q20 0 20 -20zM327 724l-21 -131q-3 -18 -21 -18h-9q-21 0 -19 21l13 131q1 19 21 19h18q23 0 18 -22z" />
    <glyph glyph-name="Nacute" unicode="&#x143;" horiz-adv-x="723" 
d="M473 937l-90 -111q-8 -12 -24 -12h-6q-12 0 -16 7t2 17l65 109q8 14 24 14h33q13 0 16.5 -7t-4.5 -17zM650 707l4 -687q0 -20 -20 -20h-92q-16 0 -24 14l-359 624l3 -618q0 -20 -20 -20h-53q-20 0 -20 20l3 687q0 20 20 20h97q16 0 24 -14l348 -603l3 597q0 20 20 20h46
q20 0 20 -20z" />
    <glyph glyph-name="nacute" unicode="&#x144;" horiz-adv-x="575" 
d="M401 736l-90 -111q-8 -12 -24 -12h-6q-12 0 -16 6.5t2 17.5l65 109q8 14 24 14h33q13 0 16.5 -7t-4.5 -17zM336 543q76 0 120.5 -50.5t44.5 -142.5v-330q0 -20 -20 -20h-46q-20 0 -20 20v308q0 65 -28.5 98t-79.5 33q-57 0 -95.5 -41t-46.5 -120l1 -278q0 -20 -20 -20
h-52q-20 0 -20 20l4 491q0 20 20 20h45q20 0 20 -20l1 -59l7 -1q65 92 165 92z" />
    <glyph glyph-name="Ncaron" unicode="&#x147;" horiz-adv-x="723" 
d="M369 814h-16q-15 0 -25 11l-91 109q-8 10 -4.5 17.5t16.5 7.5h26q15 0 24 -13l59 -84h8l57 84q9 13 24 13h25q13 0 16.5 -7.5t-4.5 -17.5l-90 -109q-10 -11 -25 -11zM650 707l4 -687q0 -20 -20 -20h-92q-16 0 -24 14l-359 624l3 -618q0 -20 -20 -20h-53q-20 0 -20 20
l3 687q0 20 20 20h97q16 0 24 -14l348 -603l3 597q0 20 20 20h46q20 0 20 -20z" />
    <glyph glyph-name="ncaron" unicode="&#x148;" horiz-adv-x="575" 
d="M296 613h-16q-15 0 -25 11l-91 109q-8 11 -4.5 18t16.5 7h26q15 0 24 -13l59 -84h8l57 84q9 13 24 13h25q13 0 16.5 -7t-4.5 -18l-90 -109q-10 -11 -25 -11zM336 543q76 0 120.5 -50.5t44.5 -142.5v-330q0 -20 -20 -20h-46q-20 0 -20 20v308q0 65 -28.5 98t-79.5 33
q-57 0 -95.5 -41t-46.5 -120l1 -278q0 -20 -20 -20h-52q-20 0 -20 20l4 491q0 20 20 20h45q20 0 20 -20l1 -59l7 -1q65 92 165 92z" />
    <glyph glyph-name="Omacron" unicode="&#x14c;" horiz-adv-x="774" 
d="M502 893v-14q0 -20 -20 -20h-188q-20 0 -20 20v14q0 20 20 20h188q20 0 20 -20zM393 739q147 0 241 -101t94 -263q0 -168 -98.5 -278t-247.5 -110q-146 0 -241 106t-95 270q0 165 98.5 270.5t248.5 105.5zM387 661q-112 0 -182.5 -78t-70.5 -214q0 -137 71 -220t183 -83
q110 0 181.5 82t71.5 219q0 135 -71 214.5t-183 79.5z" />
    <glyph glyph-name="omacron" unicode="&#x14d;" horiz-adv-x="590" 
d="M409 692v-14q0 -20 -20 -20h-188q-20 0 -20 20v14q0 20 20 20h188q20 0 20 -20zM299 543q107 0 176.5 -75t69.5 -196q0 -124 -72 -204.5t-182 -80.5q-107 0 -177 78t-70 198q0 124 72 202t183 78zM290 466q-71 0 -115 -53t-44 -142q0 -91 48 -148t120 -57q70 0 114.5 54
t44.5 142q0 93 -47.5 148.5t-120.5 55.5z" />
    <glyph glyph-name="Ohungarumlaut" unicode="&#x150;" horiz-adv-x="774" 
d="M455 933l-90 -111q-8 -12 -24 -12h-6q-12 0 -16 7t2 17l65 109q8 14 24 14h33q13 0 16.5 -7t-4.5 -17zM604 933l-90 -111q-8 -12 -24 -12h-6q-12 0 -16 7t2 17l65 109q8 14 24 14h33q13 0 16.5 -7t-4.5 -17zM393 739q147 0 241 -101t94 -263q0 -168 -98.5 -278
t-247.5 -110q-146 0 -241 106t-95 270q0 165 98.5 270.5t248.5 105.5zM387 661q-112 0 -182.5 -78t-70.5 -214q0 -137 71 -220t183 -83q110 0 181.5 82t71.5 219q0 135 -71 214.5t-183 79.5z" />
    <glyph glyph-name="ohungarumlaut" unicode="&#x151;" horiz-adv-x="590" 
d="M363 732l-90 -111q-8 -12 -24 -12h-6q-12 0 -16 6.5t2 17.5l65 109q8 14 24 14h33q13 0 16.5 -7t-4.5 -17zM512 732l-90 -111q-8 -12 -24 -12h-6q-12 0 -16 6.5t2 17.5l65 109q8 14 24 14h33q13 0 16.5 -7t-4.5 -17zM299 543q107 0 176.5 -75t69.5 -196
q0 -124 -72 -204.5t-182 -80.5q-107 0 -177 78t-70 198q0 124 72 202t183 78zM290 466q-71 0 -115 -53t-44 -142q0 -91 48 -148t120 -57q70 0 114.5 54t44.5 142q0 93 -47.5 148.5t-120.5 55.5z" />
    <glyph glyph-name="OE" unicode="&#x152;" horiz-adv-x="915" 
d="M542 80h307q20 0 20 -20v-40q0 -20 -20 -20h-453q-159 0 -254.5 101t-95.5 262t101 262.5t259 101.5h442q20 0 20 -20v-39q0 -20 -20 -20h-309l1 -227h258q20 0 20 -20v-41q0 -20 -20 -20h-257zM448 78l3 570h-45q-123 0 -197.5 -74t-74.5 -205q0 -133 74.5 -212
t195.5 -79h44z" />
    <glyph glyph-name="oe" unicode="&#x153;" horiz-adv-x="981" 
d="M710 542q110 0 169.5 -76t56.5 -193q0 -20 -20 -20h-371q1 -87 45.5 -137.5t120.5 -50.5q84 0 125 68q8 14 24 14h43q11 0 15.5 -6.5t-0.5 -16.5q-30 -66 -85.5 -101.5t-128.5 -35.5q-137 0 -206 114q-34 -53 -88 -83.5t-119 -30.5q-107 0 -177 78t-70 198q0 124 72 202
t183 78q65 0 118 -29.5t86 -81.5q70 110 207 110zM299 66q70 0 114.5 54t44.5 142q0 93 -47.5 148.5t-120.5 55.5q-71 0 -115 -53t-44 -142q0 -91 48 -148t120 -57zM550 322h297q-2 61 -40.5 102t-103.5 41q-64 0 -103 -39.5t-50 -103.5z" />
    <glyph glyph-name="Racute" unicode="&#x154;" horiz-adv-x="654" 
d="M445 932l-90 -111q-8 -12 -24 -12h-6q-12 0 -16 6.5t2 17.5l65 109q8 14 24 14h33q13 0 16.5 -7t-4.5 -17zM309 321h-147l2 -301q0 -20 -20 -20h-55q-20 0 -20 20l3 687q0 20 20 20h274q106 0 169.5 -55.5t63.5 -143.5q0 -78 -51 -134.5t-139 -69.5l212 -300
q7 -10 3.5 -17t-16.5 -7h-67q-15 0 -24 13zM161 399h194q76 0 116 32.5t40 89.5q0 59 -41.5 93.5t-114.5 34.5h-195z" />
    <glyph glyph-name="racute" unicode="&#x155;" horiz-adv-x="366" 
d="M300 736l-90 -111q-8 -12 -24 -12h-6q-12 0 -16 6.5t2 17.5l65 109q8 14 24 14h33q13 0 16.5 -7t-4.5 -17zM343 522v-52q0 -20 -20 -20q-71 -3 -111.5 -38t-46.5 -120l1 -272q0 -20 -20 -20h-52q-20 0 -20 20l4 491q0 20 20 20h45q20 0 20 -20l1 -63l7 -1q58 85 151 95
q21 2 21 -20z" />
    <glyph glyph-name="Rcaron" unicode="&#x158;" horiz-adv-x="654" 
d="M341 809h-16q-15 0 -25 11l-91 109q-8 11 -4.5 18t16.5 7h26q15 0 24 -13l59 -84h8l57 84q9 13 24 13h25q13 0 16.5 -7t-4.5 -18l-90 -109q-10 -11 -25 -11zM309 321h-147l2 -301q0 -20 -20 -20h-55q-20 0 -20 20l3 687q0 20 20 20h274q106 0 169.5 -55.5t63.5 -143.5
q0 -78 -51 -134.5t-139 -69.5l212 -300q7 -10 3.5 -17t-16.5 -7h-67q-15 0 -24 13zM161 399h194q76 0 116 32.5t40 89.5q0 59 -41.5 93.5t-114.5 34.5h-195z" />
    <glyph glyph-name="rcaron" unicode="&#x159;" horiz-adv-x="366" 
d="M196 613h-16q-15 0 -25 11l-91 109q-8 11 -4.5 18t16.5 7h26q15 0 24 -13l59 -84h8l57 84q9 13 24 13h25q13 0 16.5 -7t-4.5 -18l-90 -109q-10 -11 -25 -11zM164 448l7 -1q58 85 151 95q21 2 21 -20v-52q0 -20 -20 -20q-71 -3 -111.5 -38t-46.5 -120l1 -272
q0 -20 -20 -20h-52q-20 0 -20 20l4 491q0 20 20 20h45q20 0 20 -20z" />
    <glyph glyph-name="Sacute" unicode="&#x15a;" horiz-adv-x="655" 
d="M440 932l-90 -111q-8 -12 -24 -12h-6q-12 0 -16 6.5t2 17.5l65 109q8 14 24 14h33q13 0 16.5 -7t-4.5 -17zM329 739q99 0 166 -47.5t94 -119.5q4 -10 -0.5 -16.5t-15.5 -6.5h-46q-16 0 -24 14q-58 97 -181 97q-74 0 -114 -29t-40 -76t39.5 -75.5t136.5 -57.5l39 -12
q119 -37 172.5 -91t53.5 -130q0 -94 -70.5 -148t-190.5 -54q-126 0 -201 57t-96 134q-6 22 18 22h48q17 0 23 -15q55 -118 211 -118q80 0 123.5 28.5t43.5 81.5q0 50 -42.5 85t-138.5 67l-41 13q-109 35 -162.5 80.5t-55.5 119.5q-2 90 69.5 143.5t181.5 53.5z" />
    <glyph glyph-name="sacute" unicode="&#x15b;" horiz-adv-x="519" 
d="M372 736l-90 -111q-8 -12 -24 -12h-6q-12 0 -16 6.5t2 17.5l65 109q8 14 24 14h33q13 0 16.5 -7t-4.5 -17zM260 543q81 0 132.5 -37.5t70.5 -90.5q4 -10 -1 -16t-16 -6h-44q-15 0 -24 13q-41 60 -123 60q-47 0 -75.5 -20t-28.5 -52q0 -29 26.5 -45.5t89.5 -34.5l41 -12
q89 -26 128.5 -63t39.5 -92q0 -73 -55.5 -116.5t-148.5 -43.5q-86 0 -142.5 38.5t-80.5 101.5q-8 23 17 23h51q15 0 23 -15q39 -70 137 -70q110 0 110 74q0 32 -28 52.5t-93 39.5l-40 12q-79 22 -120 55t-41 90q0 68 55.5 111.5t139.5 43.5z" />
    <glyph glyph-name="Scedilla" unicode="&#x15e;" horiz-adv-x="655" 
d="M609 189q0 -93 -69 -146.5t-187 -55.5l-16 -48q80 -15 80 -84q0 -40 -26.5 -65.5t-75.5 -25.5q-33 0 -63 13q-16 9 -11 26l2 5q6 20 25 12q24 -10 47 -10q22 0 36 11.5t14 30.5q0 20 -17.5 33.5t-53.5 13.5q-20 2 -14 23l21 67q-106 12 -168.5 66.5t-81.5 122.5
q-6 22 18 22h48q17 0 23 -15q55 -118 211 -118q80 0 123.5 28.5t43.5 81.5q0 50 -42.5 85t-138.5 67l-41 13q-109 35 -162.5 80.5t-55.5 119.5q-2 90 69.5 143.5t181.5 53.5q99 0 166 -47.5t94 -119.5q4 -10 -0.5 -16.5t-15.5 -6.5h-46q-16 0 -24 14q-58 97 -181 97
q-74 0 -114 -29t-40 -76t39.5 -75.5t136.5 -57.5l39 -12q119 -37 172.5 -91t53.5 -130z" />
    <glyph glyph-name="scedilla" unicode="&#x15f;" horiz-adv-x="519" 
d="M476 147q0 -71 -52 -114t-140 -46l-16 -48q80 -15 80 -84q0 -40 -26.5 -65.5t-75.5 -25.5q-33 0 -63 13q-16 9 -11 26l2 5q6 20 25 12q24 -10 47 -10q22 0 36 11.5t14 30.5q0 20 -17.5 33.5t-53.5 13.5q-20 2 -14 23l21 67q-137 18 -183 138q-8 23 17 23h51q15 0 23 -15
q39 -70 137 -70q110 0 110 74q0 32 -28 52.5t-93 39.5l-40 12q-79 22 -120 55t-41 90q0 68 55.5 111.5t139.5 43.5q81 0 132.5 -37.5t70.5 -90.5q4 -10 -1 -16t-16 -6h-44q-15 0 -24 13q-41 60 -123 60q-47 0 -75.5 -20t-28.5 -52q0 -29 26.5 -45.5t89.5 -34.5l41 -12
q89 -26 128.5 -63t39.5 -92z" />
    <glyph glyph-name="Scaron" unicode="&#x160;" horiz-adv-x="655" 
d="M335 809h-16q-15 0 -25 11l-91 109q-8 11 -4.5 18t16.5 7h26q15 0 24 -13l59 -84h8l57 84q9 13 24 13h25q13 0 16.5 -7t-4.5 -18l-90 -109q-10 -11 -25 -11zM344 422l39 -12q119 -37 172.5 -91t53.5 -130q0 -94 -70.5 -148t-190.5 -54q-126 0 -201 57t-96 134
q-6 22 18 22h48q17 0 23 -15q55 -118 211 -118q80 0 123.5 28.5t43.5 81.5q0 50 -42.5 85t-138.5 67l-41 13q-109 35 -162.5 80.5t-55.5 119.5q-2 90 69.5 143.5t181.5 53.5q99 0 166 -47.5t94 -119.5q4 -10 -0.5 -16.5t-15.5 -6.5h-46q-16 0 -24 14q-58 97 -181 97
q-74 0 -114 -29t-40 -76t39.5 -75.5t136.5 -57.5z" />
    <glyph glyph-name="scaron" unicode="&#x161;" horiz-adv-x="519" 
d="M267 613h-16q-15 0 -25 11l-91 109q-8 11 -4.5 18t16.5 7h26q15 0 24 -13l59 -84h8l57 84q9 13 24 13h25q13 0 16.5 -7t-4.5 -18l-90 -109q-10 -11 -25 -11zM267 314l41 -12q89 -26 128.5 -63t39.5 -92q0 -73 -55.5 -116.5t-148.5 -43.5q-86 0 -142.5 38.5t-80.5 101.5
q-8 23 17 23h51q15 0 23 -15q39 -70 137 -70q110 0 110 74q0 32 -28 52.5t-93 39.5l-40 12q-79 22 -120 55t-41 90q0 68 55.5 111.5t139.5 43.5q81 0 132.5 -37.5t70.5 -90.5q4 -10 -1 -16t-16 -6h-44q-15 0 -24 13q-41 60 -123 60q-47 0 -75.5 -20t-28.5 -52
q0 -29 26.5 -45.5t89.5 -34.5z" />
    <glyph glyph-name="Tcedilla" unicode="&#x162;" horiz-adv-x="585" 
d="M571 707v-40q0 -20 -20 -20h-214l3 -627q0 -20 -18 -20l-21 -61q80 -15 80 -84q0 -40 -26.5 -65.5t-75.5 -25.5q-33 0 -63 13q-16 9 -11 26l2 5q6 20 25 12q24 -10 47 -10q22 0 36 11.5t14 30.5q0 20 -17.5 33.5t-53.5 13.5q-20 2 -14 23l24 78h-2q-20 0 -20 20l3 627
h-215q-20 0 -20 20v40q0 20 20 20h517q20 0 20 -20z" />
    <glyph glyph-name="tcedilla" unicode="&#x163;" horiz-adv-x="350" 
d="M327 511v-34q0 -20 -20 -20h-93l2 -437q0 -20 -20 -20h-1l-21 -61q80 -15 80 -84q0 -40 -26.5 -65.5t-75.5 -25.5q-33 0 -63 13q-16 9 -11 26l2 5q6 20 25 12q24 -10 47 -10q22 0 36 11.5t14 30.5q0 20 -17.5 33.5t-53.5 13.5q-20 2 -14 23l24 78q-17 0 -17 20l2 437h-76
q-20 0 -20 20v34q0 20 20 20h76l1 187q0 20 20 20h45q20 0 20 -20l1 -187h94q20 0 20 -20z" />
    <glyph glyph-name="Tcaron" unicode="&#x164;" horiz-adv-x="585" 
d="M300 809h-16q-15 0 -25 11l-91 109q-8 11 -4.5 18t16.5 7h26q15 0 24 -13l59 -84h8l57 84q9 13 24 13h25q13 0 16.5 -7t-4.5 -18l-90 -109q-10 -11 -25 -11zM571 707v-40q0 -20 -20 -20h-214l3 -627q0 -20 -20 -20h-54q-20 0 -20 20l3 627h-215q-20 0 -20 20v40
q0 20 20 20h517q20 0 20 -20z" />
    <glyph glyph-name="tcaron" unicode="&#x165;" horiz-adv-x="350" 
d="M358 746h18q23 0 18 -22l-21 -131q-3 -18 -22 -18h-8q-21 0 -19 21l13 131q1 19 21 19zM213 531h94q20 0 20 -20v-34q0 -20 -20 -20h-93l2 -437q0 -20 -20 -20h-52q-20 0 -20 20l2 437h-76q-20 0 -20 20v34q0 20 20 20h76l1 187q0 20 20 20h45q20 0 20 -20z" />
    <glyph glyph-name="Umacron" unicode="&#x16a;" horiz-adv-x="731" 
d="M479 893v-14q0 -20 -20 -20h-188q-20 0 -20 20v14q0 20 20 20h188q20 0 20 -20zM661 707l1 -394q1 -155 -81.5 -240.5t-215.5 -85.5t-215 85.5t-81 240.5l2 394q0 20 20 20h47q20 0 20 -20l2 -384q1 -128 55.5 -192.5t151.5 -64.5t150.5 64.5t53.5 192.5l2 384
q0 20 20 20h48q20 0 20 -20z" />
    <glyph glyph-name="umacron" unicode="&#x16b;" horiz-adv-x="577" 
d="M402 692v-14q0 -20 -20 -20h-188q-20 0 -20 20v14q0 20 20 20h188q20 0 20 -20zM499 511l3 -491q0 -20 -20 -20h-51q-20 0 -20 20l1 59h-7q-63 -92 -164 -92q-77 0 -122 52t-45 150l2 322q0 20 20 20h45q20 0 20 -20l2 -301q1 -139 106 -139q58 0 95.5 41t47.5 121l2 278
q0 20 20 20h45q20 0 20 -20z" />
    <glyph glyph-name="Uring" unicode="&#x16e;" horiz-adv-x="731" 
d="M364 970q39 0 65 -25t26 -66q0 -40 -26 -65t-65 -25q-38 0 -64 25t-26 65t26 65.5t64 25.5zM364 929q-21 0 -35 -13.5t-14 -36.5q0 -21 14 -35t35 -14t35.5 14t14.5 35q0 23 -14 36.5t-36 13.5zM661 707l1 -394q1 -155 -81.5 -240.5t-215.5 -85.5t-215 85.5t-81 240.5
l2 394q0 20 20 20h47q20 0 20 -20l2 -384q1 -128 55.5 -192.5t151.5 -64.5t150.5 64.5t53.5 192.5l2 384q0 20 20 20h48q20 0 20 -20z" />
    <glyph glyph-name="uring" unicode="&#x16f;" horiz-adv-x="577" 
d="M287 769q39 0 65 -25t26 -66q0 -40 -26 -65t-65 -25q-38 0 -64 25t-26 65t26 65.5t64 25.5zM287 728q-21 0 -35 -13.5t-14 -36.5q0 -21 14 -35t35 -14t35.5 14t14.5 35q0 23 -14 36.5t-36 13.5zM499 511l3 -491q0 -20 -20 -20h-51q-20 0 -20 20l1 59h-7q-63 -92 -164 -92
q-77 0 -122 52t-45 150l2 322q0 20 20 20h45q20 0 20 -20l2 -301q1 -139 106 -139q58 0 95.5 41t47.5 121l2 278q0 20 20 20h45q20 0 20 -20z" />
    <glyph glyph-name="Uhungarumlaut" unicode="&#x170;" horiz-adv-x="731" 
d="M432 933l-90 -111q-8 -12 -24 -12h-6q-12 0 -16 7t2 17l65 109q8 14 24 14h33q13 0 16.5 -7t-4.5 -17zM581 933l-90 -111q-8 -12 -24 -12h-6q-12 0 -16 7t2 17l65 109q8 14 24 14h33q13 0 16.5 -7t-4.5 -17zM661 707l1 -394q1 -155 -81.5 -240.5t-215.5 -85.5t-215 85.5
t-81 240.5l2 394q0 20 20 20h47q20 0 20 -20l2 -384q1 -128 55.5 -192.5t151.5 -64.5t150.5 64.5t53.5 192.5l2 384q0 20 20 20h48q20 0 20 -20z" />
    <glyph glyph-name="uhungarumlaut" unicode="&#x171;" horiz-adv-x="577" 
d="M356 732l-90 -111q-8 -12 -24 -12h-6q-12 0 -16 6.5t2 17.5l65 109q8 14 24 14h33q13 0 16.5 -7t-4.5 -17zM505 732l-90 -111q-8 -12 -24 -12h-6q-12 0 -16 6.5t2 17.5l65 109q8 14 24 14h33q13 0 16.5 -7t-4.5 -17zM499 511l3 -491q0 -20 -20 -20h-51q-20 0 -20 20l1 59
h-7q-63 -92 -164 -92q-77 0 -122 52t-45 150l2 322q0 20 20 20h45q20 0 20 -20l2 -301q1 -139 106 -139q58 0 95.5 41t47.5 121l2 278q0 20 20 20h45q20 0 20 -20z" />
    <glyph glyph-name="Wcircumflex" unicode="&#x174;" horiz-adv-x="979" 
d="M485 911l-57 -84q-9 -13 -24 -13h-25q-13 0 -16.5 7t4.5 18l90 109q10 11 25 11h16q15 0 25 -11l91 -109q8 -11 4.5 -18t-16.5 -7h-26q-15 0 -24 13l-59 84h-8zM900 727h43q11 0 15.5 -6t1.5 -16l-193 -688q-4 -17 -23 -17h-67q-19 0 -23 17l-164 583l-165 -583
q-4 -17 -23 -17h-66q-19 0 -23 17l-194 688q-3 10 1.5 16t15.5 6h49q19 0 23 -17l158 -564h6l164 564q4 17 23 17h68q18 0 23 -17l157 -564h5l165 564q4 17 23 17z" />
    <glyph glyph-name="wcircumflex" unicode="&#x175;" horiz-adv-x="773" 
d="M381 710l-57 -84q-9 -13 -24 -13h-25q-13 0 -16.5 7.5t4.5 17.5l90 109q10 11 25 11h16q15 0 25 -11l91 -109q8 -10 4.5 -17.5t-16.5 -7.5h-26q-15 0 -24 13l-59 84h-8zM686 531h43q11 0 15.5 -6t1.5 -16l-137 -492q-5 -17 -23 -17h-76q-19 0 -23 17l-100 348h-8
l-93 -348q-6 -17 -23 -17h-77q-18 0 -23 17l-136 492q-3 10 1.5 16t15.5 6h44q17 0 23 -17l111 -418h11l112 418q6 17 23 17h38q18 0 23 -17l113 -418h10l111 418q6 17 23 17z" />
    <glyph glyph-name="Ycircumflex" unicode="&#x176;" horiz-adv-x="598" 
d="M294 911l-57 -84q-9 -13 -24 -13h-25q-13 0 -16.5 7t4.5 18l90 109q10 11 25 11h16q15 0 25 -11l91 -109q8 -11 4.5 -18t-16.5 -7h-26q-15 0 -24 13l-59 84h-8zM345 306l2 -286q0 -20 -20 -20h-53q-20 0 -20 20l2 286l-229 397q-6 11 -2 17.5t16 6.5h53q16 0 24 -14
l180 -313h6l181 313q8 14 24 14h48q12 0 16 -6.5t-2 -17.5z" />
    <glyph glyph-name="ycircumflex" unicode="&#x177;" horiz-adv-x="525" 
d="M259 710l-57 -84q-9 -13 -24 -13h-25q-13 0 -16.5 7.5t4.5 17.5l90 109q10 11 25 11h16q15 0 25 -11l91 -109q8 -10 4.5 -17.5t-16.5 -7.5h-26q-15 0 -24 13l-59 84h-8zM436 531h43q24 0 16 -23l-249 -712q-6 -16 -23 -16h-53q-24 0 -16 23l63 174l-188 531q-8 23 16 23
h44q17 0 23 -16l143 -417h7l151 417q6 16 23 16z" />
    <glyph glyph-name="Ydieresis" unicode="&#x178;" horiz-adv-x="598" 
d="M268 928v-60q0 -20 -20 -20h-29q-20 0 -20 20v60q0 20 20 20h29q20 0 20 -20zM413 928v-60q0 -20 -20 -20h-29q-20 0 -20 20v60q0 20 20 20h29q20 0 20 -20zM345 306l2 -286q0 -20 -20 -20h-53q-20 0 -20 20l2 286l-229 397q-6 11 -2 17.5t16 6.5h53q16 0 24 -14
l180 -313h6l181 313q8 14 24 14h48q12 0 16 -6.5t-2 -17.5z" />
    <glyph glyph-name="Zacute" unicode="&#x179;" horiz-adv-x="655" 
d="M439 932l-90 -111q-8 -12 -24 -12h-6q-12 0 -16 6.5t2 17.5l65 109q8 14 24 14h33q13 0 16.5 -7t-4.5 -17zM167 81h407q20 0 20 -20v-41q0 -20 -20 -20h-504q-20 0 -20 20v36q0 12 10 25l409 559v7h-380q-20 0 -20 20v40q0 20 20 20h476q20 0 20 -20v-34q0 -15 -9 -26
l-409 -561v-5z" />
    <glyph glyph-name="zacute" unicode="&#x17a;" horiz-adv-x="492" 
d="M352 736l-90 -111q-8 -12 -24 -12h-6q-12 0 -16 6.5t2 17.5l65 109q8 14 24 14h33q13 0 16.5 -7t-4.5 -17zM442 511v-41q-5 -12 -10 -19l-282 -373v-4h277q20 0 20 -20v-34q0 -20 -20 -20h-363q-20 0 -20 20v40q0 6 3 9l296 383v5h-268q-20 0 -20 20v34q0 20 20 20h347
q20 0 20 -20z" />
    <glyph glyph-name="Zdotaccent" unicode="&#x17b;" horiz-adv-x="655" 
d="M370 922v-60q0 -20 -20 -20h-45q-20 0 -20 20v60q0 20 20 20h45q20 0 20 -20zM167 81h407q20 0 20 -20v-41q0 -20 -20 -20h-504q-20 0 -20 20v36q0 12 10 25l409 559v7h-380q-20 0 -20 20v40q0 20 20 20h476q20 0 20 -20v-34q0 -15 -9 -26l-409 -561v-5z" />
    <glyph glyph-name="zdotaccent" unicode="&#x17c;" horiz-adv-x="492" 
d="M283 726v-60q0 -20 -20 -20h-45q-20 0 -20 20v60q0 20 20 20h45q20 0 20 -20zM442 511v-41q-5 -12 -10 -19l-282 -373v-4h277q20 0 20 -20v-34q0 -20 -20 -20h-363q-20 0 -20 20v40q0 6 3 9l296 383v5h-268q-20 0 -20 20v34q0 20 20 20h347q20 0 20 -20z" />
    <glyph glyph-name="Zcaron" unicode="&#x17d;" horiz-adv-x="655" 
d="M335 809h-16q-15 0 -25 11l-91 109q-8 11 -4.5 18t16.5 7h26q15 0 24 -13l59 -84h8l57 84q9 13 24 13h25q13 0 16.5 -7t-4.5 -18l-90 -109q-10 -11 -25 -11zM167 81h407q20 0 20 -20v-41q0 -20 -20 -20h-504q-20 0 -20 20v36q0 12 10 25l409 559v7h-380q-20 0 -20 20v40
q0 20 20 20h476q20 0 20 -20v-34q0 -15 -9 -26l-409 -561v-5z" />
    <glyph glyph-name="zcaron" unicode="&#x17e;" horiz-adv-x="492" 
d="M247 613h-16q-15 0 -25 11l-91 109q-8 11 -4.5 18t16.5 7h26q15 0 24 -13l59 -84h8l57 84q9 13 24 13h25q13 0 16.5 -7t-4.5 -18l-90 -109q-10 -11 -25 -11zM150 74h277q20 0 20 -20v-34q0 -20 -20 -20h-363q-20 0 -20 20v40q0 6 3 9l296 383v5h-268q-20 0 -20 20v34
q0 20 20 20h347q20 0 20 -20v-41q-5 -12 -10 -19l-282 -373v-4z" />
    <glyph glyph-name="Acaron" unicode="&#x1cd;" 
d="M339 810h-16q-15 0 -25 11l-91 109q-8 10 -4.5 17.5t16.5 7.5h26q15 0 24 -13l59 -84h8l57 84q9 13 24 13h25q13 0 16.5 -7.5t-4.5 -17.5l-90 -109q-10 -11 -25 -11zM472 225h-281l-75 -209q-6 -16 -23 -16h-55q-11 0 -15.5 6.5t-0.5 16.5l259 688q6 16 23 16h56
q17 0 23 -16l259 -688q4 -10 -0.5 -16.5t-15.5 -6.5h-56q-17 0 -23 16zM444 305l-112 311l-112 -311h224z" />
    <glyph glyph-name="acaron" unicode="&#x1ce;" horiz-adv-x="561" 
d="M285 613h-16q-15 0 -25 11l-91 109q-8 11 -4.5 18t16.5 7h26q15 0 24 -13l59 -84h8l57 84q9 13 24 13h25q13 0 16.5 -7t-4.5 -18l-90 -109q-10 -11 -25 -11zM466 0h-49q-20 0 -20 20v64h-7q-61 -93 -183 -93q-73 0 -118 38.5t-45 108.5q0 90 80 132t247 52l26 2v29
q0 115 -117 115q-88 0 -120 -63q-9 -15 -24 -15h-43q-25 0 -17 22q20 55 73 93t139 38q93 0 143.5 -49.5t51.5 -149.5l3 -324q0 -20 -20 -20zM226 67q69 0 117.5 40.5t53.5 87.5v63l-24 -2q-127 -8 -185 -34t-58 -78q0 -37 25.5 -57t70.5 -20z" />
    <glyph glyph-name="Icaron" unicode="&#x1cf;" horiz-adv-x="353" 
d="M184 810h-16q-15 0 -25 11l-91 109q-8 10 -4.5 17.5t16.5 7.5h26q15 0 24 -13l59 -84h8l57 84q9 13 24 13h25q13 0 16.5 -7.5t-4.5 -17.5l-90 -109q-10 -11 -25 -11zM152 727h48q20 0 20 -20l4 -687q0 -20 -20 -20h-55q-20 0 -20 20l3 687q0 20 20 20z" />
    <glyph glyph-name="icaron" unicode="&#x1d0;" horiz-adv-x="261" 
d="M138 613h-16q-15 0 -25 11l-91 109q-8 11 -4.5 18t16.5 7h26q15 0 24 -13l59 -84h8l57 84q9 13 24 13h25q13 0 16.5 -7t-4.5 -18l-90 -109q-10 -11 -25 -11zM108 531h45q20 0 20 -20l3 -491q0 -20 -20 -20h-52q-20 0 -20 20l4 491q0 20 20 20z" />
    <glyph glyph-name="Ocaron" unicode="&#x1d1;" horiz-adv-x="774" 
d="M394 814h-16q-15 0 -25 11l-91 109q-8 10 -4.5 17.5t16.5 7.5h26q15 0 24 -13l59 -84h8l57 84q9 13 24 13h25q13 0 16.5 -7.5t-4.5 -17.5l-90 -109q-10 -11 -25 -11zM393 739q147 0 241 -101t94 -263q0 -168 -98.5 -278t-247.5 -110q-146 0 -241 106t-95 270
q0 165 98.5 270.5t248.5 105.5zM388 66q110 0 181.5 82t71.5 219q0 135 -71 214.5t-183 79.5t-182.5 -78t-70.5 -214q0 -137 71 -220t183 -83z" />
    <glyph glyph-name="ocaron" unicode="&#x1d2;" horiz-adv-x="590" 
d="M302 613h-16q-15 0 -25 11l-91 109q-8 11 -4.5 18t16.5 7h26q15 0 24 -13l59 -84h8l57 84q9 13 24 13h25q13 0 16.5 -7t-4.5 -18l-90 -109q-10 -11 -25 -11zM299 543q107 0 176.5 -75t69.5 -196q0 -124 -72 -204.5t-182 -80.5q-107 0 -177 78t-70 198q0 124 72 202
t183 78zM299 66q70 0 114.5 54t44.5 142q0 93 -47.5 148.5t-120.5 55.5q-71 0 -115 -53t-44 -142q0 -91 48 -148t120 -57z" />
    <glyph glyph-name="Ucaron" unicode="&#x1d3;" horiz-adv-x="731" 
d="M372 814h-16q-15 0 -25 11l-91 109q-8 10 -4.5 17.5t16.5 7.5h26q15 0 24 -13l59 -84h8l57 84q9 13 24 13h25q13 0 16.5 -7.5t-4.5 -17.5l-90 -109q-10 -11 -25 -11zM661 707l1 -394q1 -155 -81.5 -240.5t-215.5 -85.5t-215 85.5t-81 240.5l2 394q0 20 20 20h47
q20 0 20 -20l2 -384q1 -128 55.5 -192.5t151.5 -64.5t150.5 64.5t53.5 192.5l2 384q0 20 20 20h48q20 0 20 -20z" />
    <glyph glyph-name="ucaron" unicode="&#x1d4;" horiz-adv-x="577" 
d="M295 613h-16q-15 0 -25 11l-91 109q-8 11 -4.5 18t16.5 7h26q15 0 24 -13l59 -84h8l57 84q9 13 24 13h25q13 0 16.5 -7t-4.5 -18l-90 -109q-10 -11 -25 -11zM482 0h-51q-20 0 -20 20l1 59h-7q-63 -92 -164 -92q-77 0 -122 52t-45 150l2 322q0 20 20 20h45q20 0 20 -20
l2 -301q1 -139 106 -139q58 0 95.5 41t47.5 121l2 278q0 20 20 20h45q20 0 20 -20l3 -491q0 -20 -20 -20z" />
    <glyph glyph-name="dotlessj" unicode="&#x237;" horiz-adv-x="291" 
d="M191 511l4 -529q0 -58 -14.5 -98.5t-43 -62t-61.5 -30.5t-78 -11q-20 0 -20 20v38q0 20 20 20q59 2 81.5 25t23.5 94l3 534q0 20 20 20h45q20 0 20 -20z" />
    <glyph glyph-name="circumflex" unicode="&#x2c6;" horiz-adv-x="519" 
d="M292 747l91 -109q8 -10 4.5 -17.5t-16.5 -7.5h-26q-15 0 -24 13l-59 84h-8l-57 -84q-9 -13 -24 -13h-25q-13 0 -16.5 7.5t4.5 17.5l90 109q10 11 25 11h16q15 0 25 -11z" />
    <glyph glyph-name="caron" unicode="&#x2c7;" horiz-adv-x="519" 
d="M345 742h26q13 0 16.5 -7t-4.5 -18l-91 -109q-10 -11 -25 -11h-15q-15 0 -25 11l-91 109q-8 11 -4.5 18t16.5 7h25q15 0 24 -12l60 -85h8l56 84q9 13 24 13z" />
    <glyph glyph-name="breve" unicode="&#x2d8;" horiz-adv-x="493" 
d="M378 723q0 -59 -36 -89t-96 -30q-59 0 -94.5 30t-35.5 89q0 15 20 15h14q20 0 20 -15q0 -70 76 -70q77 0 77 70q0 15 20 15h15q20 0 20 -15z" />
    <glyph glyph-name="dotaccent" unicode="&#x2d9;" horiz-adv-x="317" 
d="M201 726v-60q0 -20 -20 -20h-45q-20 0 -20 20v60q0 20 20 20h45q20 0 20 -20z" />
    <glyph glyph-name="ring" unicode="&#x2da;" horiz-adv-x="413" 
d="M206 769q39 0 65 -25t26 -66q0 -40 -26 -65t-65 -25q-38 0 -64 25t-26 65t26 65.5t64 25.5zM206 728q-21 0 -35 -13.5t-14 -36.5q0 -21 14 -35t35 -14t35.5 14t14.5 35q0 23 -14 36.5t-36 13.5z" />
    <glyph glyph-name="tilde" unicode="&#x2dc;" horiz-adv-x="502" 
d="M195 738q21 0 39.5 -11t29 -24t23 -24t23.5 -11q22 0 26 34q3 20 20 20h10q22 0 20 -21q-10 -87 -76 -87q-25 0 -45 17.5t-36.5 35t-32.5 17.5q-24 0 -29 -34q-3 -20 -20 -20h-11q-20 0 -19 21q7 87 78 87z" />
    <glyph glyph-name="hungarumlaut" unicode="&#x2dd;" horiz-adv-x="548" 
d="M264 736l-90 -111q-8 -12 -24 -12h-6q-12 0 -16 6.5t2 17.5l65 109q8 14 24 14h33q13 0 16.5 -7t-4.5 -17zM413 736l-91 -111q-8 -12 -24 -12h-6q-12 0 -16 6.5t2 17.5l66 109q8 14 24 14h33q13 0 16.5 -7t-4.5 -17z" />
    <glyph glyph-name="Wgrave" unicode="&#x1e80;" horiz-adv-x="979" 
d="M507 814h-6q-16 0 -24 12l-90 111q-8 10 -4.5 17t16.5 7h33q16 0 24 -14l65 -109q6 -10 2 -17t-16 -7zM900 727h43q11 0 15.5 -6t1.5 -16l-193 -688q-4 -17 -23 -17h-67q-19 0 -23 17l-164 583l-165 -583q-4 -17 -23 -17h-66q-19 0 -23 17l-194 688q-3 10 1.5 16t15.5 6
h49q19 0 23 -17l158 -564h6l164 564q4 17 23 17h68q18 0 23 -17l157 -564h5l165 564q4 17 23 17z" />
    <glyph glyph-name="wgrave" unicode="&#x1e81;" horiz-adv-x="773" 
d="M402 613h-6q-16 0 -24 12l-90 111q-8 10 -4.5 17t16.5 7h33q16 0 24 -14l65 -109q6 -11 2 -17.5t-16 -6.5zM686 531h43q11 0 15.5 -6t1.5 -16l-137 -492q-5 -17 -23 -17h-76q-19 0 -23 17l-100 348h-8l-93 -348q-6 -17 -23 -17h-77q-18 0 -23 17l-136 492q-3 10 1.5 16
t15.5 6h44q17 0 23 -17l111 -418h11l112 418q6 17 23 17h38q18 0 23 -17l113 -418h10l111 418q6 17 23 17z" />
    <glyph glyph-name="Wacute" unicode="&#x1e82;" horiz-adv-x="979" 
d="M602 937l-90 -111q-8 -12 -24 -12h-6q-12 0 -16 7t2 17l65 109q8 14 24 14h33q13 0 16.5 -7t-4.5 -17zM900 727h43q11 0 15.5 -6t1.5 -16l-193 -688q-4 -17 -23 -17h-67q-19 0 -23 17l-164 583l-165 -583q-4 -17 -23 -17h-66q-19 0 -23 17l-194 688q-3 10 1.5 16t15.5 6
h49q19 0 23 -17l158 -564h6l164 564q4 17 23 17h68q18 0 23 -17l157 -564h5l165 564q4 17 23 17z" />
    <glyph glyph-name="wacute" unicode="&#x1e83;" horiz-adv-x="773" 
d="M498 736l-90 -111q-8 -12 -24 -12h-6q-12 0 -16 6.5t2 17.5l65 109q8 14 24 14h33q13 0 16.5 -7t-4.5 -17zM686 531h43q11 0 15.5 -6t1.5 -16l-137 -492q-5 -17 -23 -17h-76q-19 0 -23 17l-100 348h-8l-93 -348q-6 -17 -23 -17h-77q-18 0 -23 17l-136 492q-3 10 1.5 16
t15.5 6h44q17 0 23 -17l111 -418h11l112 418q6 17 23 17h38q18 0 23 -17l113 -418h10l111 418q6 17 23 17z" />
    <glyph glyph-name="Wdieresis" unicode="&#x1e84;" horiz-adv-x="979" 
d="M459 928v-60q0 -20 -20 -20h-29q-20 0 -20 20v60q0 20 20 20h29q20 0 20 -20zM604 928v-60q0 -20 -20 -20h-29q-20 0 -20 20v60q0 20 20 20h29q20 0 20 -20zM900 727h43q11 0 15.5 -6t1.5 -16l-193 -688q-4 -17 -23 -17h-67q-19 0 -23 17l-164 583l-165 -583
q-4 -17 -23 -17h-66q-19 0 -23 17l-194 688q-3 10 1.5 16t15.5 6h49q19 0 23 -17l158 -564h6l164 564q4 17 23 17h68q18 0 23 -17l157 -564h5l165 564q4 17 23 17z" />
    <glyph glyph-name="wdieresis" unicode="&#x1e85;" horiz-adv-x="773" 
d="M354 727v-60q0 -20 -20 -20h-29q-20 0 -20 20v60q0 20 20 20h29q20 0 20 -20zM499 727v-60q0 -20 -20 -20h-29q-20 0 -20 20v60q0 20 20 20h29q20 0 20 -20zM686 531h43q11 0 15.5 -6t1.5 -16l-137 -492q-5 -17 -23 -17h-76q-19 0 -23 17l-100 348h-8l-93 -348
q-6 -17 -23 -17h-77q-18 0 -23 17l-136 492q-3 10 1.5 16t15.5 6h44q17 0 23 -17l111 -418h11l112 418q6 17 23 17h38q18 0 23 -17l113 -418h10l111 418q6 17 23 17z" />
    <glyph glyph-name="Ygrave" unicode="&#x1ef2;" horiz-adv-x="598" 
d="M315 814h-6q-16 0 -24 12l-90 111q-8 10 -4.5 17t16.5 7h33q16 0 24 -14l65 -109q6 -10 2 -17t-16 -7zM345 306l2 -286q0 -20 -20 -20h-53q-20 0 -20 20l2 286l-229 397q-6 11 -2 17.5t16 6.5h53q16 0 24 -14l180 -313h6l181 313q8 14 24 14h48q12 0 16 -6.5t-2 -17.5z
" />
    <glyph glyph-name="ygrave" unicode="&#x1ef3;" horiz-adv-x="525" 
d="M281 613h-6q-16 0 -24 12l-90 111q-8 10 -4.5 17t16.5 7h33q16 0 24 -14l65 -109q6 -11 2 -17.5t-16 -6.5zM436 531h43q24 0 16 -23l-249 -712q-6 -16 -23 -16h-53q-24 0 -16 23l63 174l-188 531q-8 23 16 23h44q17 0 23 -16l143 -417h7l151 417q6 16 23 16z" />
    <glyph glyph-name="endash" unicode="&#x2013;" horiz-adv-x="717" 
d="M620 299v-37q0 -20 -20 -20h-483q-20 0 -20 20v37q0 20 20 20h483q20 0 20 -20z" />
    <glyph glyph-name="emdash" unicode="&#x2014;" horiz-adv-x="891" 
d="M794 299v-37q0 -20 -20 -20h-657q-20 0 -20 20v37q0 20 20 20h657q20 0 20 -20z" />
    <glyph glyph-name="quoteleft" unicode="&#x2018;" horiz-adv-x="289" 
d="M107 490v58q0 64 14.5 104.5t47.5 75.5q12 12 27 4q16 -9 4 -27q-25 -37 -27 -68t23 -53q14 -9 14 -24v-70q0 -20 -20 -20h-63q-20 0 -20 20z" />
    <glyph glyph-name="quoteright" unicode="&#x2019;" horiz-adv-x="231" 
d="M182 711v-58q0 -65 -14.5 -105.5t-47.5 -74.5q-12 -12 -27 -4q-16 9 -4 27q55 81 4 121q-13 10 -13 24v70q0 20 20 20h62q20 0 20 -20z" />
    <glyph glyph-name="quotesinglbase" unicode="&#x201a;" horiz-adv-x="300" 
d="M222 85v-58q0 -65 -14.5 -105.5t-47.5 -74.5q-12 -12 -27 -4q-16 9 -4 27q55 81 4 121q-13 10 -13 24v70q0 20 20 20h62q20 0 20 -20z" />
    <glyph glyph-name="quotedblleft" unicode="&#x201c;" horiz-adv-x="479" 
d="M107 490v58q0 65 14.5 105.5t47.5 74.5q12 12 27 4q16 -9 4 -27q-55 -81 -4 -121q13 -10 13 -24v-70q0 -20 -20 -20h-62q-20 0 -20 20zM297 490v58q0 65 14.5 105.5t47.5 74.5q12 12 27 4q16 -9 4 -27q-55 -81 -4 -121q13 -10 13 -24v-70q0 -20 -20 -20h-62q-20 0 -20 20
z" />
    <glyph glyph-name="quotedblright" unicode="&#x201d;" horiz-adv-x="420" 
d="M182 707v-59q0 -63 -14.5 -104t-47.5 -75q-12 -12 -27 -4q-16 9 -4 27q54 82 3 121q-13 10 -13 24v70q0 20 20 20h63q20 0 20 -20zM372 707v-59q0 -63 -14.5 -104t-47.5 -75q-12 -12 -27 -4q-16 9 -4 27q54 82 3 121q-13 10 -13 24v70q0 20 20 20h63q20 0 20 -20z" />
    <glyph glyph-name="quotedblbase" unicode="&#x201e;" horiz-adv-x="300" 
d="M140 105h62q20 0 20 -20v-58q0 -65 -14.5 -105.5t-47.5 -74.5q-12 -12 -27 -4q-16 9 -4 27q55 81 4 121q-13 10 -13 24v70q0 20 20 20z" />
    <glyph glyph-name="dagger" unicode="&#x2020;" horiz-adv-x="624" 
d="M504 309v-29q0 -20 -20 -20h-137l3 -451q0 -20 -20 -20h-36q-20 0 -20 20l2 451h-136q-20 0 -20 20v29q0 20 20 20h136l1 174q0 20 20 20h29q20 0 20 -20l1 -174h137q20 0 20 -20z" />
    <glyph glyph-name="daggerdbl" unicode="&#x2021;" horiz-adv-x="624" 
d="M347 260v-176h137q20 0 20 -20v-29q0 -20 -20 -20h-137l1 -206q0 -20 -20 -20h-32q-20 0 -20 20v206h-136q-20 0 -20 20v29q0 20 20 20h136l1 176h-137q-20 0 -20 20v29q0 20 20 20h137v174q0 20 20 20h29q20 0 20 -20l1 -174h137q20 0 20 -20v-29q0 -20 -20 -20h-137z
" />
    <glyph glyph-name="bullet" unicode="&#x2022;" horiz-adv-x="528" 
d="M264 423q56 0 94.5 -38.5t38.5 -94.5t-38.5 -94.5t-94.5 -38.5t-94.5 38.5t-38.5 94.5t38.5 94.5t94.5 38.5z" />
    <glyph glyph-name="ellipsis" unicode="&#x2026;" horiz-adv-x="902" 
d="M219 109v-69q0 -20 -20 -20h-63q-20 0 -20 20v69q0 20 20 20h63q20 0 20 -20zM508 109v-69q0 -20 -20 -20h-63q-20 0 -20 20v69q0 20 20 20h63q20 0 20 -20zM797 109v-69q0 -20 -20 -20h-63q-20 0 -20 20v69q0 20 20 20h63q20 0 20 -20z" />
    <glyph glyph-name="perthousand" unicode="&#x2030;" horiz-adv-x="1102" 
d="M186 771q58 0 98.5 -40.5t40.5 -98.5t-40.5 -99t-98.5 -41t-99 41t-41 99t41 98.5t99 40.5zM658 706l-476 -693q-9 -13 -24 -13h-40q-12 0 -15.5 7t3.5 17l477 693q9 13 24 13h39q12 0 15.5 -7t-3.5 -17zM186 706q-31 0 -52.5 -21.5t-21.5 -52.5q0 -30 21.5 -52t52.5 -22
q30 0 51.5 22t21.5 52q0 31 -21.5 52.5t-51.5 21.5zM599 294q58 0 98.5 -40.5t40.5 -98.5t-40.5 -98.5t-98.5 -40.5t-98.5 40.5t-40.5 98.5t40.5 98.5t98.5 40.5zM917 294q58 0 98.5 -40.5t40.5 -98.5t-40.5 -98.5t-98.5 -40.5t-99 40.5t-41 98.5t41 98.5t99 40.5zM599 229
q-31 0 -52.5 -21.5t-21.5 -52.5q0 -30 21.5 -52t52.5 -22q30 0 52 22t22 52q0 31 -22 52.5t-52 21.5zM917 229q-31 0 -52.5 -21.5t-21.5 -52.5q0 -30 21.5 -52t52.5 -22q30 0 52 22t22 52q0 31 -22 52.5t-52 21.5z" />
    <glyph glyph-name="guilsinglleft" unicode="&#x2039;" horiz-adv-x="422" 
d="M311 406v-30q0 -17 -13 -24l-130 -85l130 -85q13 -7 13 -24v-29q0 -12 -6.5 -16t-17.5 3l-163 106q-13 7 -13 24v42q0 16 13 25l163 106q10 7 17 3t7 -16z" />
    <glyph glyph-name="guilsinglright" unicode="&#x203a;" horiz-adv-x="422" 
d="M135 419l163 -106q13 -7 13 -24v-42q0 -16 -13 -25l-163 -106q-10 -7 -17 -3t-7 16v30q0 17 13 24l130 85l-130 85q-13 7 -13 24v29q0 12 7 16t17 -3z" />
    <glyph glyph-name="zerosuperior" unicode="&#x2070;" horiz-adv-x="313" 
d="M158 731q49 0 79 -35t30 -97q0 -64 -31 -100.5t-81 -36.5q-49 0 -79 35.5t-30 98.5t31 99t81 36zM155 680q-24 0 -38 -21t-14 -60q0 -43 16 -64.5t39 -21.5q24 0 38 21.5t14 61.5q0 42 -15.5 63t-39.5 21z" />
    <glyph glyph-name="foursuperior" unicode="&#x2074;" horiz-adv-x="331" 
d="M285 536v-4q0 -20 -20 -20h-31v-26q0 -20 -20 -20h-15q-20 0 -20 20v26h-113q-20 0 -20 20v13q0 19 6 27l120 146q8 9 15 9h26q20 0 20 -20l1 -151h31q20 0 20 -20zM180 556l1 99h-3l-79 -97v-2h81z" />
    <glyph glyph-name="fivesuperior" unicode="&#x2075;" horiz-adv-x="308" 
d="M176 640q37 0 61 -23t24 -61q0 -42 -28 -68t-79 -26q-79 0 -103 55q-4 10 1.5 16t16.5 6h18q13 0 24 -13q16 -17 46 -17q23 0 35 11t12 30t-12.5 31t-35.5 12q-20 0 -35 -6q-15 -5 -25 -5h-20q-21 0 -19 21l13 105q1 19 21 19h140q20 0 20 -20v-7q0 -20 -20 -20h-111
l-7 -55h4q24 15 59 15z" />
    <glyph glyph-name="sixsuperior" unicode="&#x2076;" horiz-adv-x="321" 
d="M182 629q42 0 67.5 -22.5t25.5 -58.5q0 -39 -31 -62.5t-75 -23.5q-50 0 -83 32.5t-33 95.5q0 65 32 103t86 38q67 0 92 -50q4 -9 -1 -15.5t-16 -6.5h-15q-13 0 -24 13q-13 13 -36 13q-54 0 -61 -73h4q32 17 68 17zM174 508q44 0 44 37q0 16 -12.5 28t-36.5 12
q-33 0 -58 -15q9 -62 63 -62z" />
    <glyph glyph-name="sevensuperior" unicode="&#x2077;" horiz-adv-x="300" 
d="M66 727h167q20 0 20 -20v-10q0 -8 -6 -20q-55 -95 -95 -195q-6 -16 -23 -16h-26q-11 0 -15.5 7t0.5 17q50 106 98 182v4h-120q-20 0 -20 20v11q0 20 20 20z" />
    <glyph glyph-name="eightsuperior" unicode="&#x2078;" horiz-adv-x="318" 
d="M159 731q43 0 69.5 -20.5t26.5 -51.5q0 -39 -41 -55v-3q51 -15 51 -65q0 -33 -28 -53.5t-77 -20.5t-78 20.5t-29 53.5q0 47 52 65v4q-41 12 -41 52q0 33 26.5 53.5t68.5 20.5zM159 689q-20 0 -31.5 -9t-11.5 -23t11.5 -23t31.5 -9q43 0 43 32t-43 32zM159 577
q-24 0 -37.5 -11t-13.5 -27t13.5 -26.5t37.5 -10.5q25 0 38 10.5t13 26.5q0 17 -13.5 27.5t-37.5 10.5z" />
    <glyph glyph-name="ninesuperior" unicode="&#x2079;" horiz-adv-x="339" 
d="M172 731q49 0 81.5 -32t32.5 -96q0 -65 -32.5 -103t-88.5 -38q-68 0 -95 49q-5 9 0 16t16 7h15q12 0 25 -13q15 -13 39 -13q29 0 45.5 20t18.5 54h-4q-29 -17 -67 -17q-41 0 -66 22t-25 59q0 39 30.5 62t74.5 23zM172 609q30 0 56 15q-10 62 -62 62q-19 0 -31 -10
t-12 -27q0 -16 12.5 -28t36.5 -12z" />
    <glyph glyph-name="euro" unicode="&#x20ac;" horiz-adv-x="696" 
d="M470 66q58 0 120 23q20 8 25 -13l7 -33q5 -17 -12 -25q-65 -31 -147 -31q-128 0 -216 73.5t-115 196.5h-66q-20 0 -20 20v30q0 20 20 20h56q-1 11 -1 34q0 14 2 40h-57q-20 0 -20 20v30q0 20 20 20h67q29 124 119 197t216 73q77 0 142 -29q17 -7 12 -26l-10 -37
q-6 -20 -26 -12q-64 26 -125 26q-89 0 -152.5 -50.5t-87.5 -141.5l223 1q20 0 20 -20v-30q0 -20 -20 -20l-234 -1q-1 -10 -1 -32q0 -14 2 -42l233 1q20 0 20 -20v-30q0 -20 -20 -20l-221 -1q26 -90 90.5 -140.5t156.5 -50.5z" />
    <glyph glyph-name="trademark" unicode="&#x2122;" horiz-adv-x="657" 
d="M286 707v-2q0 -20 -20 -20h-60v-196q0 -20 -20 -20h-7q-20 0 -20 20l1 196l-60 -1q-20 0 -20 20v3q0 20 20 20h166q20 0 20 -20zM570 707l6 -218q2 -20 -19 -20h-5q-20 0 -20 20l-4 166h-3l-50 -169q-4 -17 -22 -17h-11q-18 0 -22 17l-53 169h-4l-4 -166q0 -20 -20 -20
h-4q-21 0 -19 20l6 218q2 20 21 20h28q18 0 22 -17l52 -172h4l52 172q4 17 22 17h26q19 0 21 -20z" />
    <glyph glyph-name="minus" unicode="&#x2212;" horiz-adv-x="763" 
d="M678 286v-37q0 -20 -20 -20h-483q-20 0 -20 20v37q0 20 20 20h483q20 0 20 -20z" />
    <glyph glyph-name="infinity" unicode="&#x221e;" horiz-adv-x="1078" 
d="M764 510q86 0 140 -61.5t54 -152.5t-55 -150.5t-147 -59.5q-63 0 -113 33t-110 109q-55 -71 -106.5 -106.5t-113.5 -35.5q-86 0 -139.5 61t-53.5 152t55.5 151t147.5 60q64 0 113 -33.5t109 -110.5q54 72 105 108t114 36zM322 172q83 0 167 127q-46 68 -84 98.5t-83 30.5
q-51 0 -83 -34.5t-32 -88.5q0 -60 31.5 -96.5t83.5 -36.5zM756 168q52 0 83.5 34t31.5 89q0 59 -31.5 96t-83.5 37q-45 0 -84.5 -32.5t-82.5 -94.5q44 -68 82.5 -98.5t84.5 -30.5z" />
    <glyph glyph-name="notequal" unicode="&#x2260;" horiz-adv-x="735" 
d="M451 331l-68 -146h213q20 0 20 -20v-34q0 -20 -20 -20h-247l-66 -141q-7 -15 -23 -15h-38q-11 0 -15.5 6.5t0.5 17.5l62 132h-129q-20 0 -20 20v34q0 20 20 20h164l68 146h-232q-20 0 -20 20v34q0 20 20 20h266l64 136q8 15 23 15h37q11 0 15.5 -7t-0.5 -17l-59 -127h110
q20 0 20 -20v-34q0 -20 -20 -20h-145z" />
    <glyph glyph-name="lessequal" unicode="&#x2264;" horiz-adv-x="660" 
d="M540 478v-27q0 -17 -16 -23l-308 -104l308 -102q16 -4 16 -22v-26q0 -24 -23 -16l-381 127q-16 4 -16 22v31q0 17 16 23l381 133q23 8 23 -16zM120 49v26q0 20 20 20h380q20 0 20 -20v-26q0 -20 -20 -20h-380q-20 0 -20 20z" />
    <glyph glyph-name="greaterequal" unicode="&#x2265;" horiz-adv-x="660" 
d="M143 494l381 -133q16 -6 16 -23v-31q0 -18 -16 -22l-381 -127q-23 -8 -23 16v26q0 18 16 22l308 102l-308 104q-16 6 -16 23v27q0 24 23 16zM120 49v26q0 20 20 20h380q20 0 20 -20v-26q0 -20 -20 -20h-380q-20 0 -20 20z" />
    <glyph glyph-name="apple" unicode="&#xf8ff;" horiz-adv-x="575" 
d="M374 532q10 3 16.5 -2.5t4.5 -16.5q-6 -36 -29 -62q-23 -32 -59 -38q-9 -2 -15 3t-5 15q3 33 28 64q24 29 59 37zM393 405q53 0 86 -36q13 -14 -4 -29q-42 -37 -42 -91q2 -63 57 -99q15 -11 10 -27q-14 -32 -32 -57q-20 -32 -38.5 -49.5t-43.5 -17.5q-16 0 -41 11t-46 11
q-23 0 -48 -11t-40 -11q-17 0 -34 11.5t-27 23.5t-25 33q-54 78 -56 175q0 54 23 96q40 65 111 67q19 1 49 -11.5t39 -12.5q7 0 42.5 12t59.5 12z" />
    <glyph glyph-name="idotaccent" horiz-adv-x="261" 
d="M174 726v-60q0 -20 -20 -20h-45q-20 0 -20 20v60q0 20 20 20h45q20 0 20 -20zM173 511l3 -491q0 -20 -20 -20h-52q-20 0 -20 20l4 491q0 20 20 20h45q20 0 20 -20z" />
    <glyph glyph-name="braceleft.case" horiz-adv-x="439" 
d="M369 830v-34q0 -20 -20 -20q-54 0 -78 -24.5t-24 -87.5v-171q0 -59 -14.5 -87t-43.5 -43v-7q58 -27 58 -136v-165q0 -63 24 -88t78 -25q20 0 20 -20v-34q0 -20 -20 -20h-12q-88 0 -129.5 42t-41.5 140v153q0 58 -10 84t-40 32q-19 4 -19 22v37q0 18 19 22q30 6 40 32
t10 84v155q0 98 41 138.5t130 40.5h12q20 0 20 -20z" />
    <glyph glyph-name="braceright.case" horiz-adv-x="439" 
d="M70 -112v34q0 20 20 20q54 0 78 25t24 88v170q0 59 14.5 87t43.5 43v7q-58 27 -58 136v166q0 63 -24 87.5t-78 24.5q-20 0 -20 20v34q0 20 20 20h12q89 0 130 -41.5t41 -140.5v-153q0 -58 10 -84t40 -32q19 -4 19 -22v-37q0 -18 -19 -22q-30 -6 -40 -32t-10 -84v-155
q0 -98 -41 -138.5t-130 -40.5h-12q-20 0 -20 20z" />
    <glyph glyph-name="bracketleft.case" horiz-adv-x="413" 
d="M176 761l3 -812h144q20 0 20 -20v-29q0 -20 -20 -20h-206q-20 0 -20 20l3 910q0 20 20 20h203q20 0 20 -20v-29q0 -20 -20 -20h-147z" />
    <glyph glyph-name="bracketright.case" horiz-adv-x="413" 
d="M90 830h206q20 0 20 -20l-3 -910q0 -20 -20 -20h-203q-20 0 -20 20v29q0 20 20 20h147l-3 812h-144q-20 0 -20 20v29q0 20 20 20z" />
    <glyph glyph-name="parenleft.case" horiz-adv-x="428" 
d="M322 836l9 -6q16 -12 4 -28q-136 -181 -136 -444t136 -444q13 -16 -4 -28l-9 -6q-14 -10 -28 2q-88 86 -139 211.5t-51 264.5q0 140 51 265.5t139 211.5q14 12 28 1z" />
    <glyph glyph-name="parenright.case" horiz-adv-x="428" 
d="M106 -120l-9 6q-17 12 -4 28q136 181 136 444t-136 444q-12 16 4 28l9 7q14 10 28 -2q89 -86 139.5 -211.5t50.5 -265.5t-50.5 -265t-139.5 -211q-14 -12 -28 -2z" />
    <glyph glyph-name="guillemetleft.case" horiz-adv-x="648" 
d="M111 346v42q0 16 13 25l163 106q10 7 17 3t7 -16v-30q0 -17 -13 -24l-130 -85l130 -85q13 -7 13 -24v-29q0 -12 -6.5 -16t-17.5 3l-163 106q-13 7 -13 24zM537 506v-30q0 -17 -13 -24l-130 -85l130 -85q13 -7 13 -24v-29q0 -12 -6.5 -16t-17.5 3l-163 106q-13 7 -13 24
v42q0 16 13 25l163 106q10 7 17 3t7 -16z" />
    <glyph glyph-name="guillemetright.case" horiz-adv-x="648" 
d="M111 477v29q0 12 6.5 16t17.5 -3l163 -106q13 -7 13 -24v-42q0 -16 -13 -25l-163 -106q-10 -7 -17 -3t-7 16v30q0 17 13 24l130 85l-130 85q-13 7 -13 24zM361 519l163 -106q13 -7 13 -24v-42q0 -16 -13 -25l-163 -106q-10 -7 -17 -3t-7 16v30q0 17 13 24l130 85l-130 85
q-13 7 -13 24v29q0 12 7 16t17 -3z" />
    <glyph glyph-name="guilsinglleft.case" horiz-adv-x="422" 
d="M311 506v-30q0 -17 -13 -24l-130 -85l130 -85q13 -7 13 -24v-29q0 -12 -6.5 -16t-17.5 3l-163 106q-13 7 -13 24v42q0 16 13 25l163 106q10 7 17 3t7 -16z" />
    <glyph glyph-name="guilsinglright.case" horiz-adv-x="422" 
d="M135 519l163 -106q13 -7 13 -24v-42q0 -16 -13 -25l-163 -106q-10 -7 -17 -3t-7 16v30q0 17 13 24l130 85l-130 85q-13 7 -13 24v29q0 12 7 16t17 -3z" />
    <glyph glyph-name="caron.alt" horiz-adv-x="307" 
d="M188 740l-21 -131q-3 -18 -21 -18h-9q-21 0 -19 21l13 131q1 19 21 19h18q23 0 18 -22z" />
    </font>
</defs>
</svg>
